<svg width="979" height="979" xmlns="http://www.w3.org/2000/svg" xmlns:xlink="http://www.w3.org/1999/xlink" xml:space="preserve" overflow="hidden"><g transform="translate(-1651 -748)"><path d="M1911 1623 1911 1392.5C1911 1265.2 2014.2 1162 2141.5 1162 2268.8 1162 2372 1265.2 2372 1392.5L2372 1623Z" fill="#2196F3" fill-rule="evenodd"/><path d="M1959 1034C1959 933.484 2040.71 852 2141.5 852 2242.29 852 2324 933.484 2324 1034 2324 1134.52 2242.29 1216 2141.5 1216 2040.71 1216 1959 1134.52 1959 1034Z" stroke="#FFFFFF" stroke-width="27.5" stroke-miterlimit="8" fill="#2196F3" fill-rule="evenodd"/><path d="M2254 1471.5C2254 1406.61 2306.61 1354 2371.5 1354 2436.39 1354 2489 1406.61 2489 1471.5 2489 1536.39 2436.39 1589 2371.5 1589 2306.61 1589 2254 1536.39 2254 1471.5Z" stroke="#FFFFFF" stroke-width="13.75" stroke-miterlimit="8" fill="#2196F3" fill-rule="evenodd"/><path d="M2282 1471C2282 1421.29 2322.29 1381 2372 1381 2421.71 1381 2462 1421.29 2462 1471 2462 1520.71 2421.71 1561 2372 1561 2322.29 1561 2282 1520.71 2282 1471Z" fill="#FFFFFF" fill-rule="evenodd"/><path d="M2305.86 1459.63 2360.64 1459.63 2360.64 1404.86 2383.37 1404.86 2383.37 1459.63 2438.14 1459.63 2438.14 1482.37 2383.37 1482.37 2383.37 1537.14 2360.64 1537.14 2360.64 1482.37 2305.86 1482.37Z" fill="#2196F3" fill-rule="evenodd"/></g></svg>