<svg xmlns="http://www.w3.org/2000/svg" width="453.608" height="397.346"
    viewBox="0 0 453.608 397.346">
    <defs>
        <style>
            .a{fill:#fff;}.b{fill:#211715;}.c{fill:#e2e2e2;}.d{fill:#3d8dcc;}.e{fill:#74c66d;}.f{fill:#febe69;}.g{fill:#c7e8c5;}</style>
    </defs>
    <path class="a"
        d="M320.059,297.743c0-3.349-.025-47.588-.025-51.472,0-1.8,2.526-3.307,5.642-3.307s5.643,1.578,5.643,3.378c0,3.9.025,48.36.025,51.454,0,1.8-2.5,3.308-5.617,3.308s-5.668-1.508-5.668-3.308Z" />
    <path class="a"
        d="M339.7,308.913c0-3.35-.024-47.588-.024-51.472,0-1.8,2.525-3.308,5.642-3.308s5.642,1.579,5.642,3.378c0,3.9.026,48.361.026,51.455,0,1.8-2.5,3.308-5.618,3.308s-5.668-1.508-5.668-3.308Z" />
    <path class="b"
        d="M321.859,297.743q0-10.618-.011-21.238-.006-13.575-.013-27.151a19.878,19.878,0,0,1,0-2.908c.131-.851,1.185-1.225,1.942-1.435a6.238,6.238,0,0,1,5.25.7c.741.592.493,1.626.493,2.492q0,2.215,0,4.43.007,14.546.016,29.092l.006,12.175q0,1.674,0,3.348c0,2.054-3.314,2.2-4.811,2-.645-.086-2.874-.528-2.874-1.5a1.8,1.8,0,0,0-3.6,0c0,4.069,5.286,5.432,8.5,5.1,3.009-.309,6.331-1.9,6.383-5.319.046-3,0-6,0-9q-.007-15.893-.017-31.786,0-4.934,0-9.866c0-3.076-2.463-4.947-5.334-5.5-3.252-.62-8.688.209-9.471,4.173a18.334,18.334,0,0,0-.079,3.46q0,2.66,0,5.321,0,7.792.008,15.586.007,13.421.013,26.841c0,.329,0,.657,0,.986A1.8,1.8,0,0,0,321.859,297.743Z" />
    <path class="b"
        d="M341.5,308.913q0-10.62-.01-21.239-.007-13.575-.013-27.15a19.753,19.753,0,0,1,0-2.909c.131-.85,1.184-1.224,1.941-1.434a6.243,6.243,0,0,1,5.251.695c.74.593.492,1.627.493,2.493q0,2.215,0,4.43.006,14.546.015,29.092l.006,12.174q0,1.675,0,3.349c0,2.053-3.314,2.2-4.812,2-.645-.085-2.874-.527-2.874-1.5a1.8,1.8,0,0,0-3.6,0c0,4.069,5.287,5.432,8.5,5.1,3.009-.309,6.33-1.9,6.383-5.319.045-3,0-6,0-9q-.007-15.894-.016-31.786,0-4.933,0-9.866c0-3.076-2.462-4.947-5.334-5.5-3.252-.62-8.688.209-9.471,4.173a18.407,18.407,0,0,0-.079,3.459l0,5.322q0,7.793.008,15.585.006,13.421.013,26.842v.986A1.8,1.8,0,0,0,341.5,308.913Z" />
    <path class="a"
        d="M315.363,347.9l-27.65,15.965a2.141,2.141,0,0,1-2.15,0l-37.725-21.781a2.171,2.171,0,0,1-1.085-1.882V303.687c13.158,7.6,26.441,15.269,39.6,22.867q11.727-13.537,24.018-26.573a1.093,1.093,0,0,1,1.885.75c0,3.543,0,6.9.005,9.168a1.077,1.077,0,0,0,1.893.7q11.521-13.18,23.576-25.885a2.133,2.133,0,0,1,.152.8c0,5.3,0,26.664,0,48.136a2.157,2.157,0,0,1-1.078,1.873C332.893,337.781,324.417,342.676,315.363,347.9Z" />
    <path class="a"
        d="M176.187,347.933c2.17,1.247,4.294,2.464,6.345,3.633a1.1,1.1,0,0,0,1.1,0c1.323-.758,2.907-1.664,4.193-2.4a.544.544,0,0,0,.274-.477c0-2.092,0-9.46,0-14.859C184.388,338.222,180.3,343.065,176.187,347.933Z" />
    <path class="a"
        d="M314.559,21.883l-20.44-11.8a9.248,9.248,0,0,0-9.252,0l-20.434,11.8a4.218,4.218,0,0,0,0,7.309l20.434,11.8a9.241,9.241,0,0,0,9.252,0c5.41-3.123,14.39-8.308,20.441-11.8A4.214,4.214,0,0,0,314.559,21.883Z" />
    <path class="c"
        d="M176.894,255.817l-36.887,21.3-39.874,23.026L80.238,311.632c-3.343,1.931-.325,7.118,3.028,5.181l36.988-21.359,39.847-23.01L179.922,261c3.343-1.93.325-7.117-3.028-5.181Z" />
    <path class="c"
        d="M324.186,228.875l-33.572,19.387-36.476,21.063-18.154,10.483c-3.342,1.931-.325,7.118,3.029,5.181l33.664-19.44,36.45-21.048,18.088-10.445c3.343-1.931.325-7.118-3.029-5.181Z" />
    <path class="c"
        d="M112.963,199.611l20.963,12.1L168,231.389l9.093,5.25c3.35,1.934,6.375-3.249,3.028-5.181L157.041,218.13,123.56,198.8l-7.569-4.37c-3.35-1.934-6.375,3.249-3.028,5.181Z" />
    <path class="c"
        d="M226.22,171.618l-59.228,34.2-15.358,8.868c-3.342,1.931-.325,7.117,3.029,5.181l59.285-34.235,15.3-8.836c3.342-1.93.325-7.117-3.029-5.18Z" />
    <path class="b"
        d="M365.613,92.8c0,1.555,0,3.11,0,4.664a1.8,1.8,0,1,0,3.6,0c0-1.554,0-3.109,0-4.664a1.8,1.8,0,1,0-3.6,0Z" />
    <path class="a"
        d="M367.375,107.073l-15.91-9.317c0-.731,0-13.966,0-14.449l10.378-6.078a11.028,11.028,0,0,1,11.139,0l10.379,6.079c0,.5,0,13.708,0,14.448-5.426,3.176-10.852,6.354-15.721,9.2l-.228.134Z" />
    <path class="b"
        d="M372.8,79.209l9.654,5.653-.892-1.554q-.011,7.224,0,14.448l.891-1.555-15.949,9.34h1.817L352.373,96.2l.892,1.554c0-4.816-.012-9.633,0-14.449l-.892,1.554,9.73-5.7a1.8,1.8,0,0,0-1.817-3.109l-6.194,3.628L351.327,81.3c-.873.512-1.595.953-1.662,2.048-.1,1.585,0,3.207,0,4.794v7.115c0,.739-.023,1.482,0,2.221.059,1.809,1.842,2.389,3.221,3.2l13.618,7.974a1.815,1.815,0,0,0,1.817,0l11.889-6.962,2.989-1.75c.963-.564,1.884-.971,1.963-2.215.035-.564,0-1.141,0-1.7,0-4.138.128-8.3,0-12.433-.059-1.9-2.162-2.575-3.606-3.42L374.616,76.1a1.8,1.8,0,0,0-1.817,3.109Z" />
    <path class="b"
        d="M357.808,89.109l8.7,5.093a1.815,1.815,0,0,0,1.817,0l8.7-5.093A1.8,1.8,0,0,0,375.2,86l-8.7,5.092h1.817L359.625,86a1.8,1.8,0,0,0-1.817,3.108Z" />
    <path class="a"
        d="M35.8,218.542,2.7,199.43a1.791,1.791,0,0,1-.895-1.551V151.045a1.791,1.791,0,0,1,.895-1.551L33.46,131.732v-16.9a1.789,1.789,0,0,1,.895-1.55L57.891,99.692a1.791,1.791,0,0,1,1.791,0l14.638,8.449C80,104.862,85.7,101.575,89.362,99.457a2.15,2.15,0,0,1,2.163,0l33.776,19.5a1.8,1.8,0,0,1,.892,1.561c0,16.362,0,30.271,0,46.811a1.81,1.81,0,0,1-.9,1.564L38.446,219.036a1.791,1.791,0,0,1-1.791,0Z" />
    <path class="d"
        d="M69.21,169.5v15.663c-7.489,4.326-23.642,13.653-31.664,18.283V187.786C43.34,184.438,62,173.666,69.21,169.5Z" />
    <path class="d"
        d="M126.189,136.611v15.663c-8.022,4.631-24.163,13.957-31.652,18.272V154.883C101.743,150.72,120.385,139.959,126.189,136.611Z" />
    <path class="b"
        d="M71.01,201.273v-63.96c0-.286-.022-.584,0-.869a2.089,2.089,0,0,1,1.3-1.716l6.856-3.959,9.322-5.382,3.325-1.92a5.467,5.467,0,0,0,.847-.489c.25-.216.2.005.084-.179a8.788,8.788,0,0,1-.006,2.292v61.56a1.8,1.8,0,0,0,3.6,0V134.287c0-3.782.121-7.586,0-11.366a3.593,3.593,0,0,0-2.433-3.488,4.15,4.15,0,0,0-3.453.663l-7.543,4.355-9.351,5.4c-2.081,1.2-4.86,2.3-5.784,4.693a10.656,10.656,0,0,0-.363,3.88v62.85a1.8,1.8,0,0,0,3.6,0Z" />
    <path class="b"
        d="M68.3,150.818l-14.594,8.426L39.66,167.355a15,15,0,0,0-3.383,2.023A2.261,2.261,0,0,0,35.75,171c-.016.554,0,1.11,0,1.664v42.683a1.8,1.8,0,0,0,3.6,0V170.651l-.891,1.554,31.66-18.278c2.006-1.158.195-4.271-1.817-3.109Z" />
    <path class="b"
        d="M88.554,114.282c-9.011-5.2-17.982-10.481-27.036-15.609a5.122,5.122,0,0,0-3.944-.7,8.79,8.79,0,0,0-2.045,1l-7.114,4.107c-4.782,2.761-9.7,5.369-14.377,8.3-2.694,1.688-2.378,4.47-2.378,7.2v10.175a9.184,9.184,0,0,0,0,2.35c-1.113-.743.87-.689.191-.527a2.841,2.841,0,0,0-.62.358l-6.218,3.59L7.207,144.81c-1.572.908-3.164,1.789-4.72,2.725C.571,148.689,0,150.491,0,152.573v43.168c0,2.2.206,4.208,2.324,5.553,3.669,2.331,7.563,4.367,11.326,6.54l17.51,10.109c1.328.767,2.64,1.585,3.994,2.306,2.585,1.376,4.615.1,6.89-1.211l9.483-5.475q18.965-10.95,37.93-21.9,9.7-5.6,19.4-11.2l9.482-5.475,4.31-2.489c1.5-.862,3.384-1.6,4.432-3.036a6.3,6.3,0,0,0,.917-4v-41.4c0-1.619.256-3.48-.488-4.977a5.4,5.4,0,0,0-2.253-2.241c-1.679-.985-3.372-1.947-5.059-2.92l-18.015-10.4-7.2-4.158c-1.667-.963-3.331-2.2-5.378-1.81a12.307,12.307,0,0,0-3.631,1.777l-3.556,2.054q-4.5,2.6-9,5.194c-2.006,1.158-.2,4.27,1.817,3.109l9-5.195,3.556-2.053c.866-.5,2.143-1.664,3.174-1.238a27.722,27.722,0,0,1,3.068,1.771l16.6,9.585c4.3,2.483,8.646,4.9,12.908,7.452,1,.6.857,1.481.857,2.6q0,5.1,0,10.21v32.4a5.652,5.652,0,0,1-.062,1.872c-.216.545-.88.786-1.349,1.057l-2.586,1.493-18.534,10.7L64.8,201.744l-18.534,10.7-4.311,2.489L39.8,216.178c-.63.364-1.479,1.133-2.246,1.133a2.826,2.826,0,0,1-1.237-.55L22.527,208.8,6.456,199.523c-.863-.5-2.713-1.14-2.856-2.264a25.631,25.631,0,0,1,0-3.148V157.1c0-1.661-.01-3.323,0-4.984.006-1.084.623-1.421,1.483-1.917l14.983-8.651c4.486-2.589,9.065-5.065,13.477-7.78,1.924-1.184,1.717-2.96,1.717-4.912V119c0-1.325-.532-3.782.755-4.6,1.816-1.154,3.745-2.162,5.608-3.238l15.813-9.13c.478-.275,1.024-.716,1.607-.584a4.9,4.9,0,0,1,1.188.638l6.253,3.611,16.857,9.732,3.4,1.961c2.01,1.16,3.825-1.949,1.817-3.109Z" />
    <path class="b"
        d="M43.42,122.075l14.988,8.653,2.146,1.239c2.01,1.16,3.825-1.95,1.817-3.109l-14.988-8.653-2.146-1.239c-2.01-1.16-3.824,1.949-1.817,3.109Z" />
    <path class="b"
        d="M30.97,164.773l-16.5-9.524-2.361-1.363c-2.01-1.16-3.825,1.949-1.817,3.109l16.5,9.523,2.362,1.364c2.01,1.16,3.825-1.95,1.817-3.109Z" />
    <path class="b"
        d="M124.389,119.523l-30.761,17.76c-2,1.158-.195,4.27,1.817,3.108l30.761-17.76c2.006-1.158.2-4.27-1.817-3.108Z" />
    <path class="b"
        d="M68.3,167.95,42.168,183.038l-5.526,3.19c-2.006,1.158-.2,4.27,1.817,3.109l25.4-14.663,6.261-3.615c2.006-1.158.195-4.27-1.817-3.109Z" />
    <path class="b"
        d="M38.46,205l31.659-18.278c2.006-1.158.195-4.27-1.817-3.108L36.643,201.893c-2.005,1.158-.2,4.27,1.817,3.108Z" />
    <path class="b"
        d="M78.989,149.34c-.271-.168-.016,0,.031.046-.088-.078-.167-.162-.249-.245-.174-.179.139.243.02.013-.048-.091-.1-.178-.152-.268-.131-.247.091.389-.038-.1-.03-.115-.069-.226-.1-.342a2.225,2.225,0,0,1-.1-.7q-.021-.39,0-.78c0-.112.062-.709.018-.378A9.5,9.5,0,0,1,78.778,145a7.077,7.077,0,0,1,.48-1.228,12.317,12.317,0,0,1,.916-1.576,6.172,6.172,0,0,1,.795-.984c.173-.185.352-.365.537-.537q.172-.161.353-.313c.056-.048.333-.259.149-.123a6.729,6.729,0,0,1,1.405-.828,3.935,3.935,0,0,1,.769-.205c-.314.047.68.113.25,0,.1.026.2.052.3.085-.215-.07-.063-.118-.009.01s.16.116.005-.019c.079.069.147.142.221.215-.275-.275.21.367.153.247-.087-.183.057.16.07.2.048.151.084.3.12.459a6.574,6.574,0,0,1-.242,2.972,8.632,8.632,0,0,1-1.255,2.772,8.868,8.868,0,0,1-2.341,2.4,6.372,6.372,0,0,1-1.717.815c-.041.013-.36.063-.081.03a3.19,3.19,0,0,1-.437.011l-.085,0c.2.033.2.029,0-.014l-.151-.045q.281.132.005-.009a1.8,1.8,0,0,0-1.816,3.109c3.125,1.665,6.792-.744,8.762-3.163a12.525,12.525,0,0,0,2.988-8.751,5.429,5.429,0,0,0-2.25-4.257,5.2,5.2,0,0,0-4.964-.027,12.459,12.459,0,0,0-6.088,6.915c-1.159,2.912-1.512,7.388,1.552,9.283a1.8,1.8,0,0,0,1.816-3.109Z" />
    <path class="b"
        d="M95.445,156.435l26.133-15.087,5.526-3.191c2.006-1.158.2-4.27-1.817-3.108l-25.4,14.663-6.262,3.615c-2,1.158-.195,4.27,1.817,3.108Z" />
    <path class="b"
        d="M95.445,172.1,127.1,153.823c2.006-1.158.2-4.27-1.817-3.108L93.628,168.993c-2,1.158-.195,4.27,1.817,3.108Z" />
    <path class="e"
        d="M144.42,140.5a5.415,5.415,0,0,0-8.811,0,15.793,15.793,0,0,0-1.919,3.454,12.331,12.331,0,0,0-.7,2.354,19.741,19.741,0,0,0-.24,2.329,9.612,9.612,0,0,0,.329,4.082,4.958,4.958,0,0,0,2.349,2.593,13.111,13.111,0,0,0,4.591.832,14.415,14.415,0,0,0,4.591-.832,4.958,4.958,0,0,0,2.349-2.593,9.612,9.612,0,0,0,.329-4.082,19.741,19.741,0,0,0-.24-2.329,12.331,12.331,0,0,0-.7-2.354A15.763,15.763,0,0,0,144.42,140.5Z" />
    <path class="b"
        d="M145.975,139.589a7.465,7.465,0,0,0-4.709-3.037,7.191,7.191,0,0,0-5.3,1.133,12.231,12.231,0,0,0-3.908,5.527,18.169,18.169,0,0,0-1.18,6.806,7.43,7.43,0,0,0,2.468,6.05,9.629,9.629,0,0,0,5.391,1.8c3.367.336,7.392-.354,9.338-3.4,1.409-2.2,1.162-5.111.855-7.589a15.928,15.928,0,0,0-2.959-7.3,1.852,1.852,0,0,0-2.463-.646,1.815,1.815,0,0,0-.646,2.463,11.948,11.948,0,0,1,2.618,7.229,12.859,12.859,0,0,1,.02,2.55,3.426,3.426,0,0,1-.68,1.68,3.19,3.19,0,0,1-.714.653c-.132.089-.273.161-.413.238.357-.2-.058.019-.159.051a10.933,10.933,0,0,1-3.412.534,10.745,10.745,0,0,1-3.415-.46c.041.012-.54-.184-.3-.087s-.387-.207-.291-.152a3.173,3.173,0,0,1-1.571-2.323,10.546,10.546,0,0,1-.023-2.409,15.225,15.225,0,0,1,.306-2.66A13.058,13.058,0,0,1,137,141.636a3.74,3.74,0,0,1,2.92-1.6,3.97,3.97,0,0,1,1.548.3,3.6,3.6,0,0,1,1.4,1.076,1.861,1.861,0,0,0,2.463.646A1.814,1.814,0,0,0,145.975,139.589Z" />
    <path class="b" d="M138.546,157.055v6.159a1.8,1.8,0,1,0,3.6,0v-6.159a1.8,1.8,0,1,0-3.6,0Z" />
    <path class="e"
        d="M28.476,207.964a5.415,5.415,0,0,0-8.811,0,15.793,15.793,0,0,0-1.919,3.454,12.331,12.331,0,0,0-.7,2.354,19.741,19.741,0,0,0-.24,2.329,9.612,9.612,0,0,0,.329,4.082,4.958,4.958,0,0,0,2.349,2.593,13.111,13.111,0,0,0,4.591.832,14.415,14.415,0,0,0,4.591-.832,4.958,4.958,0,0,0,2.349-2.593,9.612,9.612,0,0,0,.329-4.082,19.741,19.741,0,0,0-.24-2.329,12.331,12.331,0,0,0-.7-2.354A15.763,15.763,0,0,0,28.476,207.964Z" />
    <path class="b"
        d="M30.031,207.056a7.465,7.465,0,0,0-4.709-3.037,7.191,7.191,0,0,0-5.3,1.133,12.231,12.231,0,0,0-3.908,5.527,18.169,18.169,0,0,0-1.18,6.806,7.43,7.43,0,0,0,2.468,6.05,9.644,9.644,0,0,0,5.391,1.8c3.367.336,7.392-.354,9.338-3.4,1.409-2.2,1.162-5.111.855-7.589a15.928,15.928,0,0,0-2.959-7.3,1.852,1.852,0,0,0-2.463-.646,1.815,1.815,0,0,0-.646,2.463,13.843,13.843,0,0,1,2.329,4.844,13.938,13.938,0,0,1,.289,2.385,12.859,12.859,0,0,1,.02,2.55,3.426,3.426,0,0,1-.68,1.68,3.19,3.19,0,0,1-.714.653c-.132.089-.273.161-.413.238.357-.2-.058.018-.159.051a10.933,10.933,0,0,1-3.412.534,10.745,10.745,0,0,1-3.415-.46c.041.012-.54-.184-.3-.087s-.387-.207-.291-.152a3.173,3.173,0,0,1-1.571-2.323,10.546,10.546,0,0,1-.023-2.409,15.225,15.225,0,0,1,.306-2.66,13.058,13.058,0,0,1,2.163-4.614,3.74,3.74,0,0,1,2.92-1.6,3.97,3.97,0,0,1,1.548.3,3.6,3.6,0,0,1,1.4,1.076,1.861,1.861,0,0,0,2.463.646A1.814,1.814,0,0,0,30.031,207.056Z" />
    <path class="b" d="M22.6,224.522v6.159a1.8,1.8,0,0,0,3.6,0v-6.159a1.8,1.8,0,0,0-3.6,0Z" />
    <path class="a"
        d="M211.69,284.69c0,11.187.064,30.028.064,37.193a2.527,2.527,0,0,1-1.391,2.057,6.5,6.5,0,0,1-6.691.033,2.6,2.6,0,0,1-1.452-2.063V281.248" />
    <path class="b"
        d="M209.89,284.69c0,11.18.043,22.36.06,33.539q0,1.323,0,2.645a3.087,3.087,0,0,1-.025,1.091c-.271.561-1.289.86-1.83.988-1.151.273-3.32.2-4.034-.98-.2-.326-.018.2-.044-.331-.013-.274,0-.553,0-.827V281.248a1.8,1.8,0,0,0-3.6,0v38.706c0,1.353-.147,2.746.612,3.941a6.649,6.649,0,0,0,4.544,2.659c3.235.518,7.811-.925,7.978-4.767.226-5.213-.017-10.491-.029-15.708q-.025-10.695-.035-21.389a1.8,1.8,0,0,0-3.6,0Z" />
    <path class="a"
        d="M202.684,279.21l4.8-2.772s14.046-7.253,19.006-10.972a4,4,0,0,0,1.277-3.34c0-2.918-.993-5.832-3.753-7.423-1.357-.784-3.012-1.112-3.866-.7-6.62,3.194-24.533,13.73-24.533,13.73" />
    <path class="b"
        d="M203.593,280.765c7.486-4.327,15.406-8.011,22.57-12.869a6.828,6.828,0,0,0,2.991-3.231,10,10,0,0,0,.057-5.606c-.879-3.686-4.2-7.121-8.209-7.034a8.716,8.716,0,0,0-3.654,1.373c-1.114.577-2.22,1.171-3.323,1.77-2.635,1.433-5.25,2.9-7.857,4.386q-5.756,3.273-11.463,6.625a1.8,1.8,0,0,0,1.817,3.108c7.368-4.332,14.759-8.674,22.341-12.623a5.576,5.576,0,0,1,2.481-1.031,5.1,5.1,0,0,1,3.8,2.735,7.577,7.577,0,0,1,.782,4.5c-.185,1.169-1.065,1.58-1.978,2.186-4.481,2.973-9.26,5.523-14,8.053-2.756,1.47-5.463,2.984-8.169,4.548a1.8,1.8,0,0,0,1.817,3.109Z" />
    <path class="a"
        d="M204.856,276.364c1.874.159,5.039.748,6.737,2.05,5.3,4.069,16.061,20.042,22.357,28.88a33.64,33.64,0,0,1,3.237,5.212,2.69,2.69,0,0,1,.312,1.02.485.485,0,0,1-.2.46s-1.072.539-1.427.716c-.381.191-1.151-.113-1.751-.6-11.712-9.52-21.71-21.2-32.336-33.656" />
    <path class="a"
        d="M195.92,267.871c-1.261-1.979-4.343-6.643-4.748-8.558-1.725-8.167.047-21.419.8-29.882a21.619,21.619,0,0,1,1.195-4.8s1.5-.856,1.564-.862c.71-.066,1.418,1.447,1.678,2.5,3.788,15.277,4.355,28.557,4.929,42.675" />
    <path class="a"
        d="M193.666,271.458c-7.161.983-19.186,5.717-22.417,7.548a42.1,42.1,0,0,0-4.606,2.827,1.578,1.578,0,0,0-.308,2.266,2.04,2.04,0,0,0,.79.561,10.948,10.948,0,0,0,4.123.82c7.053.373,18.362-.158,24.552-1.809,1.49-.4,1.8-2.75,1.718-4.979" />
    <path class="b"
        d="M204.856,278.164a10.956,10.956,0,0,1,7.111,2.985,65.154,65.154,0,0,1,5.378,6.213c4.22,5.358,8.107,10.977,12.026,16.555q1.427,2.031,2.861,4.055c.691.972,1.384,1.942,2.02,2.951a8.6,8.6,0,0,1,1.511,3.082v-.958q1-.828.453-.528l-.408.2a3.361,3.361,0,0,1-.683.343q.96,0,.214-.292-.321-.243-.628-.5c-.34-.278-.677-.562-1.013-.845q-2.359-1.986-4.628-4.078c-3.059-2.816-6-5.756-8.863-8.771-5.945-6.262-11.548-12.838-17.152-19.4-1.506-1.765-4.042.792-2.545,2.546,5.6,6.566,11.206,13.142,17.151,19.4,2.862,3.015,5.805,5.955,8.864,8.77q2.351,2.163,4.8,4.22c1.324,1.112,2.993,2.873,4.918,2.353,1.146-.31,2.662-1.1,2.969-2.315.456-1.815-1.154-3.982-2.084-5.416-1.742-2.685-3.677-5.259-5.517-7.878-3.838-5.461-7.681-10.929-11.818-16.17a57.761,57.761,0,0,0-5.752-6.54c-2.562-2.392-5.748-3.263-9.181-3.583-2.306-.216-2.291,3.386,0,3.6Z" />
    <path class="b"
        d="M197.474,266.963c-1.318-2.065-2.682-4.116-3.81-6.293a15.518,15.518,0,0,1-1.319-6.355,117.028,117.028,0,0,1,.787-18.265,66.212,66.212,0,0,1,.871-7.862c.113-.514.243-1.026.383-1.534a4.89,4.89,0,0,0,.408-1.315c.054.344-1.1.9-.587.776a2.609,2.609,0,0,0,.523-.3c.137-.077.274-.155.412-.23.112-.062.225-.124.338-.184q.863-.411-1.45-.1a13.6,13.6,0,0,0,.644,1.445c.22.79.388,1.6.571,2.4q.7,3.031,1.257,6.093.945,5.156,1.521,10.369c.866,7.752,1.2,15.549,1.515,23.339.094,2.308,3.694,2.32,3.6,0-.311-7.642-.636-15.289-1.466-22.895-.43-3.941-.983-7.871-1.7-11.771q-.561-3.058-1.256-6.092a13.738,13.738,0,0,0-1.593-4.746,2.636,2.636,0,0,0-3.538-1.1,4.154,4.154,0,0,0-2.126,1.714c-1.087,2.288-1.247,5.029-1.487,7.5a183.5,183.5,0,0,0-1.325,19.984c.039,3.052.019,6.614,1.217,9.472a52.756,52.756,0,0,0,4.5,7.767c1.243,1.947,4.36.143,3.108-1.817Z" />
    <path class="b"
        d="M193.188,269.723a68.907,68.907,0,0,0-13.99,3.93,67.321,67.321,0,0,0-11.314,5.217c-1.736,1.037-3.873,2.208-3.676,4.559.285,3.39,4.76,3.739,7.349,3.866a107.518,107.518,0,0,0,15.756-.442,60.931,60.931,0,0,0,8.273-1.271c3.294-.792,3.808-3.9,3.732-6.89-.058-2.312-3.658-2.321-3.6,0a9.335,9.335,0,0,1-.3,3.011c-.121.4-.094.239-.367.3-.484.114-.966.232-1.453.334a59.144,59.144,0,0,1-6.284.912,113.739,113.739,0,0,1-13.626.516c-.945-.021-1.892-.05-2.836-.112a10.527,10.527,0,0,1-1.76-.233,4.9,4.9,0,0,0-1.056-.321c-.5.048.1-.268-.315.181,1.02-1.1,3.079-1.975,4.437-2.724a60.862,60.862,0,0,1,8.647-3.673,67.426,67.426,0,0,1,13.341-3.693,1.813,1.813,0,0,0,1.257-2.214,1.844,1.844,0,0,0-2.214-1.257Z" />
    <path class="a"
        d="M196.663,267.417l-1.389.8a3.327,3.327,0,0,0-1.354,3.052,9.867,9.867,0,0,0,4.683,8.181c1.4.806,2.555.927,3.37.456l1.395-.805c.839-.484,1.314-1.6,1.314-3.228A10.1,10.1,0,0,0,200,267.8,3.312,3.312,0,0,0,196.663,267.417Z" />
    <path class="b"
        d="M195.755,265.863a8.561,8.561,0,0,0-2.4,1.646,6.438,6.438,0,0,0-1.131,5.126,11.585,11.585,0,0,0,5.467,8.371,5.291,5.291,0,0,0,5.187.456,9.372,9.372,0,0,0,2.163-1.395,5.966,5.966,0,0,0,1.43-4.513,11.537,11.537,0,0,0-1.329-4.723c-1.6-3.124-5.643-6.959-9.391-4.968a1.8,1.8,0,1,0,1.817,3.108l.133-.071q-.3.123,0,.026c.005-.056.424-.008,0,0-.024,0,.518.024.281,0s.355.091.316.08a4.822,4.822,0,0,1,1.521.834c-.23-.173.068.063.12.108.113.1.223.2.331.3q.327.312.623.655a8.388,8.388,0,0,1,.88,1.272q.228.395.423.806c.051.109.1.219.149.329-.111-.268.026.087.05.153a9.354,9.354,0,0,1,.458,1.758c-.055-.355.019.311.023.421.01.285,0,.569-.02.853-.033.547.095-.24-.04.252-.03.109-.051.219-.083.328,0,0-.189.473-.072.226.095-.2-.158.244-.188.288.031-.045.235-.3.024-.06-.245.275.206-.061.014-.006a1.073,1.073,0,0,0-.2.117c-.329.193-.661.381-.991.572-.083.048-.168.093-.249.144-.2.121-.178.045.03,0-.1.022-.186.052-.284.069.4-.069.034-.007-.065-.034-.307-.084.43.143-.119-.019a3.989,3.989,0,0,1-.713-.241,6.6,6.6,0,0,1-1.389-.909c-.234-.207-.459-.426-.671-.655-.086-.092-.17-.187-.252-.282,0,0-.352-.446-.192-.232a8.109,8.109,0,0,1-1.513-3.192c-.038-.154-.07-.309-.1-.465-.018-.093-.034-.186-.048-.28q.032.251,0-.083a9.581,9.581,0,0,1-.031-.958c0,.059.057-.586.021-.35-.013.087.1-.381.121-.469.015-.068.136-.315,0-.033a3.079,3.079,0,0,1,.233-.4c-.227.33.045-.015.1-.071-.083.078-.266.16-.008.028.112-.058.219-.127.328-.189l1.05-.607C199.578,267.813,197.767,264.7,195.755,265.863Z" />
    <path class="a"
        d="M65.485,261.62V217.389l36.895-21.3,36.9,21.3v44.224l-36.9,21.309C92.016,276.939,77.775,268.715,65.485,261.62Z" />
    <path class="d" d="M102.38,196.087l-36.894,21.3,4.165,2.405,32.729,18.9,36.9-21.3Z" />
    <path class="b"
        d="M134.858,264.582V243.008a1.817,1.817,0,0,0-2.709-1.554q-4.942,2.862-9.888,5.72c-.8.462-1.794.84-2.081,1.8a10.955,10.955,0,0,0-.065,2.953q0,2.886,0,5.772v13.305a1.8,1.8,0,0,0,3.6,0q0-10.776,0-21.551l-.891,1.554q5.571-3.222,11.142-6.445l-2.708-1.555v21.574a1.8,1.8,0,0,0,3.6,0Z" />
    <path class="b"
        d="M113.568,247.574q-5.38,3.1-10.76,6.213a1.811,1.811,0,0,0-.892,1.555v10.144a1.817,1.817,0,0,0,2.709,1.554q5.379-3.108,10.76-6.214a1.808,1.808,0,0,0,.892-1.554V249.128a1.8,1.8,0,0,0-3.6,0v10.144l.891-1.554q-5.38,3.1-10.76,6.214l2.708,1.554V255.342l-.891,1.554q5.381-3.105,10.76-6.214C117.391,249.525,115.58,246.413,113.568,247.574Z" />
    <path class="b"
        d="M68.743,221.347l28.3,16.34a18.74,18.74,0,0,0,4.085,2.172c2.232.6,3.991-.673,5.8-1.716l16.431-9.486,13.4-7.737c2.006-1.158.195-4.27-1.817-3.109L106.96,233.966c-1.28.74-2.564,1.654-3.915,2.261-1.1.493-2.278-.548-3.207-1.085L83.7,225.825,70.56,218.239c-2.01-1.161-3.825,1.949-1.817,3.108Z" />
    <path class="b"
        d="M67.285,260.241v-38.5c0-.939-.41-2.827.318-3.5a5.5,5.5,0,0,1,.966-.558l2.5-1.445,17.319-10c4.443-2.565,8.829-5.293,13.355-7.711.93-.5,1.608.2,2.488.7l7.827,4.519,16.073,9.28,7.629,4.405c.9.519,1.684.735,1.712,1.769.048,1.813,0,3.633,0,5.446v30.224c0,1.685.131,3.43,0,5.111-.091,1.168-2.018,1.749-2.95,2.287l-7.949,4.591L108.46,277.331l-4.554,2.63c-.431.249-1.068.835-1.573.8a6.458,6.458,0,0,1-1.9-1.04l-8.054-4.65-17.406-10.05-4.309-2.488-1.929-1.114c-.469-.271-1.4-.542-1.45-1.176-.172-2.3-3.773-2.315-3.6,0a4.582,4.582,0,0,0,2.468,3.843c1.531.921,3.1,1.788,4.644,2.681l9.095,5.252,17.7,10.221c1.281.739,2.649,1.81,4.132,2.044,1.842.291,3.307-.814,4.824-1.69l9.508-5.491,18.206-10.515,3.75-2.166c1.561-.9,2.849-1.9,3.034-3.832.04-.424.027-.85.027-1.276v-37.8c0-1.918.3-4.124-1.164-5.634a15.222,15.222,0,0,0-3.455-2.192l-4.041-2.333-8.648-4.993-16.75-9.671c-2.181-1.259-4.25-2.769-6.775-1.442-.421.221-.826.477-1.237.714L92.4,199.772l-19.3,11.14-6.35,3.666c-.323.187-.659.362-.974.563a4.449,4.449,0,0,0-2.093,3.644c-.111,1.928,0,3.9,0,5.834v35.622A1.8,1.8,0,0,0,67.285,260.241Z" />
    <path class="a"
        d="M380.167,136.177l-7.719-4.457a1.886,1.886,0,0,0-1.89,0q-17.436,10.068-34.869,20.132a1.876,1.876,0,0,0-.942,1.627v49.585a1.89,1.89,0,0,0,.944,1.639l78.434,45.281a1.873,1.873,0,0,0,1.874,0q17.431-10.061,34.854-20.127a1.892,1.892,0,0,0,.947-1.639V178.626a1.889,1.889,0,0,0-.945-1.639c-3.144-1.815-13.653-7.882-24.159-13.945V145.186a1.919,1.919,0,0,0-.961-1.662c-10.976-6.335-21.224-12.254-28.206-16.284a1.883,1.883,0,0,0-1.886,0l-15.477,8.935" />
    <path class="a"
        d="M415.084,250.541v-51.7l-25.1-14.494v-18.96l-30.126-17.394v18.961l-25.107-14.5v50.612a1.89,1.89,0,0,0,.944,1.639Z" />
    <path class="d"
        d="M412.554,212.586l-77.807-44.922v18.861l80.339,46.382c0-3.964,0-10.862,0-18.86Z" />
    <path class="b" d="M413.284,198.835v47.1a1.8,1.8,0,0,0,3.6,0v-47.1a1.8,1.8,0,0,0-3.6,0Z" />
    <path class="b"
        d="M361.654,166.948v-18.96l-2.709,1.555q15.065,8.694,30.127,17.392l-.892-1.554v18.964a1.811,1.811,0,0,0,.892,1.554q12.553,7.242,25.1,14.49c2.009,1.161,3.824-1.949,1.816-3.108q-12.549-7.248-25.1-14.491l.891,1.555V165.381a1.812,1.812,0,0,0-.891-1.555q-15.065-8.692-30.127-17.392a1.817,1.817,0,0,0-2.708,1.554v18.96a1.8,1.8,0,0,0,3.6,0Z" />
    <path class="b"
        d="M334.133,154.18q12.416,7.147,24.815,14.326c2.01,1.161,3.825-1.949,1.817-3.108q-12.409-7.161-24.815-14.326c-2.012-1.158-3.827,1.951-1.817,3.108Z" />
    <path class="b"
        d="M415.992,212.492l-61.557-35.54-17.711-10.226c-2.011-1.16-3.825,1.95-1.817,3.109l61.67,35.6,17.6,10.161c2.01,1.16,3.825-1.949,1.817-3.109Z" />
    <path class="b"
        d="M333.839,188.078l60.7,35.045,17.191,9.925c2.01,1.161,3.825-1.949,1.817-3.108l-60.7-35.042-17.2-9.929c-2.01-1.16-3.825,1.95-1.817,3.109Z" />
    <path class="b"
        d="M375.024,180.445a1.606,1.606,0,0,0,1.606-1.606v-1.851l1.6.926a1.607,1.607,0,0,0,2.41-1.391v-2.864a1.609,1.609,0,0,0-.8-1.391l-3.209-1.852v-3.7a1.609,1.609,0,0,0-.8-1.391l-2.479-1.431a1.6,1.6,0,0,0-2.409,1.391v1.85l-1.6-.925a1.6,1.6,0,0,0-2.409,1.39v2.862a1.609,1.609,0,0,0,.8,1.39l3.211,1.854v3.709a1.607,1.607,0,0,0,.8,1.389l2.479,1.431A1.6,1.6,0,0,0,375.024,180.445Z" />
    <path class="b"
        d="M391.559,166.665q12.46-7.194,24.922-14.388c2.006-1.158.195-4.27-1.817-3.109q-12.462,7.192-24.922,14.388c-2.006,1.158-.195,4.27,1.817,3.109Z" />
    <path class="b"
        d="M360.947,149.353l20.128-11.622c2.006-1.158.195-4.27-1.817-3.109L359.13,146.245c-2.006,1.158-.195,4.27,1.817,3.108Z" />
    <path class="b"
        d="M424.48,195.256l19.642-11.34a1.8,1.8,0,0,0-1.817-3.109l-19.642,11.341c-2.006,1.158-.195,4.27,1.817,3.108Z" />
    <path class="b"
        d="M381.075,134.623l-5.907-3.412c-1.8-1.036-3.491-2.005-5.569-.993-2.425,1.18-4.732,2.711-7.068,4.06l-7.307,4.22-14.185,8.19-3.439,1.985a15.677,15.677,0,0,0-3.5,2.211,5.068,5.068,0,0,0-1.155,3.819V200.23c0,.919-.036,1.846,0,2.765a3.941,3.941,0,0,0,2.014,3.367c1.946,1.2,3.97,2.292,5.951,3.435L388.1,237.04,405.345,247l5.583,3.224c.6.345,1.193.7,1.8,1.038,2.316,1.278,4.045.36,6.141-.85q14.286-8.247,28.57-16.5c2.655-1.533,6.1-2.707,6.162-6.248.017-.976,0-1.953,0-2.928V182.516c0-1.072.012-2.145,0-3.217,0-.254,0-.5-.027-.752-.2-2.03-1.63-3.011-3.242-3.941l-9.747-5.627-6.777-3.911-3.386-1.954a11.79,11.79,0,0,0-1.714-.99c-.911-.326.242-.433-.211.633.007-.016,0-.038,0-.054a7.026,7.026,0,0,0,0-1.614V149.805c0-1.439.068-2.9,0-4.334-.126-2.684-2.161-3.68-4.24-4.88l-7.079-4.086-12.34-7.125-5.312-3.067a5.94,5.94,0,0,0-2.939-1.051,7.24,7.24,0,0,0-3.574,1.419l-13.754,7.941c-2.006,1.158-.195,4.27,1.817,3.109l13.542-7.819a8.328,8.328,0,0,1,1.693-.977c.46-.109.72.095,1.113.322l2.369,1.368q2.648,1.527,5.293,3.056l12.319,7.112c2.245,1.3,4.541,2.531,6.746,3.894.741.459.746.673.746,1.419v13.57c0,1.344-.368,3.5.593,4.6a11.283,11.283,0,0,0,2.9,1.822l3.6,2.077,6.211,3.585,9.8,5.656c.621.359,1.833.772,2,1.511a2.938,2.938,0,0,1,0,.593v47.771a3.2,3.2,0,0,1,0,.619c-.1.471-.291.518-.728.781-1.131.684-2.292,1.324-3.436,1.985l-13.747,7.939-13.749,7.939-1.719.992a5.1,5.1,0,0,1-1.423.781,1.718,1.718,0,0,1-1.028-.394l-1.891-1.092L399.222,239.3,356.9,214.873l-11.8-6.814-5.816-3.357-1.258-.726c-.309-.179-1.273-.528-1.429-.826a1,1,0,0,1-.053-.168,8.93,8.93,0,0,1,0-2.617v-44.35c0-.676-.059-1.384,0-2.057.07-.781.72-.936,1.365-1.308l3.654-2.109q13.757-7.941,27.511-15.885c.739-.427,1.941-1.5,2.8-1.188a11.99,11.99,0,0,1,1.746,1.008l5.637,3.256c2.01,1.161,3.825-1.949,1.817-3.109Z" />
    <path class="b" d="M369.062,226.994v16.63a1.8,1.8,0,0,0,3.6,0v-16.63a1.8,1.8,0,0,0-3.6,0Z" />
    <path class="b" d="M344.337,212.96v16.629a1.8,1.8,0,0,0,3.6,0V212.96a1.8,1.8,0,0,0-3.6,0Z" />
    <path class="b" d="M373.116,192.3v15.942a1.8,1.8,0,0,0,3.6,0V192.3a1.8,1.8,0,0,0-3.6,0Z" />
    <path class="b" d="M353.031,179.738v18.154a1.8,1.8,0,0,0,3.6,0V179.738a1.8,1.8,0,0,0-3.6,0Z" />
    <path class="b" d="M393.2,203.377v16.195a1.8,1.8,0,0,0,3.6,0V203.377a1.8,1.8,0,0,0-3.6,0Z" />
    <path class="a"
        d="M387.269,212.076l-23.656-13.658a1.785,1.785,0,0,0-1.788,0l-15.243,8.8a.891.891,0,0,0-.445.774v3.353a.894.894,0,0,0,.448.775l23.986,13.85a1.786,1.786,0,0,0,1.787,0l14.913-8.61a.892.892,0,0,0,.446-.774v-3.731A.9.9,0,0,0,387.269,212.076Z" />
    <path class="b"
        d="M388.177,210.522l-13.338-7.7-8.232-4.753c-.64-.369-1.271-.762-1.922-1.11-1.8-.958-3.235-.4-4.881.547l-12.234,7.063c-1.553.9-3.134,1.571-3.233,3.609-.065,1.323-.329,3.5.454,4.65.884,1.3,3.008,2.073,4.33,2.836l4.62,2.667,8.441,4.873,6.03,3.482a17.164,17.164,0,0,0,1.8.991,4.073,4.073,0,0,0,3.856-.5l12.116-6.995c1.685-.972,3.47-1.669,3.537-3.9.049-1.664.437-4.294-.975-5.481-1.763-1.481-4.322,1.053-2.546,2.546-.434-.365.01-.661-.079-.324a1.529,1.529,0,0,0,0,.279c-.015.348,0,.7,0,1.05a6.647,6.647,0,0,0,0,2.055v.094q-.013.476.343-.641a1.476,1.476,0,0,0-.234.135,3.6,3.6,0,0,0-.736.425l-2,1.155-10.126,5.846c-.386.223-1.269.98-1.714.99a7.469,7.469,0,0,1-1.421-.836l-5.217-3.013-15.592-9c-.23-.132-.81-.622-1.079-.623l-.216-.124q.012.792.012.443c.024-.256,0-.526,0-.783a15.188,15.188,0,0,0,0-2.165c-.007-.042.027-.223,0-.265.1.154-.642.588-.223.6.179,0,.585-.339.729-.421l2.067-1.194,11.111-6.415c.794-.458.856-.772,1.571-.359l2.141,1.236,7.474,4.315,13.553,7.825C388.37,214.791,390.185,211.681,388.177,210.522Z" />
    <path class="a"
        d="M159.032,22.463c11.8-6.821,24.995-14.428,38.191-22.049,13.178,7.61,26.357,15.208,38.144,22.021,0,63.814,0,91.767,0,91.777-12.979,7.518-37.964,21.937-38.142,22.039-11.8-6.808-25-14.428-38.191-22.049Z" />
    <path class="d"
        d="M235.362,78.047V94.558c-9.63,5.566-25.9,14.957-33.642,19.435a8.668,8.668,0,0,1-8.685,0c-7.761-4.478-24.087-13.913-33.848-19.554h-.152V77.928h.152c9.761,5.641,26.087,15.076,33.848,19.554a8.668,8.668,0,0,0,8.685,0C209.46,93.015,225.732,83.612,235.362,78.047Z" />
    <path class="d"
        d="M235.362,45.438V61.949c-9.63,5.565-25.9,14.957-33.642,19.435a8.668,8.668,0,0,1-8.685,0c-7.761-4.478-24.087-13.913-33.848-19.555h-.152V45.318h.152c9.761,5.642,26.087,15.077,33.848,19.555a8.673,8.673,0,0,0,8.685,0C209.46,60.406,225.732,51,235.362,45.438Z" />
    <path class="a"
        d="M235.362,22.438v2.51a4.292,4.292,0,0,0-2.108-3.717C233.96,21.633,234.667,22.035,235.362,22.438Z" />
    <path class="a"
        d="M197.22.415c1.446.837,2.9,1.674,4.348,2.511a8.668,8.668,0,0,0-8.641-.021C194.362,2.068,195.786,1.242,197.22.415Z" />
    <path class="a"
        d="M159.307,23.448a4.445,4.445,0,0,0-.272,1.522V22.459c.7-.4,1.391-.8,2.1-1.206A4.3,4.3,0,0,0,159.307,23.448Z" />
    <path class="b"
        d="M234.456,60.4q-14.811,8.554-29.623,17.112c-2.04,1.179-4.257,2.919-6.639,3.2-2.662.32-4.784-1.187-6.97-2.45l-14.448-8.345L160.1,60.28c-2.01-1.161-3.824,1.949-1.817,3.109q15.185,8.775,30.373,17.545c2.384,1.377,4.7,2.994,7.5,3.331,3.106.373,5.637-.841,8.243-2.348l14.51-8.382L236.273,63.5c2.006-1.158.195-4.27-1.817-3.108Z" />
    <path class="b"
        d="M234.456,43.884Q219.645,52.439,204.833,61c-2.04,1.179-4.257,2.919-6.639,3.206-2.662.319-4.784-1.188-6.97-2.451l-14.448-8.345q-8.341-4.816-16.681-9.637c-2.01-1.161-3.824,1.949-1.817,3.109q15.185,8.775,30.373,17.545c2.384,1.377,4.7,2.994,7.5,3.331,3.106.373,5.637-.841,8.243-2.347l14.51-8.383,17.367-10.032c2.006-1.158.195-4.27-1.817-3.108Z" />
    <path class="b"
        d="M234.456,93q-14.811,8.554-29.623,17.112c-2.04,1.179-4.257,2.919-6.639,3.206-2.662.319-4.784-1.188-6.97-2.45l-14.448-8.345L160.1,92.89c-2.01-1.162-3.824,1.948-1.817,3.108q15.185,8.776,30.373,17.545c2.384,1.378,4.7,2.994,7.5,3.331,3.106.373,5.637-.841,8.243-2.347l14.51-8.383,17.367-10.032c2.006-1.158.195-4.27-1.817-3.108Z" />
    <path class="b"
        d="M234.456,76.493q-14.811,8.556-29.623,17.112c-2.04,1.179-4.257,2.919-6.639,3.206-2.662.32-4.784-1.188-6.97-2.45l-14.448-8.345L160.1,76.379c-2.01-1.162-3.824,1.948-1.817,3.108q15.185,8.776,30.373,17.546c2.384,1.377,4.7,2.993,7.5,3.33,3.106.374,5.637-.841,8.243-2.347l14.51-8.383L236.273,79.6a1.8,1.8,0,0,0-1.817-3.109Z" />
    <path class="b"
        d="M167.516,29.469l13.274,7.664,6.546,3.779a45.423,45.423,0,0,0,6.151,3.379,10.478,10.478,0,0,0,6.593.268,22.216,22.216,0,0,0,4.784-2.408l10.429-6.019,13.453-7.767a1.8,1.8,0,0,0-1.817-3.109q-10.839,6.259-21.678,12.515c-2.913,1.681-6.062,4.266-9.626,3.423-2.095-.5-4.022-1.976-5.868-3.042l-6.116-3.531q-7.155-4.13-14.308-8.261c-2.01-1.16-3.825,1.949-1.817,3.109Z" />
    <path class="b"
        d="M160.862,24.352c.823-1.941,3.274-2.76,5.007-3.76q3.145-1.818,6.294-3.634,6.4-3.7,12.813-7.395l6.649-3.838c1.928-1.113,3.692-2.282,6.008-2.155s4.3,1.645,6.259,2.773l6.629,3.826,12.755,7.361,6.255,3.613c1.42.82,3.75,1.579,4.022,3.447a25.431,25.431,0,0,1,.014,3.557v10.9q0,6.329,0,12.659,0,18.266,0,36.531v20.245a14.612,14.612,0,0,1-.112,3.964c-.481,1.564-2.555,2.269-3.859,3.024l-4.862,2.812q-10.023,5.794-20.049,11.582c-2.912,1.681-5.853,4-9.405,2.963-2.132-.621-4.157-2.179-6.07-3.283l-6.337-3.658-12.836-7.412-6.633-3.83c-1.293-.747-2.485-1.316-2.57-2.963-.219-4.227,0-8.524,0-12.755V25.646a5.025,5.025,0,0,1,.212-1.724c.717-2.209-2.758-3.155-3.471-.957a16.721,16.721,0,0,0-.341,5.091V95.48c0,5.313-.052,10.629,0,15.941a6.351,6.351,0,0,0,2.3,5.047,51.6,51.6,0,0,0,6.55,3.885l6.807,3.931,13.084,7.553c4.018,2.32,8.047,5.5,12.95,4.723,3.36-.535,6.512-2.971,9.414-4.647l10.175-5.876q5.419-3.131,10.837-6.264c3.227-1.866,7.478-3.43,7.8-7.7.2-2.7.014-5.48.014-8.184V93.3q0-17.073,0-34.146,0-13,0-26.01c0-2.567.016-5.135,0-7.7a6.457,6.457,0,0,0-2.477-5.412,60.62,60.62,0,0,0-6.145-3.616L222,12.639,208.711,4.967c-4.167-2.4-8.311-5.7-13.4-4.822-2.345.406-4.345,1.8-6.369,2.968l-6.854,3.956L168.7,14.8q-3.024,1.746-6.047,3.493c-1.936,1.118-3.981,2.071-4.9,4.246A1.865,1.865,0,0,0,158.4,25,1.81,1.81,0,0,0,160.862,24.352Z" />
    <path class="b"
        d="M174.172,348.852q2.457,1.412,4.916,2.82c1.516.867,3.193,2.286,5.02,1.626a17.08,17.08,0,0,0,2.54-1.39c.688-.393,1.426-.748,2.082-1.193,1.221-.828,1.166-2.049,1.166-3.345q0-7.791,0-15.583a1.8,1.8,0,0,0-3.6,0q0,4.788,0,9.576,0,2.164,0,4.327,0,.883,0,1.766v.62a2.991,2.991,0,0,0,0,.328c.01.087-.057.261-.008.077l.463-.794a5.692,5.692,0,0,1-1.152.673l-1.386.794-.761.436c-.037.021-.595.316-.371.32.186,0-.271-.258-.269-.257-.25-.168-.529-.3-.791-.451q-3.018-1.725-6.032-3.458c-2.012-1.157-3.827,1.953-1.817,3.108Z" />
    <path class="d"
        d="M139.632,300.4l-.623-.362c-7.763,9.217-17.6,20.852-26.067,30.855,15.591,9.052,36.2,21.063,52.144,30.167,8.5-10.038,18.473-21.842,26.081-30.889C175.6,321.292,154.764,309.181,139.632,300.4Z" />
    <path class="b"
        d="M131.8,320.472q19.41,11.264,38.849,22.474c2.012,1.157,3.827-1.953,1.817-3.108q-19.458-11.18-38.849-22.474a1.8,1.8,0,0,0-1.817,3.108Z" />
    <path class="b"
        d="M158.173,347.2c4.8-5.693,9.627-11.361,14.424-17.055a1.849,1.849,0,0,0,0-2.546,1.816,1.816,0,0,0-2.546,0c-4.8,5.695-9.625,11.362-14.424,17.055a1.85,1.85,0,0,0,0,2.546,1.817,1.817,0,0,0,2.546,0Z" />
    <path class="b"
        d="M145.814,340.058c4.839-5.665,9.615-11.384,14.435-17.065a1.848,1.848,0,0,0,0-2.546,1.815,1.815,0,0,0-2.546,0c-4.819,5.681-9.595,11.4-14.435,17.066a1.846,1.846,0,0,0,0,2.545,1.815,1.815,0,0,0,2.546,0Z" />
    <path class="a"
        d="M235.81,382.167c1.92,1.1,3.809,2.185,5.635,3.225a1.1,1.1,0,0,0,1.1,0c1.323-.758,2.907-1.664,4.192-2.4a.543.543,0,0,0,.275-.476c0-1.935,0-8.382,0-13.611C243.5,373.063,239.67,377.6,235.81,382.167Z" />
    <path class="b"
        d="M133.14,332.721q7.224-8.532,14.435-17.076a1.849,1.849,0,0,0,0-2.546,1.816,1.816,0,0,0-2.546,0q-7.222,8.534-14.435,17.076a1.849,1.849,0,0,0,0,2.546,1.816,1.816,0,0,0,2.546,0Z" />
    <path class="b"
        d="M140.541,298.845l-.624-.362a1.82,1.82,0,0,0-2.181.281q-13.011,15.447-26.067,30.855a1.828,1.828,0,0,0,.364,2.827q20.459,11.878,40.929,23.732,5.6,3.228,11.215,6.436a1.826,1.826,0,0,0,2.182-.282q13.057-15.429,26.081-30.889a1.827,1.827,0,0,0-.365-2.827q-20.457-11.672-40.8-23.541l-10.734-6.23a1.8,1.8,0,0,0-1.817,3.108Q159,313.721,179.3,325.444q5.474,3.15,10.957,6.281l-.364-2.827q-13.011,15.469-26.081,30.889l2.181-.282c-13.745-7.849-27.428-15.806-41.113-23.759q-5.516-3.2-11.031-6.408l.365,2.827q13.048-15.414,26.066-30.855l-2.181.281.624.362A1.8,1.8,0,0,0,140.541,298.845Z" />
    <path class="b"
        d="M233.085,382.679q2.457,1.412,4.915,2.819c1.516.868,3.194,2.286,5.021,1.627a17.129,17.129,0,0,0,2.54-1.39c.687-.394,1.426-.749,2.082-1.194,1.22-.828,1.166-2.048,1.166-3.345q0-7.791,0-15.582a1.8,1.8,0,0,0-3.6,0q0,4.788,0,9.576,0,2.163,0,4.327,0,.882,0,1.766v.62a2.972,2.972,0,0,0,0,.327c.01.087-.057.262-.008.078l.463-.794a5.763,5.763,0,0,1-1.152.672q-.693.4-1.387.794l-.76.436c-.037.021-.595.317-.371.321.185,0-.271-.259-.269-.257-.25-.169-.529-.3-.791-.452q-3.018-1.724-6.032-3.458c-2.012-1.156-3.827,1.953-1.817,3.109Z" />
    <path class="d"
        d="M199.032,334.9l-.624-.362c-7.762,9.217-17.6,20.852-26.066,30.855,15.591,9.052,36.2,21.063,52.144,30.168,8.5-10.039,18.473-21.843,26.081-30.89C235,355.789,214.164,343.678,199.032,334.9Z" />
    <path class="b"
        d="M191.2,354.969q19.408,11.264,38.848,22.474c2.013,1.157,3.828-1.953,1.817-3.108q-19.457-11.179-38.848-22.474a1.8,1.8,0,0,0-1.817,3.108Z" />
    <path class="b"
        d="M217.573,381.7c4.8-5.693,9.627-11.361,14.424-17.055a1.849,1.849,0,0,0,0-2.546,1.817,1.817,0,0,0-2.546,0c-4.8,5.695-9.625,11.362-14.424,17.055a1.85,1.85,0,0,0,0,2.546,1.816,1.816,0,0,0,2.546,0Z" />
    <path class="b"
        d="M205.214,374.555c4.839-5.665,9.615-11.384,14.435-17.065a1.849,1.849,0,0,0,0-2.546,1.816,1.816,0,0,0-2.546,0c-4.819,5.682-9.595,11.4-14.435,17.066a1.846,1.846,0,0,0,0,2.545,1.815,1.815,0,0,0,2.546,0Z" />
    <path class="b"
        d="M192.54,367.218q7.224-8.532,14.435-17.076a1.85,1.85,0,0,0,0-2.546,1.816,1.816,0,0,0-2.546,0q-7.222,8.534-14.435,17.077a1.847,1.847,0,0,0,0,2.545,1.816,1.816,0,0,0,2.546,0Z" />
    <path class="b"
        d="M199.941,333.342l-.624-.362a1.821,1.821,0,0,0-2.181.281q-13.011,15.447-26.067,30.856a1.828,1.828,0,0,0,.364,2.827q20.459,11.877,40.929,23.731,5.6,3.228,11.215,6.436a1.823,1.823,0,0,0,2.181-.282Q238.817,381.4,251.84,365.94a1.827,1.827,0,0,0-.365-2.827q-20.457-11.671-40.8-23.541-5.369-3.114-10.734-6.23a1.8,1.8,0,0,0-1.817,3.108Q218.4,348.218,238.7,359.942q5.474,3.149,10.957,6.28l-.364-2.827q-13.011,15.47-26.081,30.889l2.181-.282c-13.745-7.848-27.428-15.806-41.113-23.758q-5.515-3.206-11.031-6.409l.365,2.827q13.048-15.414,26.066-30.855l-2.181.281.624.362A1.8,1.8,0,0,0,199.941,333.342Z" />
    <path class="a"
        d="M345.785,69.3v-.466c0-1.006.724-2.005,2.152-2.83a10.229,10.229,0,0,1,9.91.036,3.492,3.492,0,0,1,2.069,2.832v.476c0,1-.674,2.012-2.1,2.836A10.627,10.627,0,0,1,348,72.2C346.517,71.348,345.785,70.327,345.785,69.3Z" />
    <path class="a"
        d="M388.852,69.308v-.474c0-.987-.717-1.976-2.182-2.821a10.348,10.348,0,0,0-9.886.035,3.488,3.488,0,0,0-2.063,2.825v.475c0,1,.667,2.007,2.093,2.83a10.589,10.589,0,0,0,9.795.018C388.093,71.339,388.852,70.324,388.852,69.308Z" />
    <path class="b"
        d="M347.585,69.3c0-.2-.014-.42.006-.625,0,.028-.016.3,0,.083.026-.254-.119.2,0-.039a1.922,1.922,0,0,1,.726-.826,7.033,7.033,0,0,1,2.974-1.22,8.358,8.358,0,0,1,5.748.983,5.43,5.43,0,0,1,.465.318,4.025,4.025,0,0,1,.3.286c.257.273.132.155.082.085a2.518,2.518,0,0,1,.186.31c-.014-.027-.1-.223-.014-.033.022.048.1.39.06.164-.034-.2,0,.044,0,.121,0,.12,0,.242,0,.362,0,.053,0,.1,0,.158,0,.274.072-.275,0-.005a2.459,2.459,0,0,1-.071.236c.109-.281-.006-.009-.041.036-.014.017-.183.267-.048.091a2.887,2.887,0,0,1-.357.368c-1.438,1.3-3.627,1.551-5.539,1.41a8.916,8.916,0,0,1-2.816-.737,4.928,4.928,0,0,1-1.386-.994c-.028-.028-.2-.274-.066-.074a3.216,3.216,0,0,1-.177-.3c.181.344-.009-.031,0-.024l-.038-.153q.031.334.014.018a1.8,1.8,0,1,0-3.6,0c.116,3.226,3.5,5.1,6.331,5.634a11.834,11.834,0,0,0,9.119-1.669,5.077,5.077,0,0,0,2.281-3.935,4.886,4.886,0,0,0-1.3-3.541c-2.1-2.345-5.947-3.123-8.946-2.759a10.972,10.972,0,0,0-5.066,1.823,5.188,5.188,0,0,0-2.42,4.447A1.8,1.8,0,0,0,347.585,69.3Z" />
    <path class="b"
        d="M390.652,69.308a4.83,4.83,0,0,0-1.468-3.656,9.685,9.685,0,0,0-4.32-2.292,11.925,11.925,0,0,0-9.413,1.4,5.243,5.243,0,0,0-2.53,4.112,4.833,4.833,0,0,0,1.216,3.453c2,2.323,5.7,3.082,8.628,2.814,3.238-.3,7.744-1.986,7.887-5.832a1.8,1.8,0,1,0-3.6,0c-.013.352,0,.04.013-.022a2.761,2.761,0,0,1-.09.3c.142-.349-.186.237-.107.131a4.364,4.364,0,0,1-1.059.857,7.173,7.173,0,0,1-2.684.918,8.461,8.461,0,0,1-5.621-1,3.173,3.173,0,0,1-.544-.416c-.073-.071-.145-.144-.211-.221-.214-.247.125.15-.063-.088a1.433,1.433,0,0,1-.134-.231c.142.275.017,0,0-.037-.124-.2-.034-.157-.02.006-.007-.078-.006-.158-.006-.236,0-.12,0-.24,0-.361a1.79,1.79,0,0,1,.007-.207c-.02.173-.077.147.035-.033-.152.245.141-.254.186-.315a3.579,3.579,0,0,1,.506-.482,8.145,8.145,0,0,1,5.684-1.237,7.2,7.2,0,0,1,3.261,1.2,1.986,1.986,0,0,1,.882.972c-.1-.246-.029.036-.019.034-.019,0,0-.325-.011-.011-.007.157,0,.316,0,.474A1.8,1.8,0,0,0,390.652,69.308Z" />
    <path class="a"
        d="M388.79,50.5v-.466a3.494,3.494,0,0,0-2.07-2.833,10.229,10.229,0,0,0-9.909-.035c-1.428.825-2.152,1.824-2.152,2.83v.476c0,1.014.731,2.035,2.213,2.891a10.63,10.63,0,0,0,9.818-.017C388.116,52.519,388.79,51.506,388.79,50.5Z" />
    <path class="a"
        d="M345.848,50.5v-.474A3.487,3.487,0,0,1,347.91,47.2a10.344,10.344,0,0,1,9.887-.035c1.464.845,2.182,1.833,2.182,2.821v.474c0,1.016-.759,2.031-2.243,2.888a10.591,10.591,0,0,1-9.8-.018C346.515,52.511,345.848,51.5,345.848,50.5Z" />
    <path class="b"
        d="M390.59,50.5a4.982,4.982,0,0,0-1.664-3.91,9.966,9.966,0,0,0-4.361-2.152,11.68,11.68,0,0,0-9.378,1.646,5.077,5.077,0,0,0-2.328,3.93,4.8,4.8,0,0,0,1.258,3.454c2.006,2.292,5.618,3.077,8.533,2.855,3.3-.25,7.8-1.916,7.94-5.823a1.8,1.8,0,1,0-3.6,0c-.013.355,0,.069.013,0a2.493,2.493,0,0,1-.091.317c.127-.326-.183.255-.113.161a3.9,3.9,0,0,1-1.108.865,8.2,8.2,0,0,1-2.611.84,9.225,9.225,0,0,1-4.413-.454,6.34,6.34,0,0,1-1.206-.615,3.216,3.216,0,0,1-.448-.333c-.056-.051-.484-.551-.354-.359a3.283,3.283,0,0,1-.176-.3c.012.024.109.241.024.054-.023-.053-.093-.38-.053-.14.036.211,0-.021,0-.1,0-.121,0-.242,0-.362,0-.053,0-.105,0-.158.009-.266-.091.255.008,0,.074-.189-.029.009-.041.039a1.968,1.968,0,0,1,.168-.309c.013-.022.193-.253.059-.089a3.086,3.086,0,0,1,.366-.366,7.63,7.63,0,0,1,5.757-1.438,8.282,8.282,0,0,1,3.033,1,4.071,4.071,0,0,1,1.048.905c.031.039.157.316.046.043a2.325,2.325,0,0,1,.095.321c-.074-.3-.006-.091-.011.009-.008.154,0,.312,0,.466A1.8,1.8,0,0,0,390.59,50.5Z" />
    <path class="b"
        d="M347.648,50.5c0-.144,0-.287,0-.431q0-.064,0-.129c.015-.289-.064.248.015-.035s-.117.2.015-.073a2.394,2.394,0,0,1,.14-.246,2.1,2.1,0,0,1,.476-.489,6.456,6.456,0,0,1,2.746-1.18,8.394,8.394,0,0,1,5.845.8,4.7,4.7,0,0,1,1.071.819,3.708,3.708,0,0,1,.25.425c-.142-.35-.014.032-.02.034s0-.44-.01.006c0,.111,0,.223,0,.334s-.084.447.013.1c-.1.357-.071.324-.439.686a7.169,7.169,0,0,1-5.362,1.607,8.366,8.366,0,0,1-3-.668,4.709,4.709,0,0,1-1.453-.982,1,1,0,0,1-.264-.393c.141.272.018,0,0-.038-.164-.28-.013.184-.025-.151a1.8,1.8,0,0,0-3.6,0c.119,3.385,3.729,5.211,6.686,5.659a11.7,11.7,0,0,0,9.078-2.069,4.789,4.789,0,0,0,.574-7.212c-2.223-2.276-5.888-3.033-8.946-2.653a10.752,10.752,0,0,0-5.421,2.11,5.044,5.044,0,0,0-1.971,4.165A1.8,1.8,0,0,0,347.648,50.5Z" />
    <path class="f"
        d="M357.316,55.031l-.249-.214c-.736-.633-1.648-1.22-1.931-1.995a.763.763,0,0,1-.044-.262.912.912,0,0,1,.171-.521,1.562,1.562,0,0,1,.528-.433,2.631,2.631,0,0,1,.75-.3,4.153,4.153,0,0,1,1.356-.073,13.577,13.577,0,0,1,3.456,1.114,14.445,14.445,0,0,0,5.919,1.353,16.893,16.893,0,0,0,6.124-1.336,13.6,13.6,0,0,1,3.456-1.115,4.287,4.287,0,0,1,1.38.088,2.651,2.651,0,0,1,.75.3,1.62,1.62,0,0,1,.528.433,1.013,1.013,0,0,1,.189.568.667.667,0,0,1-.038.229c-.283.775-1.195,1.363-1.931,2-1.274,1.094-2.191,2.088-2.314,3.535.011,1.472,1.069,2.323,2.343,3.418.736.632,1.648,1.22,1.931,2a.757.757,0,0,1,.044.261v3.681a.912.912,0,0,1-.171.521,1.562,1.562,0,0,1-.528.433,2.6,2.6,0,0,1-.75.3,4.1,4.1,0,0,1-1.356.073,13.564,13.564,0,0,1-3.456-1.114,14.445,14.445,0,0,0-5.919-1.353,16.909,16.909,0,0,0-6.124,1.336,13.6,13.6,0,0,1-3.456,1.115,4.313,4.313,0,0,1-1.38-.087,2.682,2.682,0,0,1-.75-.3,1.607,1.607,0,0,1-.528-.433,1.011,1.011,0,0,1-.19-.567V64a.669.669,0,0,1,.039-.23c.283-.775,1.195-1.362,1.931-1.995,1.274-1.1,2.191-2.089,2.314-3.536C359.4,56.859,358.476,56.027,357.316,55.031Z" />
    <path class="b"
        d="M358.589,53.758c-.472-.405-1.656-1.052-1.762-1.676v.957q-.335.27.192,0a2.128,2.128,0,0,1,.552-.033,5.336,5.336,0,0,1,1.48.352c.839.285,1.649.659,2.477.976a15.736,15.736,0,0,0,5.524,1.159A17.5,17.5,0,0,0,373,54.423c.911-.324,1.788-.739,2.7-1.051a5.186,5.186,0,0,1,1.484-.349,2.071,2.071,0,0,1,.572.044q.523.244.211.048v-.957c-.11.655-1.629,1.512-2.112,1.972a7.331,7.331,0,0,0-1.937,2.78c-.867,2.424.485,4.376,2.258,5.908.384.333.788.643,1.173.974a3.768,3.768,0,0,0,.53.486c.247.069.122.323.058-.157a12,12,0,0,1,0,1.552,14.35,14.35,0,0,0,0,1.784,1.031,1.031,0,0,0,0,.216v.059q.5-.771.032-.518a4.567,4.567,0,0,0-.538.092,3.342,3.342,0,0,1-1.071-.17c-2.033-.554-3.871-1.648-5.961-2.043a15.954,15.954,0,0,0-7.334.4,29.98,29.98,0,0,0-3.015,1.095,11.392,11.392,0,0,1-1.7.589,11.058,11.058,0,0,1-1.595-.052c.051-.053.083.9.174.258a6.226,6.226,0,0,0,0-.842v-2.01c0-.251.114-.625-.036-.325-.25.5.369-.241.343-.216.221-.213.471-.4.708-.592a10.083,10.083,0,0,0,2.569-2.788c1.487-2.7.192-5.021-1.921-6.849-1.744-1.509-4.3,1.027-2.546,2.546.469.405,1.416,1.033,1.539,1.708.127.7-.568,1.371-1.016,1.809-1.269,1.244-3.112,2.2-3.24,4.174-.109,1.7-.416,4.487.939,5.75,3.059,2.85,7.419-.287,10.662-1.015a11.324,11.324,0,0,1,5.515.07c1.7.471,3.262,1.345,4.958,1.808,1.8.491,4.105.462,5.436-1.062.8-.914.7-2.038.7-3.16a14.235,14.235,0,0,0-.064-2.793c-.362-1.76-2.122-2.7-3.34-3.84-.462-.432-1-.886-.852-1.566.173-.782,1-1.42,1.569-1.917,1.312-1.146,3.1-2.38,2.539-4.4-.545-1.957-3-2.6-4.773-2.392-1.921.227-3.622,1.205-5.451,1.768a12.152,12.152,0,0,1-6.118.433c-1.889-.414-3.579-1.371-5.42-1.919-1.983-.59-4.821-.553-5.979,1.5-1.228,2.176.949,3.8,2.4,5.046C357.793,57.805,360.351,55.27,358.589,53.758Z" />
    <path class="b"
        d="M367,58.48l0-.023-.064.478a.153.153,0,0,1,.014-.046l-.182.43a.274.274,0,0,1,.029-.046l-.282.364a.623.623,0,0,1,.069-.067l-.364.281a1.114,1.114,0,0,1,.232-.128l-.43.181a3.194,3.194,0,0,1,.727-.185l-.479.064a4.6,4.6,0,0,1,1.161,0l-.479-.064a3.187,3.187,0,0,1,.776.194l-.43-.181a1.094,1.094,0,0,1,.2.113l-.364-.282a.649.649,0,0,1,.075.073l-.281-.364a.233.233,0,0,1,.031.05l-.181-.43a.221.221,0,0,1,.015.05l-.064-.478a.129.129,0,0,1,0,.048l.065-.478a.188.188,0,0,1-.014.046l.182-.43a.213.213,0,0,1-.027.046l.281-.364a.528.528,0,0,1-.066.068l.365-.282a1.1,1.1,0,0,1-.226.129l.43-.181a2.975,2.975,0,0,1-.687.175l.478-.064a4.843,4.843,0,0,1-1.25,0l.479.064a3.046,3.046,0,0,1-.709-.178l.43.181a1.154,1.154,0,0,1-.238-.132l.364.282a.579.579,0,0,1-.07-.07l.281.365a.225.225,0,0,1-.028-.047l.181.43a.159.159,0,0,1-.014-.047l.064.479,0-.024a1.917,1.917,0,0,0-.527-1.273,1.8,1.8,0,0,0-2.546,0,1.776,1.776,0,0,0-.527,1.273A2.116,2.116,0,0,0,364,59.893a2.319,2.319,0,0,0,.653.46,4.613,4.613,0,0,0,.788.3,7.728,7.728,0,0,0,.854.132,4.889,4.889,0,0,0,.913.026,5.48,5.48,0,0,0,1.316-.213,2.408,2.408,0,0,0,1.738-1.559,2.166,2.166,0,0,0,0-1.1,2.143,2.143,0,0,0-.985-1.234,3.465,3.465,0,0,0-1.247-.438,6.619,6.619,0,0,0-1.418-.109,5.242,5.242,0,0,0-1.484.262,2.872,2.872,0,0,0-1.09.622,2.587,2.587,0,0,0-.359.455,2,2,0,0,0-.268.99,1.8,1.8,0,0,0,3.073,1.273l.281-.365A1.786,1.786,0,0,0,367,58.48Z" />
    <path class="b" d="M365.426,68.332v12.2a1.8,1.8,0,0,0,3.6,0v-12.2a1.8,1.8,0,0,0-3.6,0Z" />
    <path class="c"
        d="M148.541,131.524l6.833,3.945,18.643,10.763,27.571,15.919,33.783,19.5,37.354,21.566,38.044,21.965,35.844,20.694,31,17.9,23.465,13.547q6.517,3.764,13.036,7.526l1.272.735c3.35,1.934,6.375-3.249,3.028-5.181l-10.1-5.831-21.2-12.24L357.7,245.353l-34.925-20.164-37.794-21.82-37.775-21.81-34.872-20.133-29.33-16.933-21.077-12.169c-3.312-1.913-6.6-3.871-9.94-5.739-.14-.079-.279-.161-.419-.242-3.35-1.934-6.375,3.249-3.028,5.181Z" />
    <path class="a"
        d="M211.943,192.852,179.8,211.414l-4.393,2.534a8.421,8.421,0,0,1-8.33.053c-4.468-2.506-10.484-5.981-13.7-7.977a4.644,4.644,0,0,1-2.2-3.69,141.415,141.415,0,0,1,.292-15.713c.61-6.138,3.022-10.434,7.483-13.01l32.511-18.769a11.026,11.026,0,0,1,10.755,0c3.942,2.108,10.307,5.7,15.106,8.739a6.713,6.713,0,0,1,3.355,4.856,151.873,151.873,0,0,1,.33,17.485,3.36,3.36,0,0,1-1.675,2.662Z" />
    <path class="b"
        d="M211.034,191.3l-23.49,13.563q-4.321,2.5-8.644,4.991l-5.374,3.1a4.264,4.264,0,0,1-4.652-.006q-2.925-1.63-5.828-3.3-3.033-1.743-6.041-3.526c-1.552-.924-3.782-1.761-4.029-3.784a46.193,46.193,0,0,1-.1-5.777c.014-2.177.064-4.355.164-6.531.18-3.884.574-7.838,2.786-11.161,1.58-2.372,3.977-3.667,6.37-5.049l19.332-11.162,10.135-5.851a9.568,9.568,0,0,1,6.722-1.418c2.278.427,4.271,1.729,6.27,2.839q3.253,1.806,6.462,3.692,1.635.962,3.255,1.951a17.133,17.133,0,0,1,3.118,2.11c1.242,1.208,1.429,2.636,1.536,4.268.119,1.82.184,3.644.233,5.467.054,2.025.083,4.052.071,6.078,0,.806-.016,1.613-.041,2.419a5.219,5.219,0,0,1-.252,2.188c-.389.726-1.517,1.153-2.194,1.544l-3.767,2.176-2.044,1.181c-2.006,1.158-.195,4.27,1.817,3.108l6.236-3.6a7.332,7.332,0,0,0,3.061-2.591c.928-1.656.755-3.828.778-5.671.049-4.055-.033-8.127-.291-12.175a10.639,10.639,0,0,0-1.407-5.5c-1.437-2.139-3.774-3.351-5.925-4.651q-3.519-2.128-7.108-4.14a55.215,55.215,0,0,0-6.652-3.513,13.029,13.029,0,0,0-7.852-.551A24.326,24.326,0,0,0,187.583,155L165.2,167.928q-3.45,1.992-6.9,3.984a16.633,16.633,0,0,0-7.607,9.465c-1.336,4.135-1.3,8.7-1.381,13-.043,2.283-.054,4.57.023,6.852.084,2.474.721,4.633,2.825,6.137,1.789,1.279,3.8,2.32,5.694,3.428q3.195,1.867,6.415,3.689c2.174,1.231,4.4,2.85,7,2.826a9.05,9.05,0,0,0,4.5-1.489l8.7-5.02,27.732-16.013.66-.381C214.857,193.248,213.046,190.136,211.034,191.3Z" />
    <path class="d"
        d="M177.009,191.653a5.52,5.52,0,0,0-2.3,3.743,60.416,60.416,0,0,0-.42,9.227.521.521,0,0,0,.335.562,1.88,1.88,0,0,0,.714.037l.2-.025.085-.05,44.168-25.44,1.327-.763c-.047-4.122-.228-8.571-.445-10.507a6.1,6.1,0,0,0-.477-1.712l-.264.153-42.911,24.775" />
    <path class="b"
        d="M159.785,183.933l8.1,4.676,1.16.669a1.8,1.8,0,0,0,1.817-3.109l-8.1-4.675-1.159-.67a1.8,1.8,0,0,0-1.817,3.109Z" />
    <path class="b"
        d="M177.934,193.207l14.444-8.34,23.16-13.371,5.308-3.064c2.006-1.158.195-4.27-1.817-3.109l-14.445,8.34-23.159,13.371-5.308,3.064c-2.006,1.158-.195,4.271,1.817,3.109Z" />
    <path class="b"
        d="M175.342,203.422c-.138.015-.292-.009-.425.016,1.191-.231,1.183,1.913,1.173.892l0-.4q-.006-.9,0-1.806c.01-1.245.04-2.492.113-3.735.032-.537.071-1.074.126-1.609.016-.153.033-.307.051-.46.036-.306-.039.247.005-.042.037-.237.075-.474.128-.709a4.375,4.375,0,0,1,.556-1.437,2.919,2.919,0,0,1,.85-.924c1.967-1.217.161-4.332-1.817-3.109-3.016,1.866-3.359,5.508-3.522,8.716-.082,1.6-.1,3.205-.093,4.807a3.8,3.8,0,0,0,.522,2.515,2.582,2.582,0,0,0,2.335.886,1.853,1.853,0,0,0,1.8-1.8,1.812,1.812,0,0,0-1.8-1.8Z" />
    <path class="b"
        d="M218.888,178.153l-14.947,8.609-23.722,13.664-5.5,3.167c-2.007,1.156-.2,4.268,1.817,3.109l14.947-8.609,23.721-13.664,5.5-3.167c2.007-1.156.2-4.268-1.817-3.109Z" />
    <path class="b"
        d="M177.02,216.185a2.82,2.82,0,0,1-1.174-2.6,8.87,8.87,0,0,1,4.013-6.951,2.446,2.446,0,0,1,4.013,2.317,8.869,8.869,0,0,1-4.013,6.951A2.82,2.82,0,0,1,177.02,216.185Z" />
    <path class="b"
        d="M212.224,196.567a2.818,2.818,0,0,1-1.174-2.6,8.869,8.869,0,0,1,4.013-6.951,2.446,2.446,0,0,1,4.013,2.317,8.872,8.872,0,0,1-4.013,6.951A2.82,2.82,0,0,1,212.224,196.567Z" />
    <path class="b"
        d="M177.928,214.631c-.27-.167.1.069.095.093a1.987,1.987,0,0,0-.2-.194c-.173-.1.148.285.07.089a.854.854,0,0,0-.122-.208c-.139-.166.1.4.007.019-.022-.088-.054-.173-.076-.262s-.039-.186-.058-.28c.067.324.01.03,0-.136-.006-.186,0-.373.011-.559a1.763,1.763,0,0,0,.024-.267c.06.072-.058.339-.006.074a8.992,8.992,0,0,1,.319-1.227c.031-.091.067-.181.1-.272.15-.441-.111.219.014-.042.084-.177.164-.356.255-.53a12.878,12.878,0,0,1,.731-1.194c.042-.063.208-.27-.018.014q.09-.114.183-.225c.123-.146.251-.289.384-.426s.265-.266.4-.392c.086-.077.177-.148.263-.225.163-.145-.267.18.013-.006.173-.115.344-.229.527-.33.035-.019.377-.194.193-.109s.139-.048.181-.062c.127-.039.254-.068.382-.1-.077.018-.36,0-.042.014.033,0,.278,0,.276.006l-.215-.028a2.126,2.126,0,0,1,.249.067c.02.053-.369-.29-.085-.025.208.193-.087-.172-.095-.093,0,0,.142.134.163.152.26.225-.1-.083-.064-.1a1.634,1.634,0,0,1,.126.2c.221.314-.066-.261,0-.026.056.2.117.4.156.6-.083-.438,0,.259,0,.366a1.93,1.93,0,0,1-.037.595c.016-.036.076-.42.007-.074-.019.091-.034.182-.053.272-.049.23-.109.458-.178.683-.056.184-.122.364-.187.545-.113.314-.01.035.017-.025-.04.089-.08.178-.122.267a9.868,9.868,0,0,1-.646,1.159c-.066.1-.135.2-.206.3-.1.142-.179.241-.024.046-.15.189-.305.372-.47.548s-.327.338-.5.5c-.069.061-.14.12-.209.181-.339.3.3-.194-.066.049-.2.133-.4.255-.61.377-.039.023-.321.155-.056.042-.151.064-.313.094-.467.148-.1.037-.327.017.034.01-.115,0-.236,0-.351.006-.258.019.415.106.021-.006-.35-.1.306.172-.038-.011a1.8,1.8,0,0,0-1.817,3.108c2.583,1.38,5.444-.353,7.076-2.4a10.171,10.171,0,0,0,2.475-6.709,4.7,4.7,0,0,0-1.509-3.425,4.147,4.147,0,0,0-4.2-.585,9.6,9.6,0,0,0-5.04,5.225c-1.09,2.533-1.533,6.212,1.2,7.9a1.8,1.8,0,1,0,1.817-3.108Z" />
    <path class="b" d="M188.816,186.02v7.727a1.8,1.8,0,1,0,3.6,0V186.02a1.8,1.8,0,1,0-3.6,0Z" />
    <path class="b" d="M204.951,176.509v7.727a1.8,1.8,0,1,0,3.6,0v-7.727a1.8,1.8,0,1,0-3.6,0Z" />
    <path class="b"
        d="M213.133,195.013c-.27-.167.1.069.094.093a2.079,2.079,0,0,0-.2-.194c-.174-.1.147.285.069.09a.841.841,0,0,0-.122-.209c-.139-.166.1.4.007.019-.022-.088-.054-.173-.076-.261s-.038-.187-.058-.281c.067.324.011.03,0-.136a5.489,5.489,0,0,1,.012-.559,2.054,2.054,0,0,0,.024-.266c.059.071-.059.339-.007.074a9.267,9.267,0,0,1,.319-1.228c.031-.091.068-.18.1-.272.149-.441-.111.219.013-.042.084-.177.164-.355.255-.53a13.22,13.22,0,0,1,.731-1.193c.042-.064.208-.271-.018.014.06-.076.121-.151.184-.225q.184-.221.383-.427c.131-.135.265-.266.405-.392.085-.077.176-.148.262-.224.164-.146-.266.18.013-.006.173-.116.345-.23.527-.331.035-.019.378-.193.193-.108s.14-.049.182-.062c.126-.04.253-.069.382-.1-.077.018-.361,0-.042.014.032,0,.277,0,.276.006l-.216-.027a1.9,1.9,0,0,1,.249.067c.021.052-.369-.291-.084-.026.207.194-.088-.171-.095-.093,0,0,.141.134.163.152.259.225-.1-.083-.065-.1a1.634,1.634,0,0,1,.126.2c.222.314-.065-.261,0-.026.055.2.116.4.156.6-.083-.437,0,.26,0,.366a1.908,1.908,0,0,1-.037.6c.016-.036.077-.421.007-.074-.018.09-.033.181-.053.271-.048.231-.108.458-.177.683-.057.184-.123.364-.187.545-.113.314-.011.035.016-.025-.04.089-.079.179-.121.267a9.868,9.868,0,0,1-.646,1.159c-.067.1-.136.2-.207.3-.1.141-.178.24-.024.046-.15.188-.305.372-.469.548s-.328.338-.5.5c-.068.062-.139.12-.209.181-.338.3.3-.194-.066.05-.2.132-.4.255-.61.376-.039.023-.321.155-.056.042-.151.065-.313.094-.467.148-.1.037-.326.018.034.01-.115,0-.236,0-.35.007-.259.018.414.1.02-.006-.35-.1.306.171-.037-.012a1.8,1.8,0,1,0-1.817,3.108c2.582,1.38,5.443-.353,7.076-2.4a10.168,10.168,0,0,0,2.474-6.708,4.706,4.706,0,0,0-1.508-3.425,4.147,4.147,0,0,0-4.2-.585,9.593,9.593,0,0,0-5.04,5.225c-1.09,2.532-1.532,6.211,1.2,7.9a1.817,1.817,0,0,0,2.462-.645A1.837,1.837,0,0,0,213.133,195.013Z" />
    <path class="b" d="M217.276,169.069v8.474a1.8,1.8,0,0,0,3.6,0v-8.474a1.8,1.8,0,0,0-3.6,0Z" />
    <path class="b"
        d="M214.793,187.7a14.386,14.386,0,0,1,2.619-1.574l-.43.182a5.732,5.732,0,0,1,1.389-.391l-.479.065a4.877,4.877,0,0,1,.683-.036l-1.736-1.322.418,1.382a1.8,1.8,0,1,0,3.471-.957l-.417-1.382a1.848,1.848,0,0,0-1.736-1.321c-2.109-.039-3.939,1.068-5.6,2.245a1.944,1.944,0,0,0-.827,1.076,1.84,1.84,0,0,0,.182,1.387,1.808,1.808,0,0,0,1.075.827,1.773,1.773,0,0,0,1.387-.181Z" />
    <path class="f"
        d="M305.98,265.847l-9.336-5.392a1,1,0,0,0-1.23.18q-8.125,8.592-16,17.4a1,1,0,0,1-1.242.2l-5.329-3.077a1,1,0,0,0-1.228.176q-12.66,13.245-24.682,27.083a1,1,0,0,0,.255,1.527l38.455,22.2a1,1,0,0,0,1.249-.211q11.542-13.3,23.63-26.112a1.006,1.006,0,0,1,1.734.692c0,3.381,0,6.613.005,8.909a1.256,1.256,0,0,0,2.2.825q11.444-13.077,23.415-25.678s0-.128,0-.3C327.28,278.148,316.617,271.99,305.98,265.847Z" />
    <path class="b"
        d="M287.914,327.487q5.8-6.678,11.731-13.239,3.006-3.324,6.048-6.617,1.4-1.512,2.8-3.019.744-.8,1.49-1.593l.663-.707c.137-.146.968-.867,1-1.059l-1.188-.522v.482a6.215,6.215,0,0,0,0,.955q0,1.155,0,2.311,0,1.859,0,3.716a6.343,6.343,0,0,0,.38,3.142,2.9,2.9,0,0,0,2.854,1.4c1.247-.164,1.919-1.079,2.7-1.968q1.532-1.748,3.074-3.485,3-3.385,6.04-6.739,6.734-7.431,13.637-14.707c1.594-1.681-.948-4.231-2.546-2.546q-6.142,6.48-12.156,13.078-3.047,3.345-6.058,6.723-1.383,1.553-2.76,3.11-.728.825-1.454,1.653l-.645.735-.484.552q-.7.624,1.019.752c.148-.228,0-1.066,0-1.339v-1.929l0-3.991c0-1.187.182-2.52-.527-3.549a2.9,2.9,0,0,0-3.057-1.162c-1.169.3-1.914,1.351-2.7,2.191q-1.575,1.678-3.142,3.366-3.05,3.285-6.065,6.6-6.684,7.351-13.2,14.854c-1.512,1.742,1.023,4.3,2.546,2.546Z" />
    <path class="b"
        d="M277.971,280.2l27.04,15.613c2.011,1.161,3.825-1.949,1.817-3.108l-27.04-15.613c-2.01-1.161-3.825,1.949-1.817,3.108Z" />
    <path class="b"
        d="M286.471,362.311l-33.653-19.43-1.929-1.114a8.885,8.885,0,0,1-2.142-1.237.853.853,0,0,1-.194-.436,7.174,7.174,0,0,1,0-1.351V306.327a9.585,9.585,0,0,1,.061-3.1,9.209,9.209,0,0,1,1.715-1.978q.885-1.011,1.774-2.018,1.778-2.016,3.57-4.018,3.584-4,7.223-7.96t7.334-7.857c.56-.591,1.115-1.188,1.683-1.771.61-.627.659-.551,1.423-.11l4.63,2.673a1.826,1.826,0,0,0,2.181-.281q3.912-4.391,7.888-8.722,1.988-2.165,3.992-4.316.836-.9,1.673-1.791l1.006-1.073c.357-.38.879-1.2,1.344-1.427.623-.3,1.193.3,1.768.63l2.137,1.234,5.561,3.211,9.846,5.687,10.274,5.933,4.918,2.839,2.35,1.356,1.281.74a6.626,6.626,0,0,1,1.707.985,2.5,2.5,0,0,1,.19,1.485v2.629q0,3.3,0,6.6v36.741c0,.633.14.994-.311,1.388a5.1,5.1,0,0,1-.805.466l-22.3,12.876L297.917,355.9l-6.431,3.713-2.616,1.51c-.446.258-1.9,1.422-2.4,1.19-2.087-.974-3.917,2.128-1.817,3.108,2.57,1.2,4.533-.323,6.7-1.575l5.618-3.244,13.646-7.879L335.8,338.184c2.01-1.161,3.82-2.15,3.885-4.783.1-4.191,0-8.4,0-12.59v-22.1c0-4.345.16-8.725,0-13.069a4.248,4.248,0,0,0-2.186-3.675c-1.753-1.068-3.561-2.055-5.339-3.081l-10.91-6.3-21.825-12.6c-1.582-.914-3.2-1.632-4.967-.667a9.366,9.366,0,0,0-2.127,1.971q-1.09,1.161-2.178,2.325-4.263,4.567-8.457,9.2-2.055,2.271-4.091,4.558l2.181-.281-4.027-2.325c-1.376-.794-2.7-1.545-4.339-1.066-1.445.423-2.4,1.76-3.4,2.807q-1.848,1.95-3.684,3.913-6.838,7.318-13.485,14.812-1.62,1.828-3.229,3.666c-1.092,1.247-2.445,2.423-2.635,4.158a11.15,11.15,0,0,0-.035,1.24v33.3c0,1.55-.233,3.368.621,4.74.839,1.347,2.61,2.029,3.927,2.79l5.145,2.971,9.869,5.7,20.139,11.627C286.664,366.58,288.479,363.47,286.471,362.311Z" />
    <path class="b" d="M284.841,325.8v37.722a1.8,1.8,0,0,0,3.6,0V325.8a1.8,1.8,0,0,0-3.6,0Z" />
    <path class="b"
        d="M247.069,305.952l37.072,21.4c2.01,1.16,3.825-1.95,1.817-3.109l-37.072-21.4c-2.01-1.161-3.825,1.949-1.817,3.108Z" />
    <path class="b"
        d="M295.678,360.091q0-6.875,0-13.749,0-1.316,0-2.632a18.388,18.388,0,0,0,0-2.95c-.167-.977-.061-.3-.088-.272a1.439,1.439,0,0,1,.333-.193,31.77,31.77,0,0,0,3-1.732l9.781-5.647,3.83-2.211a7.91,7.91,0,0,0,.951-.549c.037-.03.217-.088.231-.134,0-.007.029-.01.03-.017a.3.3,0,0,1-.355-.028q-.207-.576-.1.269a49.346,49.346,0,0,0,0,6.2q0,2.839,0,5.68v5.2a1.8,1.8,0,0,0,3.6,0q0-8.293,0-16.589c0-1.73-.348-3.446-2.193-4.088a3.5,3.5,0,0,0-2.865.3c-.919.484-1.806,1.043-2.705,1.562l-10.651,6.149-3.959,2.286c-.254.147-.519.282-.764.441a3.816,3.816,0,0,0-1.672,3.615q0,9.543,0,19.084a1.8,1.8,0,0,0,3.6,0Z" />
    <path class="b"
        d="M322.548,324.508l4.833-2.791c.8-.464,1.63-.9,2.417-1.4.023-.015.422-.208.146-.1s.09.062-.043.011c-.086-.033-.221-.109-.3-.135l-.064-.111c.106.181.116.193.028.038-.031-.288-.019.075-.021.125-.009.282,0,.565,0,.846v5.13a6.783,6.783,0,0,0,0,1.243c-.1-.043.158-.265.155-.272.009.021-1.13.654-1.206.7l-2.416,1.4-2.416,1.4-1.087.628c-.064.038-.577.288-.267.171.166-.006.184-.01.053-.01s-.112,0,.067,0c.073.058.182.131.256.19q.09.157-.055-.089a.362.362,0,0,1,.08.223c-.015-.389,0-.781,0-1.17q0-1.319,0-2.637,0-1.182,0-2.365c0-.339.006-.679,0-1.018-.008-.426.055-.141-.155,0a1.842,1.842,0,0,0,.646-2.463,1.817,1.817,0,0,0-2.462-.646,3.444,3.444,0,0,0-1.629,2.829c-.035.767,0,1.544,0,2.311q0,1.392,0,2.785a14.064,14.064,0,0,0,.094,3.126,3.285,3.285,0,0,0,1.685,2.156,3.449,3.449,0,0,0,3.386-.214c2.028-1.136,4.027-2.327,6.039-3.491a5.82,5.82,0,0,0,2.391-1.884,3.613,3.613,0,0,0,.443-1.811c.013-.839,0-1.678,0-2.517v-3.253a11.314,11.314,0,0,0-.075-2.193,3.277,3.277,0,0,0-2.132-2.426,3.938,3.938,0,0,0-3.44.675l-6.765,3.907C318.726,322.557,320.536,325.669,322.548,324.508Z" />
    <path class="a"
        d="M289.4,63.066c-12.376,7.147-24.752,14.282-35.975,20.768a4.351,4.351,0,0,0-2.17,3.771c0,39.1,0,52.688,0,57.406a4.332,4.332,0,0,0,2.163,3.757c10.322,5.975,26,15.024,32.725,18.908a6.5,6.5,0,0,0,6.509,0c6.729-3.884,22.4-12.933,32.726-18.908a4.333,4.333,0,0,0,2.162-3.757c0-4.718,0-18.3,0-57.406a4.349,4.349,0,0,0-2.17-3.771c-11.223-6.486-23.6-13.621-35.974-20.768" />
    <path class="b"
        d="M288.489,61.512q-10.05,5.8-20.1,11.6l-9.5,5.481-4.407,2.546a11.123,11.123,0,0,0-3.92,2.943,6.79,6.79,0,0,0-1.111,4.018c-.018,1.919,0,3.84,0,5.76v26.358q0,9.582,0,19.165v4.721a7.293,7.293,0,0,0,1.108,4.414,9.048,9.048,0,0,0,3.1,2.471q1.843,1.068,3.689,2.134c9.225,5.336,18.405,10.767,27.691,16a8.627,8.627,0,0,0,8.8-.055c1.87-1.061,3.724-2.15,5.586-3.225q7.357-4.248,14.715-8.5,3.807-2.2,7.613-4.4c2.227-1.288,5.273-2.44,6.669-4.706,1.15-1.865.913-4.13.913-6.229q0-7.893,0-15.786,0-16.412,0-32.823c0-1.765.017-3.531,0-5.3a6.706,6.706,0,0,0-1.393-4.382,12.185,12.185,0,0,0-3.638-2.579l-4.812-2.78q-9.642-5.566-19.286-11.131l-9.907-5.719c-2.01-1.161-3.825,1.949-1.817,3.108q9.63,5.562,19.262,11.118L316.869,81l4.234,2.445,2.182,1.261a6.372,6.372,0,0,1,1.9,1.289c.883,1.111.557,2.763.557,4.07v30.155q0,9.314,0,18.626v4.837a6.421,6.421,0,0,1-.16,2.23c-.434,1.126-1.588,1.576-2.564,2.141l-3.393,1.963q-13.548,7.835-27.1,15.656a6.127,6.127,0,0,1-3.122,1.072,6.557,6.557,0,0,1-3.328-1.19l-5.448-3.146q-7.163-4.136-14.324-8.273l-7.444-4.3-3.075-1.779c-1.084-.628-2.356-1.124-2.661-2.475a19.489,19.489,0,0,1-.063-4.043V125.97q0-15.478,0-30.956V90.066c0-1.419-.358-3.232.8-4.322a19.309,19.309,0,0,1,3.642-2.182l4.841-2.8q9.246-5.339,18.494-10.674,4.739-2.734,9.478-5.472c2.006-1.158.195-4.27-1.817-3.108Z" />
    <path class="a"
        d="M262.212,38.632c0,27.42,0,40.112,0,44.144a4.34,4.34,0,0,0,2.169,3.759c6.424,3.718,15.394,8.9,20.661,11.938a8.679,8.679,0,0,0,8.686,0c5.268-3.041,14.237-8.22,20.661-11.938a4.34,4.34,0,0,0,2.169-3.759c0-4.032,0-16.724,0-44.144" />
    <path class="a"
        d="M310.087,31.766c1.392.815,2.729,1.587,3.979,2.3a5.2,5.2,0,0,1,0,9.011c-6,3.467-14.142,8.163-19.37,11.185a10.4,10.4,0,0,1-10.4,0c-5.228-3.022-13.369-7.718-19.369-11.185a5.2,5.2,0,0,1,0-9.011l3.978-2.3" />
    <path class="b"
        d="M309.179,33.32c1.4.819,2.93,1.538,4.252,2.474a3.407,3.407,0,0,1,1.418,2.361c.317,2.609-2.107,3.613-3.99,4.7q-7.815,4.514-15.632,9.025c-2.619,1.514-5.17,2.52-8.217,1.615-2.5-.744-4.881-2.558-7.129-3.856l-8.243-4.758-3.846-2.221c-1.041-.6-2.374-1.13-3.081-2.146a3.449,3.449,0,0,1,1.179-4.923c1.291-.781,2.614-1.514,3.92-2.271a1.8,1.8,0,0,0-1.817-3.108c-1.313.761-2.645,1.5-3.941,2.283a7.025,7.025,0,0,0-1.719,10.787,15.529,15.529,0,0,0,3.98,2.682l9.474,5.469a96.185,96.185,0,0,0,8.7,4.939,12.367,12.367,0,0,0,10.576-.26c3.031-1.516,5.924-3.4,8.859-5.092q4.716-2.723,9.431-5.445a10.678,10.678,0,0,0,4.034-3.242,6.965,6.965,0,0,0,1.051-4.32c-.382-4.3-4.138-5.87-7.438-7.8a1.8,1.8,0,0,0-1.817,3.108Z" />
    <path class="c"
        d="M306.183,27.445,300.215,24c-1.764-1.018-3.51-2.164-5.345-3.048a12.384,12.384,0,0,0-11.129.188c-2.851,1.5-5.6,3.222-8.385,4.831-2.006,1.158-.195,4.27,1.817,3.109,2.651-1.531,5.285-3.1,7.957-4.595a8.757,8.757,0,0,1,8.65-.042c3.563,1.971,7.059,4.075,10.586,6.111,2.01,1.16,3.825-1.95,1.817-3.109Z" />
    <path class="b"
        d="M260.412,38.632q0,17.7,0,35.4v7.725c0,2.076.355,4.061,1.984,5.531a23.317,23.317,0,0,0,4.069,2.532l4.24,2.452,8.643,4.993c2.363,1.364,4.814,3.186,7.406,4.077,3.306,1.137,6.067-.267,8.865-1.882l7.941-4.585q4.373-2.528,8.745-5.055c2.814-1.627,5.764-3.04,6.038-6.688.163-2.169.015-4.4.015-6.576q0-15.856,0-31.715V38.632a1.8,1.8,0,0,0-3.6,0q0,17.271,0,34.542V81.03c0,1.118.184,2.415-.558,3.345-.73.915-2.221,1.475-3.222,2.054L306.6,88.963,298.4,93.7c-2.309,1.333-4.606,2.93-7.029,4.043-2.72,1.249-5.09-.626-7.363-1.938l-7.672-4.431q-4.275-2.469-8.548-4.94c-1.013-.586-2.485-1.131-3.222-2.054a3.2,3.2,0,0,1-.558-2.159V75.441q0-18.4,0-36.809a1.8,1.8,0,0,0-3.6,0Z" />
    <path class="d" d="M265.753,115.552V105.1a1.8,1.8,0,0,0-3.6,0v10.457a1.8,1.8,0,0,0,3.6,0Z" />
    <path class="d" d="M277.351,122.247V111.8a1.8,1.8,0,0,0-3.6,0v10.445a1.8,1.8,0,0,0,3.6,0Z" />
    <path class="d" d="M317.569,115V104.541a1.8,1.8,0,0,0-3.6,0V115a1.8,1.8,0,0,0,3.6,0Z" />
    <path class="d" d="M305.971,121.693V111.247a1.8,1.8,0,0,0-3.6,0v10.446a1.8,1.8,0,0,0,3.6,0Z" />
    <path class="d" d="M265.753,138.378V127.921a1.8,1.8,0,0,0-3.6,0v10.457a1.8,1.8,0,1,0,3.6,0Z" />
    <path class="d" d="M277.351,145.074V134.628a1.8,1.8,0,0,0-3.6,0v10.446a1.8,1.8,0,1,0,3.6,0Z" />
    <path class="d" d="M317.569,137.824V127.367a1.8,1.8,0,1,0-3.6,0v10.457a1.8,1.8,0,1,0,3.6,0Z" />
    <path class="d" d="M305.971,144.519V134.074a1.8,1.8,0,0,0-3.6,0v10.445a1.8,1.8,0,1,0,3.6,0Z" />
    <path class="d" d="M302.371,63.714V78.953a1.8,1.8,0,0,0,3.6,0V63.714a1.8,1.8,0,0,0-3.6,0Z" />
    <path class="d" d="M276.58,79.062V63.822a1.8,1.8,0,0,0-3.6,0v15.24a1.8,1.8,0,0,0,3.6,0Z" />
    <path class="b" d="M287.575,112.59V155.6a1.8,1.8,0,0,0,3.6,0V112.59a1.8,1.8,0,0,0-3.6,0Z" />
    <path class="b" d="M287.586,67.317V89.5a1.8,1.8,0,0,0,3.6,0V67.317a1.8,1.8,0,0,0-3.6,0Z" />
    <path class="b" d="M318.36,38.935V25.085a1.8,1.8,0,0,0-3.6,0v13.85a1.8,1.8,0,0,0,3.6,0Z" />
    <path class="b"
        d="M315.467,20.329l-12.795-7.387L296.5,9.377a13.785,13.785,0,0,0-7-2.334,12.989,12.989,0,0,0-6.606,2.1l-5.961,3.442-12.518,7.227c-1.878,1.084-3.409,2.421-3.785,4.673a6.037,6.037,0,0,0,1.894,5.517c1.629,1.439,3.865,2.387,5.739,3.469l6.6,3.81,5.978,3.452c1.973,1.139,3.942,2.511,6.2,3.01a11.282,11.282,0,0,0,7.453-.918c1.911-.941,3.731-2.128,5.576-3.193l14.223-8.211c2.155-1.244,3.887-2.686,4.15-5.324a6.094,6.094,0,0,0-2.965-5.772c-1.969-1.233-3.778,1.88-1.817,3.108a2.443,2.443,0,0,1,.936,3.241,3.4,3.4,0,0,1-1.52,1.291L310.248,29.6l-11.014,6.358-5.089,2.938a8.61,8.61,0,0,1-5.764,1.461c-1.893-.283-3.5-1.438-5.123-2.374l-5.372-3.1L266.834,28.5c-1.236-.714-2.708-1.312-2.713-2.962,0-1.708,1.6-2.322,2.868-3.052l11.07-6.391,5.2-3c1.673-.966,3.317-2.142,5.279-2.393,2.475-.317,4.39.778,6.447,1.965l6.047,3.491,12.618,7.284C315.66,24.6,317.475,21.488,315.467,20.329Z" />
    <path class="b" d="M264.012,40.706V25.085a1.8,1.8,0,0,0-3.6,0V40.706a1.8,1.8,0,0,0,3.6,0Z" />
    <path class="b" d="M291.294,53.134v-9.6a1.8,1.8,0,1,0-3.6,0v9.6a1.8,1.8,0,1,0,3.6,0Z" />
    <path class="g"
        d="M218.416,228.67l35.223-20.339a2.816,2.816,0,0,1,2.817,0L290.2,227.812a2.817,2.817,0,0,1,0,4.88c-10.614,6.126-23.362,13.487-35.224,20.339a2.806,2.806,0,0,1-2.813,0c-5.189-3-23.469-13.548-33.746-19.479A2.817,2.817,0,0,1,218.416,228.67Z" />
    <path class="e"
        d="M239.288,227.668c.1.226.2.453.3.68l-.182-.43a28.519,28.519,0,0,1,1.335,3.935,1.823,1.823,0,0,0,1.736,1.321,1.85,1.85,0,0,0,1.736-1.321,32.958,32.958,0,0,1,1.332-3.933l-.181.43c.1-.229.2-.456.3-.682a1.949,1.949,0,0,0,.181-1.387,1.835,1.835,0,0,0-.827-1.075,1.816,1.816,0,0,0-1.387-.182,1.757,1.757,0,0,0-1.076.828,34.685,34.685,0,0,0-1.812,5.044h3.472a32.5,32.5,0,0,0-1.812-5.044,1.8,1.8,0,0,0-1.076-.828,1.841,1.841,0,0,0-1.387.182,1.818,1.818,0,0,0-.827,1.075l-.064.479a1.8,1.8,0,0,0,.245.908Z" />
    <path class="e"
        d="M250.8,220.049c.1.226.2.452.295.679l-.181-.429a28.686,28.686,0,0,1,1.335,3.934,1.822,1.822,0,0,0,1.736,1.322,1.851,1.851,0,0,0,1.735-1.322,32.845,32.845,0,0,1,1.333-3.933l-.182.43q.145-.342.3-.681a1.95,1.95,0,0,0,.182-1.387,1.84,1.84,0,0,0-.827-1.076,1.82,1.82,0,0,0-1.387-.181,1.75,1.75,0,0,0-1.076.827,34.61,34.61,0,0,0-1.812,5.044h3.471a32.3,32.3,0,0,0-1.812-5.044,1.8,1.8,0,0,0-1.075-.827,1.84,1.84,0,0,0-1.387.181,1.818,1.818,0,0,0-.828,1.076l-.064.479a1.789,1.789,0,0,0,.246.908Z" />
    <path class="e"
        d="M262.959,226.682c.1.226.2.452.3.68l-.181-.43a28.519,28.519,0,0,1,1.335,3.935,1.822,1.822,0,0,0,1.736,1.321,1.851,1.851,0,0,0,1.735-1.321,32.785,32.785,0,0,1,1.333-3.933l-.181.43q.144-.344.3-.682a1.95,1.95,0,0,0,.182-1.387,1.835,1.835,0,0,0-.827-1.075,1.816,1.816,0,0,0-1.387-.182,1.753,1.753,0,0,0-1.076.827,34.652,34.652,0,0,0-1.812,5.044h3.471a32.37,32.37,0,0,0-1.812-5.044,1.8,1.8,0,0,0-1.075-.827,1.84,1.84,0,0,0-1.387.182,1.808,1.808,0,0,0-.827,1.075l-.065.479a1.786,1.786,0,0,0,.246.908Z" />
    <path class="e"
        d="M250.72,234.794q.15.339.295.679l-.182-.43a28.614,28.614,0,0,1,1.336,3.935A1.823,1.823,0,0,0,253.9,240.3a1.852,1.852,0,0,0,1.736-1.322,32.785,32.785,0,0,1,1.333-3.933l-.182.43q.145-.342.3-.681a1.95,1.95,0,0,0,.181-1.387,1.8,1.8,0,0,0-2.214-1.257,1.752,1.752,0,0,0-1.076.827,34.564,34.564,0,0,0-1.811,5.044h3.471a32.5,32.5,0,0,0-1.812-5.044,1.8,1.8,0,0,0-1.076-.827,1.841,1.841,0,0,0-1.387.181,1.821,1.821,0,0,0-.827,1.076l-.064.478a1.792,1.792,0,0,0,.246.909Z" />
    <path class="a"
        d="M64.584,258.921c3.413-1.4,7.218-.969,10.715.324a43.554,43.554,0,0,1,7,3.4,15.573,15.573,0,0,1,3.451,2.818c1.1,1.32,2.391,2.813,3.563,4.224a12.78,12.78,0,0,0,3.131,2.728c1.248.77,2.8,1.715,4.159,2.543a7.012,7.012,0,0,1,3.586,5.465,12.792,12.792,0,0,1-.047,1.759,2.585,2.585,0,0,1-1.336,2.037,101.5,101.5,0,0,1-12.125,5.9,7.584,7.584,0,0,1-2.8.468c-1.545.031-3.616.081-5.185-.838-8.741-5.118-22.906-13.185-28.056-15.689a2.8,2.8,0,0,1-1.7-2.5,11.106,11.106,0,0,1,.447-3.279,6.415,6.415,0,0,1,1.937-2.8,13.642,13.642,0,0,1,3.3-2.089C57.091,262.123,61.142,260.333,64.584,258.921Z" />
    <path class="b"
        d="M78.026,276.919l6.178-3.006.887-.431a1.81,1.81,0,0,0,.646-2.463,1.848,1.848,0,0,0-2.463-.646L77.1,273.379l-.886.432a1.81,1.81,0,0,0-.646,2.463,1.847,1.847,0,0,0,2.463.645Z" />
    <path class="b"
        d="M79.538,291.712a1.979,1.979,0,0,0,.956-1.942,6.028,6.028,0,0,0-3.377-4.909,2.771,2.771,0,0,0-2.406-.231,1.916,1.916,0,0,0-.971,1.853,5.8,5.8,0,0,0,3.377,4.971A2.818,2.818,0,0,0,79.538,291.712Z" />
    <path class="b"
        d="M65.063,260.657c4.16-1.61,8.362-.42,12.245,1.378a32.122,32.122,0,0,1,4.779,2.639,25.211,25.211,0,0,1,4.755,4.862,21.207,21.207,0,0,0,5.042,4.652c1.788,1.109,4.1,2.065,5.444,3.728.841,1.038,1.872,3.742.57,4.754a24.452,24.452,0,0,1-3.807,2.067c-1.656.852-3.328,1.674-5.022,2.447a14.664,14.664,0,0,1-4.409,1.575,9.115,9.115,0,0,1-5.594-.877q-2.363-1.382-4.734-2.749c-6.485-3.743-12.985-7.477-19.6-10.989-.646-.343-1.293-.683-1.944-1.015A6.049,6.049,0,0,1,51,272.143c-.588-.693-.207-2.2.01-3a5.175,5.175,0,0,1,1.933-2.68,25.348,25.348,0,0,1,4.966-2.68c2.356-1.1,4.745-2.14,7.152-3.13a1.86,1.86,0,0,0,1.257-2.214,1.81,1.81,0,0,0-2.214-1.257c-2.449,1.008-4.886,2.049-7.292,3.158a33.922,33.922,0,0,0-5.411,2.809,9.034,9.034,0,0,0-4.034,5.855c-.444,2.551-.256,5.091,2.2,6.517,2.857,1.66,5.883,3.08,8.778,4.683q6,3.322,11.937,6.748,2.784,1.6,5.558,3.213a13.052,13.052,0,0,0,6.426,2.224,14.222,14.222,0,0,0,6.15-1.027c1.912-.788,3.785-1.667,5.638-2.585,1.7-.841,3.39-1.7,5.038-2.641,2.264-1.288,3.059-3.129,2.9-5.712a8.534,8.534,0,0,0-2.888-5.839c-1.978-1.75-4.523-2.716-6.612-4.311-2.382-1.819-3.9-4.572-6.009-6.674a23.206,23.206,0,0,0-6.21-4.131c-5.008-2.461-10.672-4.414-16.165-2.287C61.968,258.013,62.9,261.5,65.063,260.657Z" />
    <path class="b"
        d="M80.447,293.266c1.966-1.022,2.188-3.684,1.463-5.548a8.155,8.155,0,0,0-3.884-4.412,4.9,4.9,0,0,0-3.56-.5,3.559,3.559,0,0,0-2.346,2.388,5.493,5.493,0,0,0,.087,3.116,7.9,7.9,0,0,0,1.526,2.757,7.526,7.526,0,0,0,2.6,2,6.125,6.125,0,0,0,2.141.606,3.908,3.908,0,0,0,1.976-.4,1.807,1.807,0,0,0,.827-1.076,1.8,1.8,0,0,0-2.644-2.032c.493-.224.29-.114.153-.078-.2.053-.207-.041.172-.007-.138-.013-.294,0-.433,0-.238-.006.473.113.113.011-.072-.02-.147-.033-.219-.053s-.152-.044-.226-.069-.156-.055-.233-.086c.21.091.253.107.129.05a8.8,8.8,0,0,1-.916-.532c-.06-.041-.117-.089-.177-.128.367.235.2.159.11.08-.147-.132-.295-.259-.435-.4q-.168-.17-.322-.351c-.031-.037-.261-.306-.057-.063s-.013-.027-.043-.071c-.088-.127-.17-.258-.248-.392a3.587,3.587,0,0,0-.255-.5c.015.018.165.427.065.152-.023-.063-.047-.125-.068-.188a4.933,4.933,0,0,1-.138-.474c-.021-.087-.1-.592-.055-.241s.006.012,0-.05c-.006-.1-.009-.193-.009-.29,0-.073.007-.146.007-.22,0-.369-.079.347-.016.12.022-.077.042-.158.06-.236.037-.164.145-.117-.081.172a.861.861,0,0,0,.106-.193c.063-.19-.324.332-.1.126a1.028,1.028,0,0,0,.12-.117q-.372.271-.2.154a1.059,1.059,0,0,1,.107-.066c.257-.173-.365.093-.161.064a1.95,1.95,0,0,0,.208-.058c.154-.043.211.055-.21.026.061,0,.129-.006.19-.006s.371.056.063-.01c-.335-.073.026.01.078.022a1.429,1.429,0,0,1,.567.177l-.192-.08c.057.025.113.052.169.081q.118.058.234.123.207.115.4.249c.059.039.15.135.216.151-.026-.006-.343-.281-.115-.087.147.124.292.25.429.385q.168.165.324.34c.045.052.089.106.135.158.241.271-.2-.279-.06-.08a7.376,7.376,0,0,1,.535.852c.038.073.072.148.11.22.165.321-.153-.41-.03-.075.055.147.108.294.151.444a1.472,1.472,0,0,1,.119.529c0,.01-.046-.508-.03-.218,0,.085.013.17.015.255,0,.067,0,.135,0,.2s-.007.149-.014.224c.044-.283.053-.355.029-.216-.019.081-.032.163-.055.243l-.027.091q-.1.267.081-.176a.9.9,0,0,0-.081.153q-.111.168.046-.044t.038-.055c-.052.049-.258.223.006.021s-.016-.007-.086.03a1.813,1.813,0,0,0-.646,2.462A1.842,1.842,0,0,0,80.447,293.266Z" />
    <path class="b"
        d="M57.479,278.553a1.98,1.98,0,0,0,.956-1.943,6.027,6.027,0,0,0-3.377-4.908,2.771,2.771,0,0,0-2.406-.231,1.915,1.915,0,0,0-.971,1.853,5.8,5.8,0,0,0,3.377,4.97A2.815,2.815,0,0,0,57.479,278.553Z" />
    <path class="b"
        d="M58.388,280.107c1.966-1.022,2.188-3.685,1.463-5.548a8.152,8.152,0,0,0-3.884-4.412,4.909,4.909,0,0,0-3.56-.5,3.56,3.56,0,0,0-2.346,2.389,5.493,5.493,0,0,0,.087,3.116,7.909,7.909,0,0,0,1.525,2.757,7.539,7.539,0,0,0,2.6,2,6.146,6.146,0,0,0,2.141.606,3.908,3.908,0,0,0,1.976-.4,1.807,1.807,0,0,0,.827-1.076A1.8,1.8,0,0,0,56.571,277c.493-.223.29-.114.152-.077-.2.053-.206-.041.173-.007-.138-.013-.294,0-.433,0-.238-.006.473.113.113.011-.072-.021-.147-.033-.219-.053s-.152-.044-.227-.069-.156-.056-.232-.086q.315.135.129.05a8.919,8.919,0,0,1-.917-.532c-.059-.041-.116-.089-.176-.128.366.235.2.158.11.079-.147-.131-.3-.258-.435-.4q-.168-.17-.322-.351c-.032-.037-.261-.306-.057-.064s-.014-.026-.043-.07c-.088-.127-.17-.258-.248-.393a3.632,3.632,0,0,0-.255-.5c.015.018.165.426.065.152-.023-.063-.047-.125-.068-.188a4.869,4.869,0,0,1-.138-.475c-.021-.087-.1-.591-.055-.241s.006.012,0-.05c-.006-.1-.01-.192-.009-.289,0-.073.007-.146.007-.22,0-.369-.079.347-.016.12.021-.077.042-.158.06-.236.037-.164.145-.117-.081.172a.9.9,0,0,0,.106-.193c.063-.191-.324.332-.1.126a1.033,1.033,0,0,0,.12-.118c-.248.182-.314.233-.2.155a1.2,1.2,0,0,1,.108-.066c.257-.174-.365.093-.161.063a1.735,1.735,0,0,0,.208-.057c.154-.043.211.055-.21.026.061,0,.128-.007.19-.006s.37.056.063-.01c-.335-.073.026.01.078.021a1.436,1.436,0,0,1,.566.178l-.191-.081c.057.026.113.053.169.081.079.04.157.081.234.124q.207.115.4.248c.059.04.149.136.216.152-.026-.006-.344-.281-.115-.088.147.125.292.251.429.386q.168.165.324.34c.045.052.089.106.134.158.241.271-.2-.279-.059-.081a7.475,7.475,0,0,1,.535.853c.038.073.072.147.109.22.166.321-.152-.41-.029-.075.055.146.107.293.151.444a1.472,1.472,0,0,1,.119.529c0,.009-.046-.509-.03-.219,0,.086.013.17.015.256,0,.067,0,.134,0,.2s-.006.15-.013.225q.065-.425.029-.216c-.019.081-.032.162-.055.243l-.027.091q-.1.267.081-.176a.989.989,0,0,0-.082.153c-.073.111-.058.1.047-.044s.123-.154.038-.055c-.052.049-.258.222.006.021s-.016-.007-.086.029a1.814,1.814,0,0,0-.646,2.463A1.842,1.842,0,0,0,58.388,280.107Z" />
</svg>