<svg width="512" height="512" xmlns="http://www.w3.org/2000/svg"
    xmlns:xlink="http://www.w3.org/1999/xlink" overflow="hidden">
    <defs>
        <clipPath id="clip0">
            <rect x="181" y="136" width="512" height="512" />
        </clipPath>
    </defs>
    <g clip-path="url(#clip0)" transform="translate(-181 -136)">
        <path
            d="M437 136C295.617 136 181 250.617 181 392 181 533.386 295.617 648 437 648 578.386 648 693 533.386 693 392 693 250.617 578.386 136 437 136ZM465.125 548.16C465.125 550.453 463.266 552.313 460.973 552.313L413.019 552.313C410.726 552.313 408.867 550.453 408.867 548.16L408.867 500.207C408.867 497.914 410.726 496.054 413.019 496.054L460.973 496.054C463.266 496.054 465.125 497.914 465.125 500.207L465.125 548.16ZM454.942 449.27 419.313 449.27 401.898 235.176C401.558 231.008 404.054 227.465 407.355 227.465L466.645 227.465C469.942 227.465 472.438 231 472.102 235.164L454.942 449.27Z"
            fill="#F69B00" />
    </g>
</svg>