<svg xmlns="http://www.w3.org/2000/svg" width="349.637" height="313.001" viewBox="0 0 349.637 313.001"><defs><style>.a{fill:#fff;}.b{fill:#3d8dcc;}.c{fill:#211715;}.d{fill:#8bbbe0;}.e{fill:#c5ddf0;}</style></defs><path class="a" d="M268.139,310.6v-58.41h23.37V310.6"/><path class="a" d="M229.086,310.6V266.794h23.37V310.6"/><path class="b" d="M330.551,237.589V310.6h-23.36V237.589Z"/><path class="c" d="M270.539,310.6v-58.41l-2.4,2.4h23.37l-2.4-2.4V310.6c0,3.088,4.8,3.093,4.8,0v-58.41a2.435,2.435,0,0,0-2.4-2.4h-23.37a2.435,2.435,0,0,0-2.4,2.4V310.6c0,3.088,4.8,3.093,4.8,0Z"/><path class="c" d="M231.486,310.6V266.794l-2.4,2.4h23.37l-2.4-2.4V310.6c0,3.088,4.8,3.093,4.8,0V266.794a2.434,2.434,0,0,0-2.4-2.4h-23.37a2.435,2.435,0,0,0-2.4,2.4V310.6c0,3.088,4.8,3.093,4.8,0Z"/><path class="c" d="M309.591,310.6V237.589l-2.4,2.4h23.36l-2.4-2.4V310.6c0,3.088,4.8,3.093,4.8,0V237.589a2.435,2.435,0,0,0-2.4-2.4h-23.36a2.435,2.435,0,0,0-2.4,2.4V310.6c0,3.088,4.8,3.093,4.8,0Z"/><path class="c" d="M347.318,308.2h-135c-3.088,0-3.093,4.8,0,4.8h135c3.089,0,3.094-4.8,0-4.8Z"/><path class="c" d="M137.318,305.4h-135c-3.088,0-3.093,4.8,0,4.8h135c3.089,0,3.094-4.8,0-4.8Z"/><path class="c" d="M55.2,249.782,35.966,269.021c-2.187,2.187,1.206,5.582,3.394,3.394L58.6,253.176c2.187-2.187-1.206-5.582-3.394-3.394Z"/><path class="c" d="M111.234,249.782,92,269.021c-2.187,2.187,1.206,5.582,3.394,3.394l19.239-19.239c2.187-2.187-1.207-5.582-3.4-3.394Z"/><path class="c" d="M63.908,253.177l19.238,19.238c2.187,2.187,5.582-1.206,3.394-3.394L67.3,249.782c-2.187-2.187-5.582,1.206-3.394,3.395Z"/><path class="d" d="M61.252,240.394A6.619,6.619,0,0,0,54.5,247.1v.066a6.848,6.848,0,0,0,12.342,4.01A7.2,7.2,0,0,0,68,247.1a6.8,6.8,0,0,0-1.212-3.908A6.625,6.625,0,0,0,61.252,240.394Z"/><path class="c" d="M61.252,237.994a9.166,9.166,0,0,0-8.57,5.9,9.16,9.16,0,0,0,11.63,11.989,9.021,9.021,0,0,0,6.077-9.23,9.157,9.157,0,0,0-9.137-8.656,2.4,2.4,0,1,0,0,4.8c.216,0,.428.017.644.027.13.006.427.1-.018-.006.329.081.654.138.977.245.125.041.248.086.37.134-.539-.212.042.039.128.086a6.242,6.242,0,0,1,.8.512c-.464-.351.241.257.353.375.008.01.419.467.175.184s.157.233.157.233a5.941,5.941,0,0,1,.51.941c-.044-.106-.128-.393-.008.032.059.211.127.418.176.631.016.071.1.77.055.238.013.149.023.3.028.449a8.046,8.046,0,0,1-.044,1.151c.05-.466-.011.011-.036.129-.037.176-.079.351-.128.524-.04.136-.089.267-.129.4q-.15.39.008,0c-.043.093-.088.185-.136.275a8.624,8.624,0,0,1-.465.757c.327-.495-.2.21-.332.337-.108.1-.225.2-.337.3-.262.241.473-.294-.024.006-.1.063-.206.132-.312.193-.056.033-.688.358-.381.212.338-.161-.228.079-.247.085-.123.041-.247.078-.373.112-.193.052-.388.088-.583.132-.121.027-.44.022.028,0-.348.017-.69.049-1.039.041-.122,0-.244-.008-.366-.017s-.239-.019-.359-.032q.474.068.2.021c-.237-.085-.511-.1-.756-.174-.163-.047-.32-.106-.481-.159-.319-.105,0,.076.114.05-.128.03-.61-.321-.718-.389-.092-.057-.179-.121-.27-.179-.389-.249.339.347-.08-.076-.169-.171-.339-.344-.509-.513-.387-.384.273.438-.026-.021-.059-.091-.123-.178-.181-.27-.07-.111-.423-.591-.395-.723-.028.128.152.422.046.109-.064-.19-.133-.377-.187-.57s-.23-.585-.174-.773l.034.28c-.015-.122-.027-.244-.036-.367s-.016-.249-.019-.374c-.008-.266.012-.529.017-.8.01-.565-.112.354-.011.023.059-.192.076-.4.127-.6a2.821,2.821,0,0,1,.271-.821c-.338.5-.026.087.046-.049s.165-.3.256-.444c.061-.1.128-.188.189-.284.249-.389-.323.31.1-.113.224-.222.445-.44.676-.653-.4.37-.143.1,0,.012.172-.108.339-.222.517-.321.1-.057.209-.106.311-.163.458-.254-.384.107.083-.035.355-.107.7-.206,1.06-.287.434-.1.011,0-.075,0,.261-.02.519-.037.781-.04a2.4,2.4,0,0,0,0-4.8Z"/><path class="a" d="M32.9,268.735a6.619,6.619,0,0,0-6.749,6.708v.067a6.5,6.5,0,0,0,6.751,6.769,6.464,6.464,0,0,0,5.591-2.76,7.2,7.2,0,0,0,1.158-4.076,6.8,6.8,0,0,0-1.212-3.907A6.624,6.624,0,0,0,32.9,268.735Z"/><path class="c" d="M32.9,266.335a9.163,9.163,0,0,0-8.57,5.9A9.577,9.577,0,0,0,26.1,281.8a9.523,9.523,0,0,0,9.862,2.417,9.02,9.02,0,0,0,6.076-9.23,9.155,9.155,0,0,0-9.136-8.655,2.4,2.4,0,0,0,0,4.8c.215,0,.428.017.643.027.131.006.428.1-.018-.006.329.081.655.137.978.245.124.041.247.086.37.134-.539-.212.042.039.128.086a6.273,6.273,0,0,1,.8.512c-.464-.351.241.256.352.375.009.009.419.467.176.184s.157.233.157.232a6.033,6.033,0,0,1,.51.942c-.044-.106-.129-.393-.009.032.06.21.128.417.176.631.016.07.1.77.055.237.013.15.024.3.029.45a8.046,8.046,0,0,1-.045,1.151c.051-.466-.011.011-.035.129-.037.176-.079.351-.129.523-.039.136-.088.268-.129.4-.1.26-.1.262.008,0-.042.093-.088.184-.136.274a8.485,8.485,0,0,1-.464.758c.327-.5-.2.21-.332.337-.108.1-.226.2-.337.3-.262.241.472-.294-.024,0-.105.064-.206.133-.312.194-.057.033-.688.358-.381.212.338-.161-.229.079-.247.085-.123.04-.248.078-.373.112-.193.052-.388.088-.583.131-.121.028-.441.023.028,0-.349.016-.69.049-1.04.041-.122,0-.244-.009-.365-.017s-.24-.019-.359-.033c.315.045.382.053.2.022-.237-.085-.512-.1-.757-.174-.162-.047-.32-.107-.48-.159-.32-.105,0,.076.113.05-.128.03-.609-.321-.718-.389-.091-.058-.178-.121-.269-.179-.39-.249.339.347-.08-.076-.17-.171-.339-.344-.51-.513-.386-.385.273.438-.025-.021-.059-.091-.123-.179-.181-.271-.071-.111-.424-.59-.4-.722-.027.128.153.422.046.109-.064-.19-.132-.377-.187-.57s-.229-.585-.173-.774l.033.28c-.014-.121-.026-.244-.035-.366s-.016-.25-.02-.374c-.008-.267.012-.529.017-.8.011-.565-.112.354-.01.023.058-.192.076-.4.127-.6a2.78,2.78,0,0,1,.27-.821c-.338.5-.025.087.047-.05s.165-.3.256-.443c.06-.1.127-.188.189-.284.249-.389-.324.31.1-.114.223-.222.444-.439.676-.652-.4.37-.144.1-.005.012.172-.108.338-.222.516-.321.1-.057.21-.106.312-.163.457-.254-.385.107.082-.035.355-.107.7-.206,1.061-.287.434-.1.011,0-.075,0,.261-.02.519-.037.781-.04a2.4,2.4,0,0,0,0-4.8Z"/><path class="a" d="M89.267,268.735a6.62,6.62,0,0,0-6.749,6.708v.067a6.848,6.848,0,0,0,12.342,4.009,7.194,7.194,0,0,0,1.158-4.076,6.8,6.8,0,0,0-1.212-3.907A6.623,6.623,0,0,0,89.267,268.735Z"/><path class="c" d="M89.267,266.335a9.163,9.163,0,0,0-8.57,5.9,9.159,9.159,0,0,0,11.63,11.988,9.021,9.021,0,0,0,6.077-9.23,9.156,9.156,0,0,0-9.137-8.655,2.4,2.4,0,0,0,0,4.8c.216,0,.429.017.644.027.13.006.428.1-.018-.006.329.081.654.137.977.245.125.041.248.086.37.134-.539-.212.042.039.128.086a6.214,6.214,0,0,1,.8.512c-.465-.351.24.256.352.375.009.009.419.467.176.184s.157.233.156.232a6.038,6.038,0,0,1,.511.942c-.045-.106-.129-.393-.009.032.06.21.127.417.176.631.016.07.1.77.055.237.013.15.023.3.029.45a8.2,8.2,0,0,1-.045,1.151c.05-.466-.011.011-.036.129-.037.176-.078.351-.128.523-.04.136-.089.268-.129.4-.1.26-.1.262.008,0-.043.093-.088.184-.136.274a8.495,8.495,0,0,1-.465.758c.327-.5-.2.21-.331.337-.109.1-.226.2-.337.3-.263.241.472-.294-.025,0-.105.064-.206.133-.312.194-.056.033-.688.358-.381.212.338-.161-.228.079-.247.085-.123.04-.247.078-.373.112-.193.052-.388.088-.583.131-.121.028-.44.023.028,0-.348.016-.689.049-1.039.041-.122,0-.244-.009-.366-.017s-.239-.019-.358-.033c.315.045.382.053.2.022-.237-.085-.511-.1-.756-.174-.163-.047-.32-.107-.481-.159-.319-.105,0,.076.114.05-.128.03-.61-.321-.718-.389-.092-.058-.179-.121-.27-.179-.389-.249.339.347-.08-.076-.169-.171-.339-.344-.509-.513-.387-.385.273.438-.025-.021-.06-.091-.124-.179-.182-.271-.07-.111-.423-.59-.4-.722-.027.128.152.422.046.109-.064-.19-.132-.377-.187-.57s-.229-.585-.174-.774l.034.28c-.015-.121-.027-.244-.036-.366s-.016-.25-.019-.374c-.008-.267.012-.529.017-.8.01-.565-.112.354-.011.023.059-.192.076-.4.127-.6a2.811,2.811,0,0,1,.271-.821c-.338.5-.026.087.046-.05s.165-.3.256-.443c.061-.1.128-.188.189-.284.249-.389-.323.31.1-.114.223-.222.444-.439.675-.652-.4.37-.143.1,0,.012.172-.108.339-.222.517-.321.1-.057.209-.106.311-.163.458-.254-.384.107.083-.035.355-.107.7-.206,1.06-.287.434-.1.011,0-.075,0,.261-.02.519-.037.781-.04a2.4,2.4,0,0,0,0-4.8Z"/><path class="d" d="M117.12,240.394a6.619,6.619,0,0,0-6.749,6.709v.066a6.848,6.848,0,0,0,12.342,4.01,7.206,7.206,0,0,0,1.158-4.076,6.806,6.806,0,0,0-1.212-3.908A6.625,6.625,0,0,0,117.12,240.394Z"/><path class="c" d="M117.12,237.994a9.166,9.166,0,0,0-8.57,5.9,9.159,9.159,0,0,0,11.63,11.989,9.021,9.021,0,0,0,6.076-9.23,9.156,9.156,0,0,0-9.136-8.656,2.4,2.4,0,0,0,0,4.8c.215,0,.428.017.643.027.131.006.428.1-.018-.006.329.081.655.138.978.245.124.041.247.086.37.134-.539-.212.042.039.128.086a6.384,6.384,0,0,1,.8.512c-.464-.351.241.257.352.375.009.01.419.467.176.184s.157.233.157.233a6.023,6.023,0,0,1,.51.941c-.044-.106-.129-.393-.009.032.06.211.128.418.176.631.016.071.1.77.055.238.013.149.024.3.029.449a8.046,8.046,0,0,1-.045,1.151c.051-.466-.011.011-.035.129-.037.176-.079.351-.129.524-.039.136-.088.267-.129.4q-.148.39.008,0c-.042.093-.088.185-.136.275a8.613,8.613,0,0,1-.464.757c.327-.495-.2.21-.332.337-.108.1-.226.2-.337.3-.262.241.472-.294-.024.006-.1.063-.206.132-.312.193-.057.033-.688.358-.381.212.338-.161-.229.079-.247.085-.123.041-.248.078-.373.112-.193.052-.388.088-.583.132-.121.027-.441.022.028,0-.349.017-.69.049-1.04.041-.122,0-.244-.008-.365-.017s-.24-.019-.359-.032q.472.068.2.021c-.237-.085-.512-.1-.757-.174-.162-.047-.32-.106-.48-.159-.32-.105,0,.076.113.05-.128.03-.609-.321-.718-.389-.091-.057-.178-.121-.269-.179-.39-.249.339.347-.08-.076-.17-.171-.339-.344-.509-.513-.387-.384.272.438-.026-.021-.059-.091-.123-.178-.181-.27-.071-.111-.424-.591-.4-.723-.027.128.153.422.046.109-.064-.19-.132-.377-.186-.57s-.23-.585-.174-.773l.034.28c-.015-.122-.027-.244-.036-.367s-.016-.249-.02-.374c-.008-.266.012-.529.017-.8.011-.565-.112.354-.01.023.058-.192.076-.4.127-.6a2.79,2.79,0,0,1,.27-.821c-.338.5-.025.087.047-.049s.165-.3.256-.444c.06-.1.127-.188.189-.284.249-.389-.324.31.1-.113.223-.222.444-.44.676-.653-.4.37-.144.1,0,.012.172-.108.339-.222.517-.321.1-.057.209-.106.311-.163.457-.254-.384.107.082-.035.355-.107.7-.206,1.061-.287.434-.1.011,0-.075,0,.261-.02.519-.037.781-.04a2.4,2.4,0,0,0,0-4.8Z"/><polygon class="a" points="333.318 94.983 333.318 33.207 279.818 2.318 226.318 33.207 226.318 94.983 279.818 125.871 333.318 94.983"/><path class="d" d="M252.3,50.3c-.111-1.68-.173-3.173-.173-4.383,9.9-7.423,20.61-13.955,31.609-20.545,6.928,6.2,20.055,22.943,21.91,25.849.486,4.614,1.587,19.381,1.87,26.742-5.358,8.8-15.737,18.385-23.961,26.791-8.593-5.965-26.144-22.763-27.2-24.668C255.558,78.642,252.989,60.82,252.3,50.3Z"/><path class="c" d="M277.418,2.318V125.871c0,3.089,4.8,3.094,4.8,0V2.318c0-3.088-4.8-3.093-4.8,0Z"/><path class="c" d="M225.107,35.279l83.27,48.076,23.73,13.7c2.68,1.548,5.1-2.6,2.423-4.144L251.26,44.835l-23.73-13.7c-2.68-1.547-5.1,2.6-2.423,4.145Z"/><path class="c" d="M332.107,31.134,248.837,79.21l-23.73,13.7c-2.674,1.544-.26,5.693,2.423,4.144L310.8,48.979l23.73-13.7c2.674-1.544.26-5.694-2.423-4.145Z"/><path class="c" d="M335.718,94.983V33.207a2.414,2.414,0,0,0-1.188-2.073L316.2,20.549,287.42,3.935c-2.1-1.213-4.175-2.546-6.334-3.656-2.022-1.04-4.765,1.287-6.462,2.267l-27.5,15.879c-7.212,4.164-14.51,8.208-21.648,12.5-.121.073-.244.141-.366.211a2.415,2.415,0,0,0-1.189,2.073V92.736c0,1.594-.3,3.353,1.263,4.362,1.277.826,2.652,1.531,3.97,2.292l19.791,11.427,21.827,12.6,6.5,3.753c1.343.775,2.459,1.476,4.052.6,4.7-2.57,9.294-5.366,13.934-8.045l22.979-13.267,15.488-8.942.809-.467c2.674-1.544.26-5.693-2.423-4.144l-18.129,10.466-28.76,16.605-6.611,3.817h2.423L262.9,113.332l-28.76-16.6-6.611-3.817,1.188,2.072V33.207l-1.188,2.072,18.128-10.467,28.76-16.6,6.612-3.817h-2.423l18.129,10.466L325.5,31.462l6.611,3.817-1.189-2.072V94.983C330.918,98.072,335.718,98.077,335.718,94.983Z"/><path class="e" d="M69.81,64.12c5.436,3.9,26.976,19.352,47.644,34.157-9.795,14.65-26.48,23.506-47.627,23.506-33.319,0-57.252-23.489-57.509-57.663h.017c24.515,0,49.3.018,55.765.018Z"/><path class="d" d="M69.81,64.1c7.282-5.231,27.728-19.9,47.166-33.814l.017-.017a57.914,57.914,0,0,1,10.325,33.284c0,13.437-3.487,25.284-9.864,34.721C96.786,83.472,75.246,68.018,69.81,64.12Z"/><path class="b" d="M69.81,6.407c20.446,0,37.148,9.505,47.183,23.865l-.017.017C97.538,44.2,77.092,58.872,69.81,64.1Z"/><path class="a" d="M69.81,6.407V64.12l-1.71.018c-6.462,0-31.25-.018-55.765-.018h-.017v-.564C12.318,32.751,35.824,6.407,69.81,6.407Z"/><path class="c" d="M72.21,64.12V6.407c0-3.089-4.8-3.094-4.8,0V64.12c0,3.089,4.8,3.094,4.8,0Z"/><path class="c" d="M68.6,66.193q16.972,12.17,33.945,24.339,6.849,4.91,13.7,9.817a2.42,2.42,0,0,0,3.284-.861,2.452,2.452,0,0,0-.861-3.283Q97.744,81.219,76.833,66.216l-5.812-4.168a2.42,2.42,0,0,0-3.284.861,2.454,2.454,0,0,0,.861,3.284Z"/><path class="c" d="M71.021,66.176q17.109-12.29,34.235-24.553l12.931-9.262a2.468,2.468,0,0,0,.861-3.283,2.419,2.419,0,0,0-3.284-.861Q95.492,42.731,75.235,57.267q-3.319,2.382-6.637,4.764a2.469,2.469,0,0,0-.861,3.284,2.42,2.42,0,0,0,3.284.861Z"/><path class="c" d="M69.81,4.007A61.018,61.018,0,0,0,35.738,14.114,58.591,58.591,0,0,0,14.693,39.822a64.444,64.444,0,0,0-3.951,34.621,59.507,59.507,0,0,0,13.473,30.046A56.37,56.37,0,0,0,51.168,121.6a68.772,68.772,0,0,0,37.411.091,55.19,55.19,0,0,0,29.779-20.527c8.367-11.5,11.914-26.129,11.3-40.232a60.245,60.245,0,0,0-16.048-38.6A58.53,58.53,0,0,0,80.154,4.833,68.649,68.649,0,0,0,69.81,4.007c-3.089-.01-3.093,4.79,0,4.8a56.1,56.1,0,0,1,34.179,11.236,54.391,54.391,0,0,1,19.718,31.733,61.368,61.368,0,0,1-5.025,39.69,50.014,50.014,0,0,1-24.369,23.108c-10.647,4.724-23.176,5.909-34.623,4.036a53.858,53.858,0,0,1-27.243-12.582C16.776,92.035,11.243,68.682,16.7,48.642A53.456,53.456,0,0,1,61.48,9.353a61.389,61.389,0,0,1,8.33-.546C72.9,8.8,72.9,4,69.81,4.007Z"/><path class="c" d="M12.335,66.52q24.489,0,48.977.015l6.788,0c3.089,0,3.094-4.8,0-4.8q-19.819,0-39.638-.015-8.064,0-16.127,0c-3.088,0-3.093,4.8,0,4.8Z"/></svg>