<svg width="129" height="121" xmlns="http://www.w3.org/2000/svg"
    xmlns:xlink="http://www.w3.org/1999/xlink" overflow="hidden">
    <defs>
        <clipPath id="clip0">
            <rect x="2222" y="1392" width="129" height="121" />
        </clipPath>
        <clipPath id="clip1">
            <rect x="2222" y="1481" width="32" height="32" />
        </clipPath>
        <clipPath id="clip2">
            <rect x="2222" y="1481" width="32" height="32" />
        </clipPath>
        <clipPath id="clip3">
            <rect x="2222" y="1481" width="32" height="32" />
        </clipPath>
        <clipPath id="clip4">
            <rect x="2271" y="1433" width="33" height="33" />
        </clipPath>
        <clipPath id="clip5">
            <rect x="2271" y="1433" width="33" height="33" />
        </clipPath>
        <clipPath id="clip6">
            <rect x="2271" y="1433" width="33" height="33" />
        </clipPath>
        <clipPath id="clip7">
            <rect x="2318" y="1391" width="33" height="34" />
        </clipPath>
        <clipPath id="clip8">
            <rect x="2318" y="1391" width="33" height="34" />
        </clipPath>
        <clipPath id="clip9">
            <rect x="2318" y="1391" width="33" height="34" />
        </clipPath>
        <clipPath id="clip10">
            <rect x="2231" y="1411" width="32" height="33" />
        </clipPath>
        <clipPath id="clip11">
            <rect x="2231" y="1411" width="32" height="33" />
        </clipPath>
        <clipPath id="clip12">
            <rect x="2231" y="1411" width="32" height="33" />
        </clipPath>
    </defs>
    <g clip-path="url(#clip0)" transform="translate(-2222 -1392)">
        <g clip-path="url(#clip1)">
            <g clip-path="url(#clip2)">
                <g clip-path="url(#clip3)">
                    <path
                        d="M23.6267 16.231C22.5227 14.0248 21.5788 12.2344 20.746 10.6545 18.6437 6.66765 17.3751 4.2614 16.5868 0.867211 16.4664 0.348386 16.0295 0 15.4997 0 14.9702 0 14.5333 0.348386 14.4129 0.867272 13.6244 4.26098 12.3557 6.66704 10.2544 10.6536 9.42138 12.2335 8.47745 14.0241 7.3732 16.2311 5.51993 19.9348 5.48566 23.5716 7.27693 26.4713 8.97678 29.2223 12.2044 30.9999 15.5 30.9999 18.7955 30.9999 22.0229 29.2223 23.7227 26.4712 25.5143 23.5719 25.48 19.9348 23.6267 16.231ZM11.883 17.8838C11.7158 18.9398 11.6262 20.0544 11.6262 21.2074 11.6262 22.8211 11.8019 24.3591 12.1196 25.765 12.2927 26.532 11.3554 27.055 10.7954 26.5031 9.56033 25.2858 8.79399 23.5934 8.79399 21.7242 8.79399 20.0043 9.44063 18.4353 10.503 17.2484 11.0311 16.6586 12.0069 17.1019 11.883 17.8838Z"
                        fill="#006EC0" transform="matrix(1.03226 0 0 1 2222 1482)" />
                </g>
            </g>
        </g>
        <g clip-path="url(#clip4)">
            <g clip-path="url(#clip5)">
                <g clip-path="url(#clip6)">
                    <path
                        d="M2295.39 1449.75C2294.25 1447.48 2293.28 1445.63 2292.42 1444 2290.25 1439.88 2288.94 1437.4 2288.12 1433.9 2288 1433.36 2287.55 1433 2287 1433 2286.45 1433 2286 1433.36 2285.88 1433.9 2285.06 1437.4 2283.75 1439.88 2281.59 1444 2280.73 1445.63 2279.75 1447.48 2278.61 1449.75 2276.7 1453.58 2276.66 1457.33 2278.51 1460.33 2280.27 1463.17 2283.6 1465 2287 1465 2290.4 1465 2293.73 1463.17 2295.49 1460.33 2297.34 1457.33 2297.3 1453.58 2295.39 1449.75ZM2283.27 1451.46C2283.09 1452.55 2283 1453.7 2283 1454.89 2283 1456.56 2283.18 1458.15 2283.51 1459.6 2283.69 1460.39 2282.72 1460.93 2282.14 1460.36 2280.87 1459.1 2280.08 1457.35 2280.08 1455.43 2280.08 1453.65 2280.75 1452.03 2281.84 1450.8 2282.39 1450.2 2283.39 1450.65 2283.27 1451.46Z"
                        fill="#006EC0" />
                </g>
            </g>
        </g>
        <g clip-path="url(#clip7)">
            <g clip-path="url(#clip8)">
                <g clip-path="url(#clip9)">
                    <path
                        d="M2343.39 1408.75C2342.25 1406.48 2341.27 1404.63 2340.42 1403 2338.25 1398.88 2336.94 1396.4 2336.12 1392.9 2336 1392.36 2335.55 1392 2335 1392 2334.45 1392 2334 1392.36 2333.88 1392.9 2333.06 1396.4 2331.75 1398.88 2329.59 1403 2328.73 1404.63 2327.75 1406.48 2326.61 1408.75 2324.7 1412.58 2324.66 1416.33 2326.51 1419.33 2328.27 1422.17 2331.6 1424 2335 1424 2338.4 1424 2341.73 1422.17 2343.49 1419.33 2345.34 1416.33 2345.3 1412.58 2343.39 1408.75ZM2331.27 1410.46C2331.09 1411.55 2331 1412.7 2331 1413.89 2331 1415.56 2331.18 1417.15 2331.51 1418.6 2331.69 1419.39 2330.72 1419.93 2330.14 1419.36 2328.87 1418.1 2328.08 1416.35 2328.08 1414.43 2328.08 1412.65 2328.75 1411.03 2329.84 1409.8 2330.39 1409.2 2331.39 1409.65 2331.27 1410.46Z"
                        fill="#006EC0" />
                </g>
            </g>
        </g>
        <g clip-path="url(#clip10)">
            <g clip-path="url(#clip11)">
                <g clip-path="url(#clip12)">
                    <path
                        d="M23.6267 16.231C22.5227 14.0248 21.5788 12.2344 20.746 10.6545 18.6437 6.66765 17.3751 4.2614 16.5868 0.867211 16.4664 0.348386 16.0295 0 15.4997 0 14.9702 0 14.5333 0.348386 14.4129 0.867272 13.6244 4.26098 12.3557 6.66704 10.2544 10.6536 9.42138 12.2335 8.47745 14.0241 7.3732 16.2311 5.51993 19.9348 5.48566 23.5716 7.27693 26.4713 8.97678 29.2223 12.2044 30.9999 15.5 30.9999 18.7955 30.9999 22.0229 29.2223 23.7227 26.4712 25.5143 23.5719 25.48 19.9348 23.6267 16.231ZM11.883 17.8838C11.7158 18.9398 11.6262 20.0544 11.6262 21.2074 11.6262 22.8211 11.8019 24.3591 12.1196 25.765 12.2927 26.532 11.3554 27.055 10.7954 26.5031 9.56033 25.2858 8.79399 23.5934 8.79399 21.7242 8.79399 20.0043 9.44063 18.4353 10.503 17.2484 11.0311 16.6586 12.0069 17.1019 11.883 17.8838Z"
                        fill="#006EC0" transform="matrix(1 0 0 1.03226 2232 1411)" />
                </g>
            </g>
        </g>
    </g>
</svg>