<svg width="43" height="42" xmlns="http://www.w3.org/2000/svg"
    xmlns:xlink="http://www.w3.org/1999/xlink" overflow="hidden">
    <defs>
        <clipPath id="clip0">
            <rect x="81" y="301" width="43" height="42" />
        </clipPath>
    </defs>
    <g clip-path="url(#clip0)" transform="translate(-81 -301)">
        <path
            d="M34.2438 66.2348C33.7372 66.3561 33.2189 66.4508 32.6905 66.5269 31.0421 66.7667 29.3597 66.5084 27.8591 65.7852L26.7761 68.7377 27.4402 69.9918C28.187 71.4633 29.5618 72.5161 31.1771 72.8534 32.9001 73.2235 34.696 73.0387 36.3074 72.3253 36.3997 72.282 36.4912 72.2368 36.5805 72.1896 36.5421 72.0836 36.5105 71.9752 36.4861 71.8651 36.3224 71.0875 36.0038 68.4073 35.9374 67.8851 35.8937 67.1395 35.9311 66.3914 36.0489 65.6539 35.4637 65.8955 34.86 66.0897 34.2438 66.2348Z"
            fill="#FFFFFF" transform="matrix(-1.85036e-16 -1.00729 1 -1.83697e-16 81.0204 403.319)" />
        <path
            d="M34.6653 69.6569C28.5028 61.9212 18.5155 59.6266 18.5155 59.6266 17.9615 59.397 17.3805 59.2392 16.7865 59.1569 15.5474 56.3625 12.6345 52.9363 10.2319 50.832 7.84746 48.7587 5.0098 47.2738 1.94708 46.4968 2.67358 42.6878 2.18923 38.747 0.561997 35.2273 7.73781 38.7137 15.5329 40.7447 23.4977 41.2031 27.7334 44.8716 43.7458 51.7533 51.8896 52.605 56.3351 58.0577 61.802 63.6538 66.8552 68.6864 65.148 68.517 64.1479 69.2009 63.254 70.0965 62.6602 70.6916 62.351 71.5126 62.0374 72.2938 60.7904 70.8302 58.8637 70.1331 57.1083 69.6496 53.6753 68.7038 52.2539 68.5542 49.9348 68.4796 49.9357 68.4799 40.6311 68.2146 34.6653 69.6569Z"
            fill="#FFFFFF" transform="matrix(-1.85036e-16 -1.00729 1 -1.83697e-16 81.0204 403.319)" />
        <path
            d="M95.6852 0.855534C92.2368 0.0442327 88.7836 2.18206 87.9723 5.63051 87.9558 5.70048 87.9405 5.77074 87.9264 5.84123 87.1042 9.67638 89.2083 12.8896 92.9342 13.6885 96.8036 14.5181 99.9018 12.3943 100.719 8.58484 101.512 5.13536 99.3585 1.696 95.9091 0.902813 95.8347 0.885723 95.7601 0.86996 95.6852 0.855534Z"
            fill="#F4B467" transform="matrix(-1.85036e-16 -1.00729 1 -1.83697e-16 81.0204 403.319)" />
        <path
            d="M47.8644 71.9784C46.4903 70.3901 44.5267 69.5673 42.5383 68.9233 42.0825 68.7428 41.5942 68.6587 41.1043 68.676 40.667 68.7203 40.3883 69.0109 40.0879 69.3655 38.9645 70.5358 37.7686 71.6427 36.3074 72.3259 34.7529 73.0457 33.0062 73.239 31.332 72.8764 30.1071 72.6074 28.8701 71.8984 28.2302 70.875 27.6151 70.188 26.9593 69.2433 26.2602 69.0298 24.6869 68.5489 23.1569 69.1183 22.2341 69.4369 21.9878 69.5221 21.7497 69.6313 21.506 69.7393 20.2478 70.2912 19.0601 71.047 18.2922 72.0772 17.4155 73.263 16.6892 74.5529 16.1298 75.9174 15.9109 76.4233 12.4008 84.7143 11.8795 88.792 11.6884 90.2821 11.6636 91.815 12.1633 93.2493 12.6777 94.7791 13.8215 96.0161 15.3064 96.6484 16.9139 97.2975 18.8391 97.1293 20.4526 96.4782 20.2599 98.8244 19.7563 101.696 19.6141 103.101 21.7527 103.767 26.7148 104.349 32.7011 104.656L41.6884 98.6309C42.9118 99.1475 43.4829 99.1298 44.4984 99.1298 45.2197 99.0952 45.934 98.9717 46.6251 98.7622 48.6902 97.9182 50.17 95.9667 50.7786 93.8674 51.26 92.2056 51.3143 90.4544 51.3653 88.725 51.5483 82.5079 52.3315 76.9541 47.8644 71.9784"
            fill="#79C6E0" transform="matrix(-1.85036e-16 -1.00729 1 -1.83697e-16 81.0204 403.319)" />
        <path
            d="M45.1073 70.185C46.3204 69.6027 47.3555 68.1966 47.4511 67.3095 47.5756 66.2188 47.5057 65.1146 47.2446 64.0482 46.931 62.587 46.3808 59.628 46.9201 54.5234L46.9201 54.5234C47.1787 53.0574 47.3335 51.5749 47.3836 50.0871 47.5119 47.2201 46.564 43.8886 44.8651 41.8967 43.781 40.722 42.4805 39.7675 41.0349 39.0855 39.3843 38.2828 37.5962 37.8013 35.7657 37.6665 31.9344 37.3234 28.3801 38.9415 26.718 40.1593 23.4298 42.5646 21.2217 47.9886 21.7391 51.9515L21.7391 51.9515C22.009 56.5537 20.1165 61.3279 20.1404 65.1043 20.144 66.2369 20.5959 67.6373 22.0816 68.8401L25.0686 71.3919 28.1825 64.9017 36.1808 64.5739 43.6543 70.7364Z"
            fill="#B5886A" transform="matrix(-1.85036e-16 -1.00729 1 -1.83697e-16 81.0204 403.319)" />
        <path
            d="M27.4337 66.9443 27.8585 65.7876C27.1901 65.4673 26.5639 65.0653 25.9944 64.591 24.4265 68.8643 22.8586 73.1376 21.2907 77.4107 21.6133 77.4419 21.9339 77.4921 22.2507 77.5609 22.4501 77.6116 22.8604 77.7137 22.8604 77.7137 23.0504 77.7593 23.236 77.8219 23.4148 77.9007 24.7545 74.2477 26.0942 70.5956 27.4337 66.9443Z"
            fill="#FFFFFF" transform="matrix(-1.85036e-16 -1.00729 1 -1.83697e-16 81.0204 403.319)" />
        <path
            d="M42.5716 60.6564 42.6262 60.621C43.1357 60.2365 43.5755 59.7675 43.9266 59.2345 44.417 58.5429 44.6627 57.7075 44.6249 56.8605 44.6119 56.5284 44.5447 56.2007 44.4261 55.8902 44.2596 55.5298 43.939 55.2641 43.554 55.1672 43.1201 55.0542 42.7097 55.2557 42.2855 55.4247 40.2986 54.7061 39.2368 52.2454 38.9032 51.1668 38.6672 50.4036 38.2347 48.371 38.4064 47.0195 37.2369 48.5368 27.8482 50.6314 24.0762 50.6314L21.9663 52.0179C21.6686 54.1796 21.7505 56.3767 22.2085 58.5102 22.5112 59.8416 23.2797 61.2155 23.998 62.3306 25.9156 65.304 29.1902 67.0311 32.6917 66.5269 34.5609 66.2575 36.3024 65.7551 37.8485 64.6704 38.5987 64.1509 39.3077 63.5744 39.9693 62.946 40.3871 62.5542 40.9795 61.8943 41.2883 61.5279 41.8896 61.173 42.2527 60.8677 42.5716 60.6564Z"
            fill="#FFFFFF" transform="matrix(-1.85036e-16 -1.00729 1 -1.83697e-16 81.0204 403.319)" />
        <path
            d="M21.2571 52.0179C20.9884 54.0117 21.0318 56.0351 21.3857 58.0155 21.766 59.8787 22.5576 61.6335 23.7027 63.1516 25.6628 65.8554 28.8568 67.5948 32.2448 67.2871 34.3379 67.0971 36.4634 66.4844 38.204 65.281 38.5334 65.0774 38.6451 64.6512 38.458 64.3122 38.2583 63.9776 37.8274 63.8647 37.4892 64.0582 36.0456 65.003 34.4046 65.604 32.6923 65.815 31.2716 66.0353 29.8177 65.8572 28.4922 65.3005 27.1513 64.7168 25.979 63.8047 25.0837 62.6484 24.0261 61.3404 23.2669 59.8173 22.8593 58.1854 22.4409 56.1556 22.3777 54.0687 22.6725 52.0173 22.6706 51.6271 22.3547 51.3112 21.9645 51.3093 21.5775 51.3189 21.2661 51.6303 21.2565 52.0173Z"
            fill="#211715" transform="matrix(-1.85036e-16 -1.00729 1 -1.83697e-16 81.0204 403.319)" />
        <path
            d="M42.6014 56.054C42.9082 55.9301 43.2679 55.7295 43.575 55.9419 43.8074 56.1029 43.8222 56.269 43.8818 56.5581 43.9704 57.1145 43.904 57.6846 43.69 58.2058 43.1351 59.4723 42.0737 60.2325 40.9225 60.9199 40.1413 61.3869 40.8526 62.6118 41.6373 62.1427 43.1384 61.2456 44.6521 60.0461 45.1562 58.2902 45.4141 57.4438 45.3971 56.5375 45.1076 55.7014 44.9222 55.2191 44.5556 54.8284 44.0859 54.6128 43.4505 54.3219 42.8498 54.4358 42.2238 54.6878 41.8545 54.8016 41.6378 55.1835 41.7294 55.5589 41.8355 55.9343 42.2236 56.1546 42.6003 56.0534Z"
            fill="#211715" transform="matrix(-1.85036e-16 -1.00729 1 -1.83697e-16 81.0204 403.319)" />
        <path
            d="M45.8315 70.7393C46.9061 70.1637 47.6997 69.1752 48.0297 68.0016 48.4152 66.6797 48.2043 65.1787 47.9252 63.86 47.8689 63.593 47.814 63.326 47.765 63.0575 47.7383 62.9102 47.7129 62.7627 47.6889 62.615 47.6753 62.5295 47.6621 62.4442 47.6491 62.3587 47.6414 62.3064 47.6028 62.0297 47.6166 62.135 47.4934 61.1788 47.423 60.2165 47.406 59.2525 47.3816 57.6729 47.4555 56.0933 47.6273 54.5229L47.1074 55.2055 47.1074 55.2055C47.3489 55.141 47.5375 54.9523 47.6019 54.7108 47.8796 53.2342 48.0407 51.7381 48.0836 50.2363 48.1601 48.5681 47.9421 46.8993 47.4396 45.3067 46.9985 43.7673 46.2147 42.3477 45.1468 41.1544 44.0465 40.0141 42.7423 39.09 41.3016 38.43 38.0621 36.939 34.4517 36.4853 30.9827 37.424 29.4803 37.8183 28.0491 38.4463 26.7416 39.2849 25.5501 40.0925 24.5241 41.1206 23.7189 42.3138 21.8309 45.0188 20.6163 48.6324 21.0311 51.9515 21.0447 52.3462 21.3757 52.6552 21.7704 52.6416 22.0069 52.6335 22.224 52.5089 22.3504 52.3088L22.3504 52.3088 21.0308 51.9512C21.1686 54.4942 20.6768 56.9942 20.187 59.4761 19.951 60.6724 19.7212 61.8695 19.5675 63.0797 19.4094 64.0964 19.3918 65.1301 19.5153 66.1516 19.726 67.3837 20.3848 68.4943 21.365 69.2699 21.6458 69.5359 22.0856 69.5359 22.3663 69.2699 22.6397 68.9921 22.6397 68.5464 22.3663 68.2686 21.5903 67.681 21.0647 66.8221 20.8948 65.8637 20.8019 64.9555 20.8294 64.0391 20.9765 63.1381 21.265 60.7945 21.8825 58.5029 22.2085 56.1643 22.4226 54.7708 22.5017 53.3599 22.4445 51.9512 22.432 51.5568 22.1021 51.2472 21.7076 51.2598 21.47 51.2673 21.2516 51.3926 21.1252 51.594L21.1252 51.594 22.4445 51.9515C22.1026 49.2162 22.946 46.3596 24.3149 44.0063 25.5502 41.704 27.6336 39.9734 30.1233 39.1811 33.2264 38.0451 36.6371 38.0797 39.7165 39.2781 41.0737 39.7944 42.3313 40.5415 43.4337 41.4866 44.4549 42.375 45.2467 43.4967 45.7418 44.7565 46.3996 46.3769 46.7194 48.1147 46.6814 49.8631 46.6665 51.3643 46.5173 52.8612 46.2357 54.3358L46.7301 53.8414 46.7301 53.8414C46.4272 53.9322 46.2173 54.2079 46.2103 54.524 45.9375 56.8651 45.9116 59.2283 46.133 61.5748 46.3221 63.3475 46.9083 65.1102 46.7797 66.9004 46.7524 67.4109 46.6039 67.9076 46.3466 68.3495 46.0601 68.8514 45.632 69.2578 45.1158 69.5177 44.3016 69.9272 45.0179 71.1491 45.8306 70.7405Z"
            fill="#211715" transform="matrix(-1.85036e-16 -1.00729 1 -1.83697e-16 81.0204 403.319)" />
        <path
            d="M37.6656 47.3511C37.6027 48.9897 37.89 50.6228 38.5084 52.1415 39.1421 53.6694 40.1407 55.2211 41.6913 55.9395 42.0305 56.1254 42.4558 56.0139 42.6601 55.6855 42.854 55.3474 42.741 54.9162 42.4061 54.7167 41.1408 54.1305 40.2888 52.7991 39.8156 51.6229 39.2758 50.2657 39.0258 48.8106 39.0817 47.3511 39.1227 46.4398 37.7063 46.4419 37.6656 47.3511Z"
            fill="#211715" transform="matrix(-1.85036e-16 -1.00729 1 -1.83697e-16 81.0204 403.319)" />
        <path
            d="M37.6697 46.7484C37.8467 46.6098 37.6697 46.7452 37.6249 46.7747 37.573 46.8098 37.5196 46.8431 37.4659 46.8756 37.3284 46.9582 37.1865 47.0334 37.0428 47.1048 36.7352 47.2608 36.4177 47.3964 36.0923 47.5107 35.189 47.8509 34.2632 48.1273 33.3304 48.3786 31.2094 48.9537 29.0541 49.3932 26.8773 49.6947 25.949 49.8305 25.0128 49.9064 24.0747 49.9219 23.1634 49.9245 23.1617 51.3406 24.0747 51.3379 26.0929 51.332 28.1305 50.9671 30.1045 50.578 32.232 50.1905 34.3253 49.6344 36.3646 48.915 37.1895 48.6494 37.9676 48.2562 38.6707 47.7497 38.9449 47.4723 38.9449 47.0258 38.6707 46.7484 38.3903 46.4815 37.9498 46.4815 37.6694 46.7484Z"
            fill="#211715" transform="matrix(-1.85036e-16 -1.00729 1 -1.83697e-16 81.0204 403.319)" />
        <path
            d="M38.204 65.2816C39.4827 64.4021 40.6422 63.3609 41.6539 62.184 41.9308 61.9075 41.9312 61.4588 41.6547 61.1819 41.3783 60.9049 40.9296 60.9045 40.6526 61.181 40.2181 61.6907 39.7544 62.1748 39.264 62.6309 38.9721 62.8978 38.673 63.1562 38.3665 63.4059 38.2934 63.465 38.2198 63.524 38.1459 63.583 37.9889 63.7069 38.209 63.5372 38.1164 63.606 38.0745 63.6355 38.0335 63.6688 37.9919 63.6998 37.8271 63.8227 37.6599 63.9421 37.4904 64.0579 37.1527 64.2553 37.039 64.6891 37.2364 65.0267 37.4337 65.3644 37.8675 65.4781 38.2052 65.2807Z"
            fill="#211715" transform="matrix(-1.85036e-16 -1.00729 1 -1.83697e-16 81.0204 403.319)" />
        <path
            d="M32.3188 114.834 18.0184 114.834C18.0149 114.611 18.0114 114.386 18.0081 114.159 18.1437 111.174 18.5243 108.206 19.1462 105.284L19.5731 103.085C21.6783 103.757 26.641 104.343 32.6421 104.653 32.5415 107.853 32.5469 111.214 32.6775 114.237 32.686 114.443 32.7327 114.645 32.8153 114.834Z"
            fill="#FFFFFF" transform="matrix(-1.85036e-16 -1.00729 1 -1.83697e-16 81.0204 403.319)" />
        <path
            d="M21.0101 77.6765C20.5443 78.807 19.9186 79.8649 19.3675 80.9538 18.8185 82.0359 18.2314 83.2169 18.0695 84.4317 18.0207 84.9702 18.0535 85.5129 18.1668 86.0416 18.2736 86.6874 18.4028 87.3299 18.5306 87.9716 18.8412 89.5198 19.1731 91.0642 19.4669 92.6159 19.5324 92.9602 19.5956 93.3051 19.6543 93.6505 19.6783 93.7921 19.7014 93.9337 19.7236 94.0753 19.7345 94.1459 19.7448 94.2164 19.7554 94.2869 19.7599 94.3164 19.7637 94.3444 19.7678 94.373 19.7835 94.481 19.7469 94.2004 19.7678 94.3768 19.8306 95.0885 19.8207 95.8046 19.7383 96.5142 19.5613 98.6489 19.1725 100.756 18.9265 102.882 18.9289 103.272 19.2445 103.588 19.6345 103.59 20.0218 103.581 20.3336 103.27 20.3425 102.882 20.549 101.085 20.8821 99.1867 21.0768 97.332 21.2032 96.4727 21.2519 95.6039 21.2222 94.7359 21.1765 94.1521 21.0715 93.5691 20.9697 92.993 20.6989 91.4607 20.3723 89.9387 20.0611 88.4144 19.9177 87.7128 19.7749 87.011 19.6445 86.3071 19.595 86.0395 19.5469 85.7717 19.505 85.5029 19.4958 85.4439 19.4876 85.3867 19.4784 85.3286 19.4516 85.1604 19.4888 85.4312 19.4764 85.3156 19.4672 85.2303 19.4554 85.1451 19.4501 85.0592 19.4453 84.5654 19.5408 84.0757 19.7307 83.6199 19.9508 83.0133 20.2069 82.4205 20.4977 81.8445 21.1284 80.5806 21.8329 79.3605 22.3719 78.0521 22.4733 77.6753 22.253 77.287 21.8775 77.1809 21.5017 77.087 21.1183 77.3047 21.0066 77.6757Z"
            fill="#211715" transform="matrix(-1.85036e-16 -1.00729 1 -1.83697e-16 81.0204 403.319)" />
        <path
            d="M32.7011 103.948C30.0207 103.809 27.3399 103.617 24.6739 103.299 23.0177 103.102 21.3078 102.9 19.7136 102.386 18.8442 102.107 18.4719 103.474 19.3371 103.752 21.0151 104.292 22.8224 104.492 24.5647 104.702 27.2664 105.028 29.9841 105.223 32.7011 105.363 33.6121 105.41 33.6095 103.994 32.7011 103.947Z"
            fill="#211715" transform="matrix(-1.85036e-16 -1.00729 1 -1.83697e-16 81.0204 403.319)" />
        <path
            d="M18.4633 105.096C17.8438 108.289 17.2588 111.571 17.3104 114.834 17.3248 115.745 18.7409 115.747 18.7264 114.834 18.6766 111.693 19.2324 108.546 19.8286 105.473 19.9223 105.097 19.7048 104.714 19.3342 104.602 18.9576 104.501 18.5702 104.721 18.4633 105.096Z"
            fill="#211715" transform="matrix(-1.85036e-16 -1.00729 1 -1.83697e-16 81.0204 403.319)" />
        <path
            d="M12.3757 87.2449C12.6837 86.0717 13.2336 85.5395 14.1889 85.6814 14.9832 85.8092 15.5235 86.5568 15.3957 87.3511 15.3919 87.3743 15.3876 87.3975 15.3828 87.4205 15.1241 88.5749 15.3436 88.8619 15.4934 89.1062 15.8084 89.6085 16.3717 89.8998 16.9638 89.8664 17.5137 89.7846 17.9954 89.4544 18.2701 88.9711 18.8226 87.9064 18.8091 87.3264 19.4746 86.8591 19.8794 86.6307 20.3754 86.6363 20.775 86.8735 21.2773 87.1 21.5595 87.6406 21.4583 88.1822 21.3107 88.8132 20.2416 91.9229 18.4285 92.6584 16.6153 93.3939 14.8311 92.9788 13.4018 91.663 12.8292 91.1359 12.4114 90.065 12.3368 89.336 12.2117 88.1135 12.3076 87.5046 12.3757 87.2449Z"
            fill="#FFFFFF" transform="matrix(-1.85036e-16 -1.00729 1 -1.83697e-16 81.0204 403.319)" />
        <path
            d="M13.0584 87.4332C13.115 87.1927 13.2031 86.9608 13.3204 86.7434 13.3884 86.6158 13.488 86.5077 13.6095 86.4292 13.6642 86.3956 13.726 86.3754 13.79 86.3702 13.7163 86.3835 13.975 86.367 14.0089 86.3702 14.163 86.3823 14.3104 86.4379 14.434 86.5307 14.5582 86.6291 14.6438 86.7682 14.6756 86.9234 14.7157 87.0684 14.7142 87.2217 14.6712 87.3659 14.5326 87.8756 14.5194 88.4112 14.6326 88.9271 14.9287 89.8584 15.7637 90.5142 16.7387 90.5812 17.3711 90.5849 17.9796 90.3396 18.4326 89.8983 18.8066 89.4955 19.0889 89.0166 19.2601 88.4943 19.4103 88.1315 19.5295 87.6709 19.833 87.4689 20.1221 87.2765 20.585 87.4898 20.7337 87.7763 20.6962 87.7037 20.7895 88.0025 20.7679 87.8471 20.7735 87.8881 20.7679 88.0872 20.7783 87.9902 20.7889 87.8825 20.7635 88.043 20.757 88.0657 20.7411 88.122 20.7254 88.1786 20.7086 88.2347 20.6133 88.5466 20.5022 88.8534 20.3756 89.154 20.0575 89.9478 19.6124 90.6847 19.0577 91.3356 18.3445 92.0564 17.3413 92.4123 16.3333 92.302 15.0379 92.2103 13.8891 91.4365 13.3171 90.2706 13.0957 89.7178 12.9844 89.1272 12.9894 88.5318 12.9788 88.2708 12.984 88.0095 13.0047 87.7491 13.0082 87.7066 13.013 87.6645 13.0174 87.6223 13.028 87.5211 12.9905 87.7541 13.0174 87.6243 13.0312 87.5609 13.0422 87.4972 13.0581 87.4341 13.2817 86.549 11.9164 86.1732 11.6925 87.0576 11.4419 88.1677 11.4994 89.3251 11.8589 90.4048 12.0626 91.0656 12.4197 91.6689 12.9009 92.1654 13.4708 92.7037 14.141 93.1247 14.8733 93.4045 16.2469 93.9234 17.7775 93.8244 19.0728 93.1328 20.0558 92.5788 20.7514 91.5675 21.2597 90.5871 21.6518 89.8837 21.9494 89.1316 22.1447 88.3503 22.4424 86.937 21.0237 85.7542 19.6667 86.0268 19.0444 86.1936 18.5314 86.6334 18.2715 87.2228 18.1444 87.4827 18.0464 87.7565 17.9355 88.0235 17.8765 88.1633 17.8152 88.3008 17.7491 88.4365 17.7125 88.5116 17.6744 88.586 17.6349 88.6595 17.6228 88.682 17.5249 88.8162 17.5966 88.7256 17.3098 89.0879 16.844 89.3071 16.42 89.0448 16.286 88.9632 16.1721 88.8522 16.087 88.7203 16.061 88.6781 16.0386 88.6318 16.0115 88.5917 15.9359 88.4766 16.0469 88.7156 16.0215 88.6212 16.0079 88.5716 15.992 88.5226 15.9793 88.4737 15.9533 88.3743 15.987 88.5943 15.9793 88.4772 15.9738 88.4007 15.9721 88.324 15.9743 88.2474 15.9814 88.078 16.0029 87.9096 16.0383 87.7438 16.1186 87.403 16.1318 87.0498 16.0772 86.7039 15.9481 86.01 15.4843 85.4247 14.8382 85.1403 14.1919 84.8502 13.4455 84.8884 12.8321 85.243 12.1993 85.6489 11.8854 86.3546 11.6934 87.055 11.4518 87.9368 12.8174 88.3123 13.0584 87.4332Z"
            fill="#211715" transform="matrix(-1.85036e-16 -1.00729 1 -1.83697e-16 81.0204 403.319)" />
        <path
            d="M24.2821 77.5836 28.3987 66.3637C28.4993 65.9871 28.2792 65.5993 27.9043 65.4926 27.5282 65.397 27.1438 65.6152 27.0331 65.987 25.6609 69.727 24.2887 73.4669 22.9165 77.2069 22.8163 77.5835 23.0364 77.971 23.4112 78.0778 23.7871 78.1732 24.1714 77.955 24.2821 77.5833Z"
            fill="#211715" transform="matrix(-1.85036e-16 -1.00729 1 -1.83697e-16 81.0204 403.319)" />
        <path
            d="M21.9217 77.7385 26.3118 65.7728C26.4118 65.3964 26.1919 65.0093 25.8173 64.9025 25.4414 64.8071 25.0572 65.0253 24.9465 65.397L20.5561 77.3626C20.4559 77.7393 20.676 78.1267 21.0508 78.2335 21.4268 78.3289 21.811 78.1108 21.9217 77.7391Z"
            fill="#211715" transform="matrix(-1.85036e-16 -1.00729 1 -1.83697e-16 81.0204 403.319)" />
        <path
            d="M37.298 66.9921C37.7707 68.0502 38.4684 68.9925 39.3424 69.7534 39.6212 70.0277 40.0695 70.024 40.3437 69.7453 40.6148 69.4697 40.6148 69.0277 40.3437 68.7521 40.1402 68.5749 39.9461 68.3871 39.7622 68.1896 39.6732 68.0934 39.5864 67.995 39.502 67.8945 39.4602 67.8444 39.4191 67.7931 39.3778 67.742 39.2834 67.624 39.4478 67.8358 39.395 67.7642 39.3731 67.7347 39.351 67.7052 39.3295 67.6757 39.0095 67.2405 38.7383 66.7714 38.5208 66.277 38.4274 66.1178 38.2755 66.0013 38.0975 65.9525 37.9134 65.9035 37.7174 65.9292 37.552 66.0239 37.3934 66.1178 37.2771 66.2694 37.2275 66.4469 37.1879 66.6317 37.2132 66.8244 37.2989 66.9927Z"
            fill="#211715" transform="matrix(-1.85036e-16 -1.00729 1 -1.83697e-16 81.0204 403.319)" />
        <path
            d="M26.8289 70.3487C27.7052 72.0034 29.2734 73.1814 31.1066 73.562 33.3577 74.0307 35.7027 73.6109 37.6514 72.3905 38.7143 71.6755 39.69 70.8387 40.5585 69.8971 41.1916 69.2413 40.1915 68.2385 39.5572 68.8958 38.6949 69.8496 37.7052 70.6801 36.6162 71.3639 35.5617 71.9717 34.3706 72.3033 33.1537 72.328 32.1644 72.38 31.1765 72.2012 30.2682 71.8058 29.3161 71.3373 28.5395 70.5756 28.0526 69.6328 27.6184 68.8312 26.3953 69.5443 26.8301 70.3476Z"
            fill="#211715" transform="matrix(-1.85036e-16 -1.00729 1 -1.83697e-16 81.0204 403.319)" />
        <path
            d="M37.5871 56.8151C37.4211 57.2207 37.3504 57.6591 37.3806 58.0963 37.4204 58.5972 37.6251 59.0708 37.9627 59.4431 38.662 60.1927 39.8366 60.2335 40.5862 59.5341 40.6136 59.5085 40.6403 59.4821 40.6662 59.4549 40.941 59.1777 40.941 58.7308 40.6662 58.4536 40.3857 58.1868 39.9453 58.1868 39.6649 58.4536 39.5271 58.5716 39.7732 58.3828 39.6696 58.4536 39.6401 58.4745 39.6082 58.4967 39.5767 58.5167 39.5004 58.5651 39.4201 58.607 39.3368 58.6421L39.5062 58.5707C39.4222 58.6041 39.3347 58.6278 39.2454 58.6412L39.4336 58.6161C39.3714 58.6228 39.3087 58.6228 39.2466 58.6161L39.4348 58.6415C39.3044 58.6223 39.1771 58.5866 39.0557 58.5353L39.2247 58.6067C39.1533 58.5769 39.0843 58.5417 39.0182 58.5014 39.0008 58.4908 38.984 58.4795 38.9675 58.4678 39.0678 58.5483 39.097 58.5704 39.056 58.535 39.0318 58.507 39.0011 58.4831 38.9757 58.4559 38.9504 58.4288 38.9309 58.399 38.9055 58.3745 38.9793 58.4729 38.9951 58.4925 38.953 58.4335 38.94 58.4146 38.9274 58.3952 38.915 58.3745 38.8733 58.3071 38.8369 58.2366 38.8061 58.1636L38.8775 58.3326C38.8273 58.2069 38.7928 58.0754 38.7748 57.9412L38.8002 58.1294C38.7823 57.9653 38.7842 57.7997 38.8061 57.6361L38.7807 57.8243C38.8136 57.6073 38.8709 57.3948 38.9516 57.1906 39.0016 57.0066 38.9759 56.8101 38.8802 56.6452 38.6829 56.3075 38.2493 56.1937 37.9117 56.391 37.9116 56.391 37.9114 56.3911 37.9113 56.3912 37.7587 56.4917 37.6444 56.6407 37.5868 56.8142Z"
            fill="#211715" transform="matrix(-1.85036e-16 -1.00729 1 -1.83697e-16 81.0204 403.319)" />
        <path
            d="M39.2929 90.6809C37.3163 90.7615 34.9199 90.9624 34.7928 91.1034 34.6419 91.1413 34.4968 91.1996 34.3618 91.2769 34.0537 91.5029 33.818 91.8135 33.6832 92.1711 32.956 94.7047 32.5088 97.3105 32.3498 99.9417 32.0297 104.7 31.9632 109.472 32.1507 114.237 32.1909 115.143 32.9329 115.859 33.8396 115.867 40.2219 115.932 52.2209 115.08 57.0225 114.539 58.0675 114.424 58.842 113.515 58.7893 112.465 58.4146 105.409 57.18 96.8405 55.0872 92.9053 54.9338 92.6165 54.3016 91.6318 53.4351 91.4692 53.4351 91.4692 45.1096 90.2915 39.0651 90.6665"
            fill="#D9D9D9" transform="matrix(-1.85036e-16 -1.00729 1 -1.83697e-16 81.0204 403.319)" />
        <path
            d="M40.6104 111.787C40.2564 107.675 39.7581 103.572 39.02 99.5109 38.6589 97.5237 38.2394 95.5469 37.7476 93.588 37.5116 92.6496 37.3443 91.6999 36.6407 90.9836 35.9924 90.3249 34.9917 90.1627 34.1685 90.583 33.4239 90.927 33.0796 91.6914 32.869 92.4336 32.6182 93.3186 32.4162 94.2158 32.2495 95.1182 31.9076 97.0371 31.6841 98.9751 31.5801 100.921 31.3467 104.754 31.2818 108.603 31.3833 112.441 31.4055 113.285 31.3016 114.286 31.6308 115.078 31.934 115.814 32.5803 116.353 33.3584 116.52 34.0138 116.604 34.676 116.622 35.335 116.574 35.9947 116.568 36.6542 116.556 37.3137 116.539 40.3458 116.462 43.3761 116.304 46.403 116.114 49.2056 115.937 52.0082 115.73 54.8037 115.47 55.3259 115.421 55.8477 115.37 56.369 115.316 57.008 115.249 57.6485 115.21 58.2111 114.861 58.9181 114.423 59.386 113.686 59.4811 112.86 59.5764 112.055 59.4262 111.173 59.3664 110.367 59.1241 106.828 58.6635 103.308 57.9872 99.8269 57.6985 98.3304 57.3242 96.8517 56.8661 95.3982 56.5044 94.2804 56.11 93.0298 55.3967 92.0796 54.9798 91.4494 54.3514 90.989 53.6248 90.7815 52.7371 90.5827 52.3581 91.9474 53.2484 92.1469 54.2299 92.3669 54.6884 93.6019 55.0087 94.4022 55.4799 95.6166 55.8654 96.8625 56.1622 98.1309 56.895 101.248 57.411 104.412 57.7063 107.601 57.7919 108.441 57.8669 109.281 57.9314 110.123 57.9931 110.929 58.0904 111.753 58.0863 112.563 58.0833 113.071 57.7833 113.53 57.3193 113.737 56.8905 113.868 56.4446 113.936 55.9961 113.938 53.5791 114.183 51.1562 114.372 48.733 114.541 45.8501 114.744 42.9643 114.913 40.0767 115.03 38.7347 115.084 37.3921 115.127 36.0489 115.148 35.4731 115.157 34.8972 115.161 34.3213 115.16 33.8148 115.158 33.3286 115.168 33.0189 114.7 32.8818 114.441 32.8218 114.148 32.846 113.856 32.8283 113.406 32.8134 112.956 32.8014 112.506 32.7771 111.601 32.7627 110.695 32.7584 109.788 32.7489 107.993 32.7742 106.198 32.8342 104.404 32.9522 100.871 33.133 97.3169 33.96 93.8674 34.0544 93.474 34.1573 93.0829 34.2688 92.6941 34.2907 92.6195 34.316 92.5442 34.3352 92.4687 34.4113 92.1702 34.2792 92.5345 34.3874 92.3212 34.4493 92.1882 34.5334 92.0668 34.6361 91.9622 35.1376 91.4916 35.6639 91.8893 35.9289 92.3655 36.0773 92.7024 36.1837 93.0563 36.2454 93.4192 36.374 93.917 36.498 94.416 36.6174 94.9161 36.8351 95.8291 37.0383 96.7454 37.2269 97.665 37.9939 101.399 38.5362 105.176 38.9294 108.967 39.0278 109.906 39.1163 110.845 39.1949 111.785 39.2047 112.172 39.5161 112.483 39.903 112.493 40.2927 112.49 40.6079 112.175 40.611 111.785Z"
            fill="#211715" transform="matrix(-1.85036e-16 -1.00729 1 -1.83697e-16 81.0204 403.319)" />
        <path
            d="M51.6152 84.1158C52.4966 85.7281 53.1186 87.4691 53.4585 89.2749 53.5654 89.6496 53.9528 89.8696 54.3293 89.7694 54.7012 89.6589 54.9195 89.2745 54.8238 88.8985 54.4538 86.9734 53.7837 85.1184 52.838 83.4012 52.6407 83.0636 52.207 82.9498 51.8694 83.1471 51.5317 83.3444 51.4179 83.7781 51.6152 84.1158Z"
            fill="#211715" transform="matrix(-1.85036e-16 -1.00729 1 -1.83697e-16 81.0204 403.319)" />
        <path
            d="M51.3653 88.725C51.3143 90.4544 51.26 92.2062 50.7786 93.8674 50.17 95.9667 48.6893 97.9182 46.6251 98.7622 46.136 98.9622 44.678 98.9687 44.3104 98.9242 43.5676 98.8357 41.5134 98.3123 40.5957 95.384L40.9016 88.435Z"
            fill="#79C6E0" transform="matrix(-1.85036e-16 -1.00729 1 -1.83697e-16 81.0204 403.319)" />
        <path
            d="M36.6334 66.5938C36.4354 66.5348 35.9534 66.449 35.4681 66.2829 35.1173 66.1644 34.917 65.7956 35.0087 65.4368 35.3447 64.1093 36.1118 61.245 36.4605 59.9496 36.5583 59.5802 36.9316 59.3552 37.3039 59.441 38.697 59.759 40.667 60.2039 42.0613 60.5225 42.4412 60.6093 42.6802 60.9861 42.5967 61.3668 42.5501 61.5816 42.2837 62.7094 42.2368 62.8599Z"
            fill="#FFFFFF" transform="matrix(-1.85036e-16 -1.00729 1 -1.83697e-16 81.0204 403.319)" />
        <path
            d="M36.8216 65.9112C36.6065 65.8522 36.387 65.8076 36.1725 65.7519 35.9938 65.73 35.8198 65.6788 35.6577 65.6002 35.7032 65.6471 35.6964 65.6274 35.6967 65.6321 35.7132 65.4813 35.7492 65.3332 35.8038 65.1917 35.8628 64.9631 35.9223 64.7346 35.9823 64.5061 36.2389 63.5254 36.4986 62.5456 36.7614 61.5666 36.8739 61.1459 36.9867 60.7252 37.0998 60.3045 37.1116 60.2415 37.1293 60.1797 37.1529 60.1201 37.17 60.085 37.1431 60.1251 37.1104 60.1272 37.3839 60.1532 37.6532 60.2127 37.9122 60.3042 39.0592 60.5652 40.2064 60.8258 41.3538 61.086 41.5476 61.1119 41.7369 61.1642 41.9164 61.2414 41.8854 61.2226 41.9312 61.1565 41.894 61.2736 41.8645 61.3621 41.8509 61.4606 41.8294 61.5521 41.7409 61.925 41.6633 62.3032 41.5556 62.6711 41.2987 63.5473 42.6649 63.9216 42.9209 63.0475 43.1982 62.102 43.7018 60.7169 42.6958 60.0405 42.3965 59.8751 42.0691 59.7666 41.7303 59.7204L40.6479 59.4743 38.4571 58.9772C37.7786 58.8229 37.0269 58.5271 36.3832 58.9395 35.8227 59.2988 35.7256 59.9599 35.5663 60.5541 35.2471 61.7453 34.9305 62.9373 34.6167 64.1299 34.4565 64.7423 34.1429 65.4725 34.3706 66.0962 34.6937 66.9812 35.6598 67.0576 36.4466 67.2762 37.326 67.5211 37.701 66.1552 36.823 65.9106Z"
            fill="#211715" transform="matrix(-1.85036e-16 -1.00729 1 -1.83697e-16 81.0204 403.319)" />
        <path
            d="M36.0799 91.6601C37.319 91.5126 38.5701 91.4412 39.8162 91.3896 40.2073 91.3896 40.5243 91.0726 40.5243 90.6815 40.5243 90.2905 40.2073 89.9735 39.8162 89.9735 38.5701 90.0251 37.319 90.0956 36.0799 90.244 35.6929 90.2535 35.3814 90.565 35.3719 90.9521 35.3875 91.2978 35.6861 91.7073 36.0799 91.6601Z"
            fill="#211715" transform="matrix(-1.85036e-16 -1.00729 1 -1.83697e-16 81.0204 403.319)" />
        <path
            d="M90.0894 18.6618 85.9177 35.0152 85.0223 38.5315C84.7969 39.4147 86.1623 39.7917 86.3876 38.9079L90.4939 22.8112 91.4565 19.0383C91.6819 18.1532 90.3166 17.778 90.0909 18.6618Z"
            fill="#211715" transform="matrix(-1.85036e-16 -1.00729 1 -1.83697e-16 81.0204 403.319)" />
        <path
            d="M96.8458 19.3767 97.9025 30.7461 98.1329 33.2274C98.1432 33.6142 98.4542 33.9253 98.841 33.9355 99.2309 33.9327 99.5463 33.6173 99.549 33.2274L98.5091 22.0374 98.2619 19.3755C98.2516 18.9888 97.9406 18.6777 97.5538 18.6674 97.1639 18.6702 96.8485 18.9856 96.8458 19.3755Z"
            fill="#211715" transform="matrix(-1.85036e-16 -1.00729 1 -1.83697e-16 81.0204 403.319)" />
        <path
            d="M64.2597 2.46689 78.5362 5.1158 81.6297 5.68959C82.0054 5.78259 82.3883 5.5652 82.5009 5.19486 82.6011 4.81822 82.381 4.43077 82.0061 4.32398L67.9538 1.71697 64.637 1.10157C64.2614 1.00841 63.8786 1.22573 63.7662 1.59601 63.6658 1.97258 63.8858 2.36011 64.2606 2.46689Z"
            fill="#211715" transform="matrix(-1.85036e-16 -1.00729 1 -1.83697e-16 81.0204 403.319)" />
        <path
            d="M62.3613 18.2223 78.7681 13.1434 82.3622 12.0309C83.2301 11.7621 82.8599 10.3947 81.9858 10.6653L65.8398 15.6633 61.9849 16.8567C61.117 17.1254 61.4872 18.4928 62.3613 18.2223Z"
            fill="#211715" transform="matrix(-1.85036e-16 -1.00729 1 -1.83697e-16 81.0204 403.319)" />
        <path
            d="M71.6011 31.9179 83.4744 19.6065 86.036 16.9514C86.6688 16.295 85.6687 15.2925 85.0347 15.9483L73.3484 28.0665 70.5998 30.9166C69.9667 31.5727 70.9668 32.5752 71.6011 31.9179Z"
            fill="#211715" transform="matrix(-1.85036e-16 -1.00729 1 -1.83697e-16 81.0204 403.319)" />
        <path
            d="M95.8734 0.171992C94.2985-0.175986 92.6532-0.00587293 91.1828 0.656991 89.8351 1.29016 88.7221 2.33302 88.0025 3.63661 86.5511 6.26221 86.7251 9.70352 88.6811 12.02 90.5591 14.2452 94.0155 15.1406 96.7644 14.2325 99.6399 13.2835 101.418 10.4564 101.57 7.4986 101.653 5.86767 101.172 4.25777 100.209 2.93949 99.1439 1.52406 97.6039 0.540593 95.872 0.169926 94.984-0.0271411 94.6034 1.33758 95.4955 1.53554 97.9258 2.07511 99.8897 3.98679 100.132 6.52949 100.356 8.88221 99.2416 11.432 97.119 12.5548 95.0663 13.6407 92.1646 13.2333 90.3889 11.7288 88.4828 10.1103 88.0317 7.46674 88.8533 5.1627 89.8537 2.4664 92.6883 0.919742 95.497 1.5376 96.3862 1.72139 96.7667 0.356669 95.8734 0.171992Z"
            fill="#211715" transform="matrix(-1.85036e-16 -1.00729 1 -1.83697e-16 81.0204 403.319)" />
        <path
            d="M39.9127 95.3976C40.3673 96.7154 41.0214 98.0028 42.1864 98.8253 42.9389 99.3443 43.8246 99.6365 44.7382 99.6673 45.344 99.6904 45.9503 99.6416 46.5446 99.5219 47.2124 99.3371 47.835 99.0169 48.3736 98.5811 49.6132 97.6406 50.5735 96.3807 51.1518 94.9362 51.8388 93.2694 51.9778 91.4211 52.0448 89.6378 52.1061 88.0102 52.1731 86.3817 52.2188 84.7539 52.3008 81.8277 52.2215 78.8073 51.1677 76.0386 50.8706 75.2481 50.5031 74.4859 50.0697 73.7611 49.5955 72.9344 49.0235 72.1677 48.366 71.4778 47.4901 70.6084 46.2469 69.8319 45.0241 69.6254 44.6486 69.5332 44.2664 69.7501 44.1532 70.1198 44.0525 70.4965 44.2726 70.8843 44.6476 70.991 46.995 71.3872 48.5391 73.652 49.4858 75.6725 50.6151 78.0801 50.8379 80.7727 50.8255 83.3962 50.8187 84.817 50.7473 86.2363 50.6936 87.6556 50.6314 89.2994 50.655 90.9671 50.3523 92.59 50.1329 93.9745 49.5553 95.2775 48.6769 96.3699 48.268 96.8627 47.7872 97.2912 47.2508 97.6409 46.8264 97.9351 46.3407 98.1292 45.8303 98.2085 45.5336 98.238 45.2344 98.2527 44.9362 98.2533 44.812 98.2533 44.6883 98.2489 44.5642 98.2445 44.5553 98.2445 44.3576 98.2235 44.4919 98.2421 44.6081 98.2583 44.4441 98.23 44.4181 98.2238 44.2211 98.1775 44.0246 98.1312 43.8313 98.0698 43.7346 98.0391 43.6389 98.0053 43.5443 97.9683 43.4174 97.9191 43.5148 97.9556 43.5399 97.9683 43.4809 97.9418 43.4219 97.9143 43.3658 97.8851 42.9252 97.6712 42.5434 97.3531 42.2533 96.9585 41.8259 96.3702 41.4971 95.7163 41.2798 95.0223 40.9848 94.1668 39.6159 94.5338 39.9142 95.3988Z"
            fill="#211715" transform="matrix(-1.85036e-16 -1.00729 1 -1.83697e-16 81.0204 403.319)" />
        <path
            d="M20.2632 95.7959C18.7943 96.3753 17.1151 96.5903 15.6099 96.0106 14.3744 95.4979 13.4019 94.5028 12.9177 93.2558 12.6165 92.4613 12.4622 91.6186 12.4625 90.7689 12.4568 90.3356 12.4737 89.9023 12.5132 89.4708 12.5315 89.2667 12.5534 89.0627 12.579 88.8589 12.5799 88.8312 12.5836 88.8036 12.5899 88.7766 12.6002 88.707 12.6112 88.6371 12.6224 88.5675 12.8112 87.4989 13.0674 86.4433 13.3894 85.407 14.0594 83.1472 14.8763 80.9302 15.7389 78.7377 16.0179 78.0283 16.3038 77.3216 16.5965 76.6177 16.626 76.5472 16.7735 76.1985 16.6584 76.4702 16.6835 76.4112 16.7083 76.3522 16.7334 76.2932 17.0236 75.6054 17.3498 74.9332 17.7104 74.2795 18.3715 73.0938 19.1188 71.9663 20.2697 71.2055 21.4111 70.4694 22.6986 69.9898 24.0434 69.7997 24.4185 69.6931 24.6386 69.3053 24.5379 68.9286 24.4267 68.5573 24.0428 68.3394 23.667 68.4341 22.3831 68.6344 21.1453 69.063 20.0124 69.6994 19.2918 70.1031 18.6391 70.6176 18.0783 71.2241 17.685 71.6816 17.3287 72.1698 17.0127 72.6838 15.989 74.283 15.2887 76.0599 14.5877 77.817 13.6764 80.1009 12.815 82.4109 12.1023 84.7651 11.2833 87.4695 10.5346 90.5305 11.4352 93.3065 11.9583 94.9938 13.1535 96.3909 14.7394 97.1688 16.5929 98.0244 18.7689 97.899 20.6396 97.1612 21.0092 97.0478 21.2261 96.6657 21.134 96.2903 21.0279 95.9149 20.6399 95.6945 20.2632 95.7956Z"
            fill="#211715" transform="matrix(-1.85036e-16 -1.00729 1 -1.83697e-16 81.0204 403.319)" />
        <path
            d="M35.8492 90.9226C36.3226 86.8684 37.4715 82.9221 39.2483 79.2475 39.4347 78.9084 39.3231 78.4827 38.9943 78.2787 38.6563 78.0848 38.2252 78.1979 38.0258 78.5327 36.1414 82.4319 34.9268 86.6206 34.4332 90.9231 34.4356 91.3132 34.7512 91.6288 35.1412 91.6312 35.5287 91.6227 35.8408 91.3106 35.8492 90.9231Z"
            fill="#211715" transform="matrix(-1.85036e-16 -1.00729 1 -1.83697e-16 81.0204 403.319)" />
        <path
            d="M21.7409 77.465C21.9114 77.4916 22.0813 77.523 22.2507 77.5594 22.4501 77.6102 22.8604 77.7122 22.8604 77.7122 23.5685 77.8892 24.0883 78.2011 24.2685 78.8103 24.4393 79.4028 24.199 80.037 23.6785 80.3676 24.3494 80.5137 24.7361 80.9305 24.6816 81.5441 24.627 82.1578 24.224 82.7643 23.6564 82.805 24.0104 83.0207 24.1319 83.6328 23.998 84.0072 23.8641 84.3816 23.4251 84.9666 22.9481 84.9442 23.3879 85.1866 23.2587 85.9472 22.854 86.3584 22.4492 86.7697 21.8046 86.7535 21.2335 86.6785 20.6623 86.6036 19.6619 86.3573 19.2309 86.4334L19.0082 86.4729C18.1335 87.1113 17.0272 87.0629 15.9943 86.7033 15.2456 86.4422 15.7147 82.5315 15.9129 81.7893 16.3398 80.193 16.7463 79.1534 18.0529 78.1645 19.1049 77.3688 20.4349 77.2635 21.7409 77.465Z"
            fill="#FFFFFF" transform="matrix(-1.85036e-16 -1.00729 1 -1.83697e-16 81.0204 403.319)" />
        <path
            d="M18.717 85.8147C18.1025 86.2533 17.3171 86.3762 16.5979 86.1463 16.4979 86.1204 16.4 86.0891 16.3012 86.0602 16.038 85.9835 16.2486 86.0363 16.2991 86.0661 16.4428 86.1505 16.3501 86.072 16.4383 86.2009 16.4277 86.1771 16.4148 86.1543 16.3997 86.133 16.4764 86.1826 16.4377 86.2652 16.405 86.1354 16.3967 86.1027 16.3858 86.0705 16.3776 86.0378 16.3661 85.9932 16.3569 85.9493 16.3481 85.9032 16.3416 85.8711 16.3138 85.6584 16.3324 85.8195 16.2485 84.7939 16.2902 83.762 16.4566 82.7466 16.4389 82.8797 16.4788 82.5991 16.4861 82.5516 16.5 82.4631 16.5156 82.3725 16.531 82.2837 16.5676 82.0852 16.6195 81.8929 16.6726 81.6984 16.8283 81.0538 17.0762 80.435 17.4086 79.8611 17.7586 79.3049 18.2392 78.8426 18.8085 78.5144 19.4633 78.1757 20.2005 78.0289 20.9352 78.0907 21.6742 78.1082 22.4044 78.2555 23.0923 78.5259 23.6098 78.7536 23.8372 79.3664 23.3218 79.7561 22.8711 80.0974 22.8436 80.8922 23.4912 81.0503 23.6364 81.0759 23.774 81.1341 23.8936 81.2205 23.9604 81.2762 23.9929 81.363 23.9791 81.4488 23.9774 81.6126 23.8508 82.0722 23.657 82.0979 23.2623 82.1115 22.9533 82.4425 22.9669 82.8372 22.9751 83.0737 23.0997 83.2908 23.2997 83.4172 23.3587 83.4585 23.3357 83.7682 23.3195 83.8098 23.2788 83.9143 23.0602 84.2335 22.9487 84.237 22.5545 84.2485 22.2443 84.5772 22.2557 84.9714 22.2627 85.2102 22.3887 85.4298 22.5914 85.5563 22.5737 85.5445 22.4952 85.4088 22.5129 85.4123 22.5424 85.4171 22.5017 85.5846 22.5017 85.5843 22.4778 85.6873 22.4269 85.782 22.3542 85.8587 22.1273 86.0832 21.6801 86.0218 21.3969 85.9903 20.6909 85.9124 19.9463 85.6306 19.2318 85.7262 18.846 85.7385 18.536 86.0484 18.5238 86.4342 18.5238 86.7774 18.8501 87.1936 19.2318 87.1423 19.7199 87.1235 20.2081 87.178 20.68 87.3039 21.294 87.4576 21.9353 87.4659 22.553 87.3281 23.7611 86.9591 24.5435 85.1533 23.3062 84.3335L22.9489 85.6531C24.6432 85.6014 25.3913 83.175 24.0145 82.1946L23.6573 83.5139C24.6402 83.3725 25.3748 82.538 25.3905 81.545 25.4571 80.5871 24.7476 79.9006 23.8679 79.6865L24.037 80.9807C24.9002 80.3275 25.3055 79.2964 24.8122 78.2719 24.4252 77.4691 23.5815 77.165 22.7767 76.9632 21.8335 76.7027 20.8499 76.6213 19.8767 76.7231 18.8454 76.8549 17.8822 77.3092 17.1245 78.0211 15.9991 79.0486 15.3866 80.5818 15.1403 82.0628 14.8907 83.3204 14.8184 84.6067 14.9255 85.8844 14.9482 86.219 15.0341 86.5464 15.1786 86.849 15.3662 87.1682 15.6813 87.3918 16.0445 87.4636 17.1785 87.8008 18.4539 87.7618 19.4333 87.0384 19.7612 86.8339 19.8727 86.4091 19.6873 86.0699 19.4881 85.7346 19.0566 85.6215 18.7185 85.8159Z"
            fill="#211715" transform="matrix(-1.85036e-16 -1.00729 1 -1.83697e-16 81.0204 403.319)" />
        <path
            d="M23.8664 79.6847C23.4133 79.5562 22.9536 79.4519 22.4893 79.3723 21.9832 79.2581 21.4641 79.2122 20.9458 79.2357 20.759 79.2409 20.5806 79.3144 20.4443 79.4422 20.1673 79.7182 20.1665 80.1665 20.4426 80.4435 20.5758 80.5772 20.757 80.6522 20.9458 80.6517 21.1522 80.6352 21.3596 80.6384 21.5653 80.6612 21.62 80.6663 21.6745 80.672 21.7288 80.6783L21.822 80.6895C21.9444 80.7042 21.6775 80.6688 21.7665 80.6821 21.8961 80.7016 22.0253 80.7217 22.1542 80.7447 22.6052 80.8233 23.0519 80.9254 23.4924 81.0503 23.8695 81.1543 24.2594 80.9328 24.3634 80.5557 24.4673 80.1786 24.2459 79.7886 23.8688 79.6847Z"
            fill="#211715" transform="matrix(-1.85036e-16 -1.00729 1 -1.83697e-16 81.0204 403.319)" />
        <path
            d="M23.6396 82.1283C23.1555 81.9556 22.6591 81.8199 22.1545 81.7223 21.6391 81.6037 21.1102 81.5541 20.5818 81.5748 20.1907 81.5748 19.8737 81.8918 19.8737 82.2829 19.8737 82.6739 20.1907 82.9909 20.5818 82.9909 20.7954 82.9769 21.0099 82.981 21.2228 83.0033 21.2795 83.0086 21.3355 83.0154 21.3919 83.0216 21.4898 83.0328 21.3624 83.0189 21.3329 83.0136 21.3689 83.0204 21.406 83.0242 21.4426 83.0298 21.5699 83.0495 21.6965 83.0721 21.8226 83.0977 22.3117 83.1945 22.793 83.3272 23.2625 83.4948 23.6393 83.5963 24.0276 83.3759 24.1334 83.0003 24.2271 82.6246 24.0096 82.2414 23.639 82.1292Z"
            fill="#211715" transform="matrix(-1.85036e-16 -1.00729 1 -1.83697e-16 81.0204 403.319)" />
        <path
            d="M22.8997 84.0963C22.5215 84.011 22.1442 83.9208 21.7621 83.8529 21.3375 83.7617 20.9034 83.7229 20.4694 83.7373 20.2824 83.7415 20.1036 83.8151 19.9679 83.9438 19.6909 84.2198 19.6901 84.6681 19.9661 84.9451 20.0994 85.0788 20.2806 85.1538 20.4694 85.1533 20.724 85.14 20.9793 85.1522 21.2314 85.1899L21.0432 85.1645C21.5423 85.2327 22.0321 85.3513 22.5232 85.4616 22.9003 85.5656 23.2902 85.3442 23.3941 84.9672 23.4981 84.5901 23.2767 84.2002 22.8997 84.0963Z"
            fill="#211715" transform="matrix(-1.85036e-16 -1.00729 1 -1.83697e-16 81.0204 403.319)" />
        <path
            d="M38.9306 77.0402C39.3832 78.8566 39.3781 82.926 39.4215 85.5312 39.4534 87.4352 39.2531 89.4637 39.5345 91.3468 39.8159 93.2298 40.8157 95.1347 42.6646 96.0139 44.5134 96.893 46.9422 96.3812 47.7388 94.6049 48.2185 93.5381 48.2993 91.8383 48.0928 90.7131 47.2077 85.8891 45.0486 78.8498 43.4856 74.05 43.857 72.1291 43.8691 70.2402 44.0213 68.4554 44.1886 66.472 43.7824 65.9183 42.2554 64.337 41.9872 62.9419 41.6553 61.7014 41.0293 61.4081 40.4839 61.1173 39.8085 61.2581 39.4248 61.7427 39.0058 61.5489 38.1724 61.6686 37.8851 62.0424 37.6343 62.3687 37.4721 63.0092 37.3629 64.8185 37.3052 64.6581 37.1605 64.5452 36.9909 64.5282 36.7223 64.4709 36.4458 64.5812 36.2903 64.8075 36.0121 65.148 35.8492 67.2027 35.9362 67.8863 36.0026 68.4085 36.3212 71.0886 36.485 71.8663 36.6885 72.8348 37.3564 73.6069 37.9214 74.5214Z"
            fill="#FFFFFF" transform="matrix(-1.85036e-16 -1.00729 1 -1.83697e-16 81.0204 403.319)" />
        <path
            d="M43.0083 74.8739C44.0299 78.0326 45.0235 81.2022 45.8994 84.4055 46.3145 85.9254 46.7039 87.4535 47.0352 88.9941 47.3696 90.3091 47.4899 91.6694 47.3915 93.0228 47.2788 94.1686 46.8564 95.1504 45.6772 95.5448 44.5083 95.9172 43.2311 95.6948 42.2569 94.9492 39.5454 92.9304 40.126 89.0109 40.1328 86.0799 40.1372 84.46 40.1033 82.8348 40.0458 81.2164 39.9944 79.7708 39.9572 78.2663 39.613 76.8535 39.3982 75.9684 38.0323 76.3431 38.2477 77.2299 38.5486 78.471 38.5769 79.7965 38.6256 81.1037 38.6819 82.6245 38.6987 84.1473 38.7141 85.669 38.7504 89.0616 38.1521 93.0517 40.8933 95.6436 41.9948 96.7139 43.5075 97.2516 45.0373 97.1166 46.4404 96.9659 47.7972 96.2266 48.3816 94.8893 48.966 93.552 48.9468 91.8787 48.7507 90.4553 48.5005 88.9004 48.1637 87.3606 47.7417 85.8433 46.7682 82.0197 45.5861 78.2506 44.3724 74.4975 44.093 73.6337 42.7253 74.0033 43.0068 74.8739Z"
            fill="#211715" transform="matrix(-1.85036e-16 -1.00729 1 -1.83697e-16 81.0204 403.319)" />
        <path
            d="M43.2109 66.2425C42.9395 64.8418 42.7425 63.3682 42.22 62.0327 42.0102 61.4963 41.7518 60.9535 41.2034 60.6948 40.4077 60.3403 39.4732 60.5648 38.9253 61.242L39.6142 61.0597C38.7504 60.7078 37.6744 61.2789 37.2302 62.0256 36.8027 62.7436 36.7378 63.6532 36.6782 64.4644 36.6816 64.8541 36.9966 65.1691 37.3862 65.1725 37.7742 65.1651 38.0869 64.8524 38.0943 64.4644 38.1117 64.2284 38.1302 63.9904 38.163 63.7564 38.1479 63.8635 38.1872 63.6133 38.1925 63.5897 38.2066 63.5089 38.2227 63.4285 38.2406 63.3484 38.2689 63.2182 38.3046 63.0896 38.3474 62.9634 38.3565 62.9369 38.366 62.9106 38.3769 62.8847 38.4046 62.8143 38.3954 62.835 38.3491 62.9469 38.3716 62.9069 38.3913 62.8654 38.4081 62.8227 38.4447 62.7534 38.4872 62.6888 38.5306 62.6233 38.579 62.5498 38.6259 62.5675 38.5176 62.6395 38.5441 62.6094 38.5725 62.5811 38.6026 62.5545 38.5402 62.5988 38.5434 62.5972 38.612 62.5498 38.6344 62.5365 38.8616 62.4191 38.7448 62.4675 38.8303 62.4351 38.9182 62.4091 39.0076 62.3896 39.0928 62.3741 39.0957 62.3741 39.0165 62.3896 39.0586 62.3873 39.1009 62.3873 39.143 62.3896 38.9899 62.3896 39.1852 62.407 39.2386 62.4289 39.4843 62.5023 39.7504 62.432 39.9277 62.2468 39.975 62.1896 40.0248 62.1368 40.0753 62.084 40.1697 61.9884 40.0514 62.0796 40.1596 62.022 40.1711 62.0159 40.3573 61.9353 40.2416 61.9748 40.3056 61.9515 40.3717 61.9347 40.439 61.9247 40.2915 61.9421 40.5045 61.9368 40.5184 61.938 40.3785 61.925 40.5712 61.9595 40.5933 61.9675 40.4608 61.9173 40.6898 62.0135 40.6726 62.0226L40.5803 61.9518C40.598 61.9669 40.6145 61.9828 40.6308 61.9996 40.6308 62.0061 40.7579 62.2103 40.6181 61.9754 40.6402 62.0126 40.6668 62.0474 40.6895 62.0843 40.7364 62.1616 40.7756 62.2427 40.8157 62.3235 40.8851 62.4637 40.8104 62.3023 40.8326 62.3578 40.8547 62.4132 40.8762 62.4693 40.8969 62.5253 40.9414 62.6475 40.9824 62.7708 41.0208 62.8947 41.3634 64.1212 41.6385 65.3656 41.845 66.6222 41.9521 66.9968 42.3394 67.2167 42.7159 67.1166 43.0879 67.0063 43.3062 66.6217 43.2103 66.2457Z"
            fill="#211715" transform="matrix(-1.85036e-16 -1.00729 1 -1.83697e-16 81.0204 403.319)" />
        <path
            d="M44.0806 74.6674C44.5199 72.6433 44.56 70.5774 44.7249 68.5212 44.8244 67.7801 44.768 67.0265 44.5594 66.3086 44.2801 65.6133 43.864 64.9813 43.3357 64.45 42.7227 63.7715 41.7238 64.7769 42.3345 65.4513 42.724 65.8338 43.0297 66.2931 43.2322 66.8001 43.4228 67.4246 43.3393 68.1108 43.2882 68.7852 43.1487 70.6287 43.1089 72.479 42.7153 74.2925 42.5224 75.1807 43.8871 75.561 44.0806 74.6689Z"
            fill="#211715" transform="matrix(-1.85036e-16 -1.00729 1 -1.83697e-16 81.0204 403.319)" />
        <path
            d="M38.6132 67.4691C38.5093 66.7694 38.4205 66.0675 38.3288 65.366 38.3178 65.0711 38.2476 64.7815 38.1223 64.5143 37.8584 64.081 37.3888 63.8153 36.8815 63.8122 35.3244 63.7983 35.2795 65.7298 35.2208 66.8467 35.214 67.8455 35.2982 68.8428 35.4725 69.8263 35.62 70.9574 35.7215 72.0462 36.1908 73.0947 36.777 74.3492 37.4454 75.5635 38.1916 76.7299 38.6698 77.5037 39.8953 76.7933 39.4144 76.0153 38.8439 75.0919 38.2984 74.1491 37.8028 73.1832 37.5784 72.7767 37.3879 72.3524 37.2331 71.9147 37.1312 71.5435 37.0598 71.1646 37.0198 70.7818 36.8847 69.8549 36.7646 68.9038 36.6531 67.9521 36.57 67.049 36.6385 66.1385 36.8558 65.258 36.8667 65.2096 36.9248 65.0961 36.8458 65.2607 36.8938 65.1604 36.849 65.2427 36.849 65.2424 36.8826 65.2719 36.8823 65.1309 36.8959 65.2017 36.9136 65.2961 36.8407 65.1203 36.9136 65.2356 36.8694 65.1657 36.908 65.2984 36.9071 65.3324 36.9071 65.3392 36.9319 65.5094 36.9169 65.4014 36.9036 65.3014 36.9298 65.5038 36.9328 65.5265 37.0319 66.3003 37.1328 67.0732 37.2473 67.8447 37.3532 68.2202 37.7414 68.4407 38.1181 68.3394 38.489 68.2274 38.7066 67.8441 38.6126 67.4683Z"
            fill="#211715" transform="matrix(-1.85036e-16 -1.00729 1 -1.83697e-16 81.0204 403.319)" />
        <path
            d="M38.7005 62.1701C38.8864 63.7116 39.0631 65.2542 39.2492 66.7959 39.2587 67.183 39.5702 67.4945 39.9572 67.504 40.3027 67.4883 40.7128 67.1898 40.6653 66.7959 40.4791 65.2542 40.3024 63.7116 40.1166 62.1701 40.1071 61.7831 39.7956 61.4716 39.4085 61.4621 39.0631 61.4775 38.6533 61.7763 38.7005 62.1701Z"
            fill="#211715" transform="matrix(-1.85036e-16 -1.00729 1 -1.83697e-16 81.0204 403.319)" />
        <path
            d="M29.0291 57.2128C28.9256 57.4933 28.8306 57.7771 28.7515 58.0654 28.6983 58.2514 28.6894 58.4473 28.7256 58.6374 28.7447 58.7266 28.7789 58.8119 28.8268 58.8896 28.9077 59.0184 29.0192 59.1252 29.1513 59.2006 29.3198 59.3004 29.5105 59.3569 29.7062 59.3652 29.7684 59.3657 29.8307 59.3629 29.8926 59.3566 30.0799 59.3538 30.2592 59.28 30.3942 59.1501 30.6711 58.8741 30.6719 58.4258 30.3959 58.1488 30.2626 58.0151 30.0814 57.9401 29.8926 57.9406 29.8259 57.9478 29.7588 57.9502 29.6917 57.9476L29.8799 57.973C29.8418 57.9676 29.8045 57.9577 29.7687 57.9435L29.9381 58.0149C29.8994 57.9975 29.8623 57.9766 29.8274 57.9524L29.9705 58.063C29.9587 58.0538 29.948 58.0432 29.9387 58.0314L30.0493 58.1748C30.0436 58.1669 30.0387 58.1585 30.0345 58.1497L30.1059 58.3188C30.0985 58.2998 30.0934 58.28 30.0906 58.2598L30.116 58.448C30.1134 58.4211 30.1134 58.394 30.116 58.3671L30.0909 58.5554C30.1229 58.3852 30.1698 58.2182 30.231 58.0562 30.2823 57.8993 30.3357 57.7432 30.393 57.588 30.496 57.2108 30.2736 56.8215 29.8964 56.7185 29.7132 56.6685 29.5177 56.6942 29.3536 56.7897L29.2106 56.9004C29.1239 56.987 29.0612 57.0946 29.0285 57.2128Z"
            fill="#211715" transform="matrix(-1.85036e-16 -1.00729 1 -1.83697e-16 81.0204 403.319)" />
        <path
            d="M35.9197 55.5336C36.0339 56.0917 35.8044 57.3284 34.7671 57.3349 33.4101 57.1951 33.4841 55.6805 34.0098 55.0158 34.4402 54.4715 35.5639 54.337 35.9197 55.5336Z"
            fill="#211715" transform="matrix(-1.85036e-16 -1.00729 1 -1.83697e-16 81.0204 403.319)" />
        <path
            d="M27.4611 54.3753C27.5859 54.9134 27.4269 56.1268 26.4929 56.1802 25.2657 56.1056 25.2733 54.6285 25.7212 53.9582 26.0876 53.4092 27.0942 53.2275 27.4611 54.3753Z"
            fill="#211715" transform="matrix(-1.85036e-16 -1.00729 1 -1.83697e-16 81.0204 403.319)" />
        <path
            d="M28.4612 62.3412C28.6382 62.3067 28.8153 62.2719 28.9923 62.2415 29.0589 62.2303 29.1253 62.22 29.192 62.2094 29.2769 62.1973 29.2805 62.1964 29.2038 62.2073 29.2483 62.202 29.2923 62.197 29.3374 62.1926 29.4929 62.1767 29.649 62.1686 29.8053 62.1684 29.8938 62.1684 29.9838 62.1719 30.0729 62.1787 30.1127 62.1816 30.1522 62.1855 30.1909 62.1902 30.0983 62.1768 30.0786 62.1745 30.1319 62.1831 30.2613 62.2068 30.3893 62.2374 30.5154 62.2749 30.5219 62.2769 30.6653 62.3244 30.6644 62.3274 30.5765 62.289 30.5683 62.286 30.6399 62.3182 30.6715 62.333 30.7024 62.3477 30.7334 62.3648 30.7948 62.3973 30.8544 62.4327 30.9122 62.4711L30.955 62.5006C31.0177 62.5462 31.0109 62.5407 30.9346 62.484 30.9842 62.4994 31.05 62.5879 31.0854 62.6248 31.109 62.6498 31.132 62.6758 31.1541 62.702 31.0975 62.6261 31.092 62.6198 31.1376 62.6832 31.335 63.0208 31.7687 63.1344 32.1063 62.937 32.4438 62.7396 32.5575 62.306 32.3601 61.9684 31.9333 61.3664 31.287 60.9565 30.5605 60.827 29.7333 60.7195 28.8932 60.7702 28.0848 60.9762 27.7091 61.0819 27.4885 61.4703 27.5901 61.8471 27.7021 62.2179 28.0854 62.4355 28.4612 62.3415Z"
            fill="#211715" transform="matrix(-1.85036e-16 -1.00729 1 -1.83697e-16 81.0204 403.319)" />
        <path
            d="M4.98569 33.9423C3.08641 34.3942 1.34997 34.8863 0.517155 35.2728 7.70581 38.7713 15.517 40.8093 23.4986 41.2689 27.7343 44.9373 43.7467 51.8191 51.8905 52.6708 56.3841 58.1825 61.9229 63.8405 67.0201 68.9147 66.8847 63.9836 63.2803 53.9417 62.6038 52.523 61.7807 50.7969 57.311 45.2796 53.9514 42.4631 51.8778 40.7225 44.8491 36.9068 42.492 36.0126 42.492 36.0126 42.1908 35.8985 41.7937 35.7471 38.571 34.3034 30.285 32.5946 26.8036 32.4657 20.2198 32.2218 12.8988 32.6212 11.64 32.7191 10.2688 32.8248 7.48651 33.3472 4.98569 33.9423Z"
            fill="#645D5C" transform="matrix(-1.85036e-16 -1.00729 1 -1.83697e-16 81.0204 403.319)" />
        <path
            d="M49.9357 69.2534C51.7711 69.3039 53.5958 69.5519 55.3781 69.993 57.5612 70.5314 59.9983 71.0916 61.5376 72.8602 61.9235 73.3027 62.5407 72.9982 62.7212 72.5478 63.0667 71.686 63.4245 70.932 64.1311 70.308 64.7141 69.7717 65.4697 69.4616 66.2614 69.4336 67.1703 69.4026 67.1744 67.9866 66.2614 68.0176 65.1319 68.0558 64.0514 68.488 63.2071 69.2392 62.2693 70.0402 61.8055 71.0488 61.3556 72.1713L62.5389 71.8589C60.8635 69.934 58.2524 69.2507 55.8716 68.6569 53.9275 68.1731 51.9373 67.8984 49.9348 67.8373 49.0232 67.8078 49.0244 69.2239 49.9348 69.2534Z"
            fill="#211715" transform="matrix(-1.85036e-16 -1.00729 1 -1.83697e-16 81.0204 403.319)" />
        <path
            d="M0.0831933 35.9404C1.51293 39.2215 1.92474 42.8562 1.2653 46.374 1.16971 46.7501 1.3879 47.1345 1.75974 47.2452 4.59183 47.9602 7.22688 49.3028 9.46987 51.1739 11.6099 52.982 13.4723 55.0951 14.9972 57.4452 15.397 58.056 15.7555 58.6928 16.0705 59.3513 16.1402 59.5778 16.3003 59.7656 16.513 59.8702 16.7175 59.9305 16.9266 59.9743 17.1381 60.0012 17.5442 60.0921 17.9418 60.2173 18.3267 60.3756 18.7035 60.477 19.0917 60.2564 19.1976 59.8809 19.2915 59.5051 19.0739 59.1218 18.7031 59.01 18.1491 58.7805 17.5681 58.6227 16.9741 58.5403L17.3971 58.8648C16.3262 56.4805 14.6146 54.3512 12.8416 52.4533 11.0727 50.4985 8.98236 48.8608 6.66107 47.611 5.22336 46.8634 3.70505 46.2822 2.13559 45.8787L2.63032 46.7496C3.36475 42.8625 2.90278 38.844 1.30543 35.225 1.10642 34.8894 0.674641 34.7762 0.336608 34.971 0.00699735 35.1743-0.104816 35.6006 0.0826033 35.9395Z"
            fill="#211715" transform="matrix(-1.85036e-16 -1.00729 1 -1.83697e-16 81.0204 403.319)" />
        <path
            d="M67.5208 68.4146C63.1298 64.0426 58.7775 59.6195 54.7173 54.9347 54.2177 54.3582 53.7233 53.7775 53.234 53.1924 53.0072 52.9206 52.7816 52.6479 52.5572 52.3743 52.4442 52.1964 52.2757 52.0606 52.0778 51.9881 51.9239 51.9581 51.768 51.9393 51.6114 51.9318 51.2819 51.8925 50.9399 51.8433 50.5157 51.7689 50.0673 51.6918 49.6206 51.6055 49.1755 51.5099 47.1563 51.0652 45.162 50.5137 43.2012 49.8578 38.9858 48.4791 34.8714 46.8089 30.8877 44.8595 29.2318 44.065 27.6179 43.1858 26.0525 42.2253 25.7374 42.0285 25.4253 41.8261 25.1188 41.6161 24.9869 41.5255 24.8562 41.4341 24.7267 41.3406 24.665 41.296 24.604 41.2521 24.5429 41.2057 24.504 41.1762 24.2854 41.0084 24.4249 41.1172 24.3178 41.0332 24.2125 40.9476 24.1078 40.8609 23.8414 40.6419 23.5042 40.5277 23.1596 40.5396 22.3941 40.4916 21.6297 40.4289 20.8662 40.3514 14.8512 39.739 8.96474 38.2131 3.40974 35.8262 2.70526 35.5229 2.00706 35.2061 1.31516 34.8757 0.976066 34.6892 0.550321 34.8008 0.346344 35.1297 0.152658 35.4678 0.265674 35.8987 0.600349 36.0982 6.18362 38.7627 12.138 40.5667 18.2612 41.4491 19.9994 41.6969 21.7453 41.8732 23.4988 41.9778L22.9973 41.7713C24.1792 42.7418 25.4531 43.5945 26.8009 44.3172 28.6046 45.3383 30.4682 46.2537 32.3533 47.1139 36.5755 49.0693 40.9371 50.7081 45.4023 52.0167 47.5214 52.6573 49.6921 53.113 51.8899 53.3788L51.3884 53.1723C55.04 57.6458 59.0197 61.8442 63.0708 65.9554 64.2137 67.1158 65.3628 68.2696 66.518 69.4168 67.1644 70.0605 68.1663 69.0598 67.5193 68.4155Z"
            fill="#211715" transform="matrix(-1.85036e-16 -1.00729 1 -1.83697e-16 81.0204 403.319)" />
        <path
            d="M0.910111 35.8663C2.07587 35.4219 3.27233 35.0626 4.49008 34.7913 5.99778 34.4162 7.5167 34.0883 9.04682 33.8074 10.0259 33.6098 11.0164 33.4739 12.0126 33.4003 13.1823 33.3242 14.3541 33.2729 15.5256 33.2283 19.3758 33.0808 23.2682 32.9646 27.1172 33.1879 30.0056 33.3555 32.9144 33.9724 35.761 34.645 37.2128 34.9881 38.6604 35.3666 40.0747 35.8433 40.7154 36.0596 41.2084 36.2731 41.7338 36.4779 41.9837 36.5755 42.2353 36.6658 42.4852 36.7655L42.6327 36.8245C42.8062 36.8959 42.4932 36.7637 42.6728 36.8416 42.7867 36.891 42.9004 36.9411 43.0139 36.9918 45.6107 38.1838 48.1328 39.5324 50.5662 41.0302 51.1388 41.3763 51.707 41.7309 52.2637 42.1023 52.4976 42.2583 52.7295 42.4174 52.9572 42.582 53.0575 42.6543 53.1569 42.7278 53.2552 42.8023 53.1322 42.7088 53.3691 42.8935 53.413 42.9298 54.6539 43.9827 55.8213 45.1194 56.9068 46.3319 58.0376 47.5597 59.125 48.8315 60.147 50.1514 60.8451 50.9855 61.4579 51.8875 61.976 52.8439 62.0271 52.9478 62.0716 53.0546 62.1182 53.1605 62.0135 52.9218 62.1247 53.1785 62.1477 53.2342 62.1808 53.3157 62.2135 53.3977 62.2457 53.4794 62.4144 53.9069 62.5749 54.3376 62.7318 54.7695 63.1767 55.9928 63.5947 57.2256 63.9856 58.4678 64.8904 61.3241 65.7377 64.2441 66.1637 67.2157 66.2427 67.779 66.2927 68.346 66.3136 68.9144 66.3413 69.8236 67.7574 69.8275 67.7296 68.9144 67.6411 65.9938 66.8231 63.0661 66.0144 60.2765 65.3091 57.8432 64.5285 55.4161 63.5953 53.0599 62.7448 50.9149 61.1706 49.1067 59.6979 47.3606 57.7388 45.0385 55.638 42.6728 53.1038 40.9626 50.6455 39.3416 48.0855 37.8801 45.4397 36.5873 43.2272 35.4677 40.9117 34.5642 38.5256 33.8895 35.4283 33.0257 32.2736 32.3832 29.0852 31.9669 27.5357 31.7871 25.9771 31.6961 24.4172 31.6943 22.3678 31.6624 20.3166 31.6789 18.2683 31.727 16.6556 31.7652 15.0428 31.8242 13.4301 31.904 12.548 31.9486 11.6653 31.9887 10.7892 32.1043 7.83553 32.5 4.91761 33.1274 2.06243 33.9809 1.54602 34.1285 1.03736 34.302 0.538396 34.5007 0.16727 34.6127-0.0517965 34.9951 0.0392362 35.3719 0.145065 35.7474 0.533387 35.9679 0.91011 35.8663Z"
            fill="#211715" transform="matrix(-1.85036e-16 -1.00729 1 -1.83697e-16 81.0204 403.319)" />
        <path
            d="M42.6377 33.3496C42.0754 33.9987 41.6446 34.7508 41.3692 35.5642 41.2652 35.9413 41.4867 36.3313 41.8638 36.4353 42.2409 36.5392 42.6308 36.3178 42.7348 35.9407 42.7802 35.8073 42.8304 35.6758 42.8852 35.5462L42.8138 35.7153C43.0053 35.2635 43.2531 34.8378 43.5514 34.4482L43.4407 34.5916C43.5048 34.5096 43.5705 34.4293 43.639 34.3508 43.7679 34.2153 43.8416 34.0364 43.8455 33.8493 43.8445 33.6617 43.7704 33.4818 43.639 33.3478 43.5055 33.2157 43.3253 33.1415 43.1375 33.1413 42.9494 33.1404 42.7689 33.2148 42.636 33.3478Z"
            fill="#211715" transform="matrix(-1.85036e-16 -1.00729 1 -1.83697e-16 81.0204 403.319)" />
    </g>
</svg>