<svg width="43" height="44" xmlns="http://www.w3.org/2000/svg" xmlns:xlink="http://www.w3.org/1999/xlink" overflow="hidden"><defs><clipPath id="clip0"><rect x="632" y="481" width="43" height="44"/></clipPath></defs><g clip-path="url(#clip0)" transform="translate(-632 -481)"><path d="M89.203 64.135C88.8486 63.768 88.4678 63.4275 88.0633 63.1163 86.0863 61.5967 83.6278 60.7784 81.1464 60.5274 80.6221 60.4742 78.3611 60.4742 77.8368 60.5274 75.3554 60.7775 72.898 61.5964 70.9199 63.1163 68.9417 64.6362 67.4846 66.8946 67.1792 69.3701 66.8303 72.1896 68.0039 75.0687 69.9362 77.1518 70.7045 78.0496 71.7001 78.7237 72.8188 79.1039 72.8399 80.3763 72.8594 81.6525 72.8773 82.9322 72.87 83.0252 72.8904 83.1181 72.9357 83.1996 72.9848 83.2604 73.0503 83.3063 73.1242 83.3314 73.5021 83.4615 73.9013 83.5193 74.3005 83.5018 76.0311 83.5337 82.9536 83.5337 84.6845 83.5018 85.0837 83.5193 85.4829 83.4615 85.8607 83.3314 85.9347 83.3063 86.0001 83.2604 86.0492 83.1996 86.0945 83.1181 86.115 83.0252 86.1077 82.9322 86.1273 81.654 86.1465 80.3778 86.1661 79.1039 87.2845 78.7232 88.2799 78.0484 89.0473 77.1503 90.9793 75.0676 92.1532 72.1882 91.8042 69.3687 91.524 67.3894 90.6116 65.5535 89.203 64.135Z" fill="#211715" transform="matrix(1.0098 0 0 1 632 434.356)"/><path d="M89.699 63.6391C87.5841 61.4765 84.7 60.2904 81.7349 59.8961 80.7732 59.7906 79.805 59.7553 78.8383 59.7903 77.6904 59.8061 76.5483 59.9549 75.4349 60.2334 72.6294 60.9307 70.0633 62.4453 68.3248 64.7791 66.6214 67.0445 66.0284 69.9569 66.7111 72.7081 67.112 74.2461 67.8318 75.6827 68.824 76.9247 69.8129 78.1872 71.0742 79.3015 72.6309 79.7796L72.116 79.1034C72.1344 80.2139 72.1519 81.3243 72.168 82.4349 72.1762 82.9822 72.1388 83.5515 72.6648 83.8835 73.1146 84.1684 73.7169 84.19 74.2329 84.2017 75.2336 84.2239 76.2351 84.221 77.236 84.2239 79.6513 84.2306 82.0681 84.2409 84.4834 84.2061 84.9238 84.2192 85.3642 84.1801 85.7953 84.0892 86.0773 84.031 86.3371 83.8943 86.5443 83.6944 86.7442 83.4369 86.8389 83.1131 86.8093 82.7885 86.8333 81.5611 86.8464 80.3307 86.8663 79.1019L86.3508 79.7805C88.7369 79.0475 90.5882 76.8084 91.5929 74.6038 92.6424 72.3039 92.908 69.6858 92.012 67.2883 91.4971 65.9276 90.7098 64.6862 89.699 63.64 89.0742 62.986 88.0832 63.9787 88.7071 64.6318 90.201 66.1962 91.178 68.2409 91.1637 70.4289 91.1011 72.5938 90.289 74.6701 88.8661 76.3029 88.0855 77.2208 87.151 78.0686 85.9779 78.4289 85.6775 78.518 85.4691 78.7915 85.463 79.1051 85.4469 80.0973 85.4314 81.0894 85.4165 82.0815 85.3891 82.3174 85.3856 82.5553 85.406 82.7917L85.4037 82.9337C85.5986 82.7359 85.6258 82.6651 85.4852 82.721 85.3937 82.7312 85.3037 82.7508 85.2164 82.7794 84.9425 82.8054 84.6675 82.815 84.3925 82.8086 83.4545 82.8209 82.5161 82.8229 81.578 82.8253 79.3316 82.8311 77.0846 82.8349 74.8382 82.8115 74.6584 82.8095 74.4787 82.8077 74.299 82.8039 74.0731 82.8086 73.8475 82.7925 73.6245 82.7554L73.5602 82.7411C73.3653 82.6543 73.3714 82.7192 73.578 82.9357 73.5833 82.7937 73.5813 82.6514 73.5719 82.5097 73.5547 81.3755 73.5368 80.2413 73.5187 79.1072 73.5126 78.7936 73.3045 78.5201 73.0038 78.4309 71.8118 78.0648 70.8658 77.1956 70.0776 76.2593 69.2719 75.304 68.6553 74.2046 68.2602 73.019 67.4715 70.6829 67.7988 68.1141 69.148 66.0506 70.5338 63.8963 72.7776 62.469 75.2049 61.7548 77.0831 61.2428 79.0361 61.0625 80.9763 61.2214 83.8063 61.3895 86.7199 62.6046 88.7071 64.6362 89.3392 65.2774 90.3302 64.2852 89.699 63.6391Z" fill="#211715" transform="matrix(1.0098 0 0 1 632 434.356)"/><path d="M81.1598 80.4526 81.1598 83.0082C81.1598 83.3954 81.474 83.7096 81.8612 83.7096 82.2484 83.7096 82.5626 83.3954 82.5626 83.0082L82.5626 80.4526C82.5626 80.0654 82.2484 79.7512 81.8612 79.7512 81.474 79.7512 81.1598 80.0654 81.1598 80.4526Z" fill="#211715" transform="matrix(1.0098 0 0 1 632 434.356)"/><path d="M76.423 80.4526 76.423 83.0082C76.423 83.3954 76.7371 83.7096 77.1243 83.7096 77.5115 83.7096 77.8257 83.3954 77.8257 83.0082L77.8257 80.4526C77.8257 80.0654 77.5115 79.7512 77.1243 79.7512 76.7371 79.7512 76.423 80.0654 76.423 80.4526Z" fill="#211715" transform="matrix(1.0098 0 0 1 632 434.356)"/><path d="M87.8485 69.9885C87.4993 68.4043 85.9326 67.373 84.3803 67.307 83.7271 67.2657 83.081 67.4607 82.5599 67.8564 81.6858 68.5598 81.4579 69.8827 81.8562 70.9351 82.3709 72.2943 83.4849 73.4404 85.1272 73.4404 86.6939 73.4135 87.9423 72.1218 87.9155 70.5549 87.9122 70.3643 87.8897 70.1747 87.8485 69.9885Z" fill="#FFFFFF" transform="matrix(1.0098 0 0 1 632 434.356)"/><path d="M71.5733 69.9885C71.9225 68.4043 73.4892 67.373 75.0419 67.307 75.6947 67.2657 76.3409 67.4607 76.8619 67.8564 77.736 68.5598 77.9639 69.8827 77.5656 70.9351 77.0513 72.2943 75.937 73.4404 74.2946 73.4404 72.7279 73.4135 71.4795 72.1218 71.5064 70.5549 71.5096 70.3643 71.5321 70.1747 71.5733 69.9885Z" fill="#FFFFFF" transform="matrix(1.0098 0 0 1 632 434.356)"/><path d="M93.8487 64.0772 95.4268 62.4991 94.4349 62.4991C95.2731 63.2788 96.4534 63.5728 97.5595 63.2773 98.6271 62.9523 99.4848 62.1531 99.8846 61.1113 100.722 58.906 98.8781 56.5199 96.5688 56.5869L97.2702 57.2882C97.3427 54.9816 94.9525 53.1385 92.7525 53.9731 91.7133 54.3749 90.9132 55.2274 90.5774 56.2896 90.2267 57.4197 90.6084 58.5562 91.3595 59.4236L91.3595 58.4317 89.8731 59.9183C89.234 60.5575 90.2256 61.5496 90.865 60.9102L92.3513 59.4236C92.6164 59.1463 92.6164 58.7091 92.3513 58.4317 91.9077 57.958 91.7475 57.2853 91.9302 56.6625 92.135 56.0369 92.607 55.5345 93.2187 55.2911 94.5501 54.7943 95.9104 55.9188 95.8675 57.2882 95.871 57.674 96.1831 57.9861 96.5688 57.9896 97.9467 57.9496 99.0596 59.3096 98.5666 60.6451 98.2013 61.6779 97.068 62.2188 96.0352 61.8535 95.8134 61.7752 95.6074 61.6577 95.4268 61.5072 95.1495 61.2416 94.7123 61.2416 94.4349 61.5072L92.8569 63.0853C92.2177 63.7244 93.2093 64.7169 93.8487 64.0772Z" fill="#211715" transform="matrix(1.0098 0 0 1 632 434.356)"/><path d="M66.1251 63.0853 64.5471 61.5072C64.2692 61.2413 63.8314 61.2413 63.5535 61.5072 62.7115 62.2083 61.4608 62.0943 60.7597 61.2527 60.6095 61.0721 60.4923 60.8664 60.414 60.6451 59.9145 59.3105 61.0385 57.9498 62.4117 57.9896 62.7975 57.9861 63.1096 57.674 63.1131 57.2882 63.0698 55.9147 64.4281 54.7992 65.7619 55.2911 66.3569 55.5275 66.8207 56.0094 67.034 56.6132 67.2409 57.2476 67.086 57.9443 66.6298 58.4312 66.3636 58.7082 66.3636 59.146 66.6298 59.423L68.1162 60.9096C68.7553 61.5487 69.7474 60.5572 69.108 59.9178L67.6217 58.4312 67.6217 59.423C68.3739 58.5539 68.7512 57.4209 68.4037 56.2891 68.0685 55.2265 67.2681 54.374 66.2286 53.9725 64.0286 53.1373 61.6382 54.981 61.7109 57.2876L62.4123 56.5863C60.1036 56.5193 58.2593 58.9055 59.0966 61.1107 59.4969 62.1522 60.3544 62.9512 61.4216 63.2767 62.5277 63.5725 63.7081 63.2785 64.5462 62.4985L63.5526 62.4985 65.1307 64.0766C65.7701 64.716 66.7622 63.7241 66.1243 63.0847Z" fill="#211715" transform="matrix(1.0098 0 0 1 632 434.356)"/><path d="M92.8569 79.3868 94.4349 80.9649C94.7126 81.2297 95.1492 81.2297 95.4268 80.9649 96.2687 80.2638 97.5198 80.3778 98.2209 81.2197 98.3711 81.4 98.4883 81.6058 98.5666 81.827 99.066 83.1616 97.9418 84.5223 96.5688 84.4825 96.1831 84.4861 95.871 84.7982 95.8675 85.1839 95.9107 86.5574 94.5524 87.6729 93.2187 87.1811 92.6237 86.9446 92.1596 86.4627 91.9463 85.859 91.7396 85.2242 91.8948 84.5275 92.3513 84.0404 92.6172 83.7634 92.6172 83.3256 92.3513 83.0486L90.865 81.5619C90.2259 80.9228 89.2337 81.9144 89.8731 82.5538L91.3595 84.0404 91.3595 83.0486C90.6072 83.9177 90.2299 85.0507 90.5774 86.1825 90.9126 87.2451 91.7131 88.0975 92.7525 88.499 94.9525 89.3343 97.3427 87.4905 97.2702 85.1839L96.5688 85.8853C98.8775 85.9522 100.722 83.5661 99.8846 81.3609 99.4842 80.3199 98.6268 79.5216 97.5601 79.196 96.454 78.9003 95.2737 79.1942 94.4355 79.9742L95.4274 79.9742 93.8493 78.3961C93.2102 77.757 92.218 78.7489 92.8574 79.3897Z" fill="#211715" transform="matrix(1.0098 0 0 1 632 434.356)"/><path d="M65.133 78.3947 63.5549 79.9728 64.5485 79.9728C63.7095 79.1928 62.5283 78.8994 61.4219 79.196 60.3544 79.521 59.4967 80.3202 59.0969 81.362 58.2596 83.5673 60.103 85.9534 62.4126 85.8865L61.7112 85.1851C61.6384 87.4914 64.0289 89.3348 66.2289 88.5002 67.2681 88.0984 68.0682 87.2459 68.404 86.1837 68.7547 85.0536 68.3727 83.9171 67.622 83.0497L67.622 84.0416 69.1083 82.555C69.7474 81.9158 68.7559 80.9237 68.1164 81.5631L66.6298 83.0491C66.3648 83.3265 66.3648 83.7636 66.6298 84.041 67.0735 84.5147 67.2336 85.1874 67.0509 85.8102 66.8458 86.4356 66.3738 86.9379 65.7625 87.1816 64.4311 87.6784 63.0704 86.5539 63.1137 85.1845 63.1101 84.7987 62.798 84.4866 62.4123 84.4831 61.0344 84.5232 59.9213 83.1631 60.4146 81.8276 60.7796 80.7951 61.9129 80.2539 62.9453 80.6192 63.1671 80.6975 63.3735 80.8147 63.5541 80.9655 63.8317 81.232 64.27 81.232 64.5477 80.9655L66.1257 79.3874C66.7649 78.7483 65.773 77.7559 65.1321 78.3938Z" fill="#211715" transform="matrix(1.0098 0 0 1 632 434.356)"/><path d="M32.985 5.28071C32.5396 4.82017 32.0609 4.39304 31.553 4.00276 29.074 2.09563 25.9891 1.06871 22.8762 0.754262 22.2184 0.687924 19.3817 0.687924 18.7239 0.754262 15.6107 1.06871 12.5261 2.09563 10.0456 4.00364 7.56512 5.91164 5.73572 8.74312 5.35172 11.8484 4.91337 15.3845 6.38653 18.9983 8.81063 21.6114 9.81271 22.6927 11.0065 23.6439 12.4273 24.0604 12.4533 25.6566 12.4781 27.2577 12.5019 28.8639 12.4925 28.9803 12.5175 29.097 12.5738 29.1994 12.6354 29.2759 12.7175 29.3332 12.8105 29.3648 13.2846 29.5281 13.7852 29.6009 14.2863 29.5787 16.4573 29.6184 25.1425 29.6184 27.3139 29.5787 27.8149 29.6009 28.3155 29.5281 28.7896 29.3648 28.8826 29.3332 28.9646 29.2756 29.0264 29.1994 29.0826 29.097 29.1076 28.9803 29.0982 28.8639 29.1224 27.2603 29.1473 25.6591 29.1728 24.0604 30.5936 23.6439 31.7871 22.6918 32.7895 21.6114 35.215 18.9983 36.6862 15.3868 36.2484 11.8484 35.8971 9.36465 34.7524 7.06092 32.985 5.28071Z" fill="#FFFFFF" transform="matrix(1.0098 0 0 1 632 434.356)"/><path d="M30.9829 13.067C30.527 10.9966 28.4793 9.64788 26.4503 9.56255 25.5969 9.50855 24.7525 9.76341 24.0715 10.2806 22.9291 11.1997 22.6311 12.9285 23.1518 14.3041 23.824 16.0803 25.2802 17.5771 27.4267 17.5771 29.4741 17.5419 31.1053 15.8535 31.0703 13.8061 31.0659 13.5574 31.0366 13.3098 30.9829 13.067Z" fill="#211715" transform="matrix(1.0098 0 0 1 632 434.356)"/><path d="M11.169 13.067C11.6252 10.9966 13.6726 9.64788 15.7018 9.56255 16.5552 9.50855 17.3994 9.76341 18.0804 10.2806 19.2227 11.1997 19.5208 12.9285 19.0003 14.3041 18.3282 16.0803 16.8717 17.5771 14.7255 17.5771 12.678 17.5422 11.0464 15.8541 11.0813 13.8066 11.0856 13.5574 11.1149 13.3092 11.169 13.0659Z" fill="#211715" transform="matrix(1.0098 0 0 1 632 434.356)"/><path d="M33.4809 4.78478C30.8601 2.09855 27.27 0.627139 23.5916 0.137935 22.4184 0.00965914 21.2374-0.033997 20.0579 0.0073059 18.6296 0.0229137 17.2078 0.20255 15.8205 0.542683 12.3297 1.39835 9.11309 3.26895 6.94908 6.17349 4.85246 8.9504 4.10706 12.5192 4.91687 15.9032 5.4045 17.8361 6.29997 19.6423 7.5432 21.2006 8.76329 22.7576 10.3165 24.1507 12.2409 24.7366L11.726 24.0604C11.7484 25.4436 11.7699 26.8261 11.7906 28.2078 11.8008 28.8919 11.7415 29.6237 12.4563 29.9703 13.0369 30.2038 13.6611 30.3096 14.2863 30.28 15.5116 30.3031 16.7375 30.3026 17.9632 30.3061 20.9776 30.3148 23.9932 30.3259 27.0076 30.2847 27.4862 30.2903 27.9644 30.2587 28.4381 30.1903 28.7795 30.1474 29.105 30.0203 29.3852 29.8204 29.6772 29.5611 29.8312 29.1801 29.8008 28.7908 29.8376 27.2145 29.8484 25.637 29.8741 24.0604L29.3592 24.7366C30.8777 24.2227 32.2325 23.3151 33.2854 22.1065 34.3328 20.9852 35.194 19.7032 35.8358 18.3095 37.1312 15.4613 37.4431 12.2219 36.3285 9.25921 35.6923 7.58999 34.7235 6.06744 33.4809 4.78391 32.8555 4.13076 31.8643 5.12348 32.4891 5.77576 34.3886 7.76062 35.6353 10.3674 35.6239 13.146 35.6122 15.893 34.4549 18.5921 32.6887 20.6699 31.6901 21.8444 30.4878 22.9259 28.9863 23.3833 28.6858 23.4726 28.4775 23.746 28.4714 24.0595 28.4507 25.3206 28.4313 26.5816 28.413 27.8425 28.4102 28.0126 28.4077 28.1827 28.4054 28.3528 28.3802 28.4976 28.3779 28.6455 28.3986 28.7911L28.3986 28.8642 28.5266 28.718C28.5298 28.7213 28.4007 28.7552 28.4293 28.7525 28.2896 28.7648 28.1482 28.8288 28.0056 28.8463 27.6744 28.8764 27.3418 28.8885 27.0093 28.8829 25.8153 28.8992 24.6212 28.9019 23.4274 28.9048 20.5886 28.9121 17.7493 28.9176 14.9108 28.8867 14.6822 28.8843 14.4537 28.8817 14.2252 28.877 13.9328 28.8837 13.6405 28.8588 13.3534 28.8028 13.295 28.7888 12.9542 28.6567 13.141 28.7914 13.2745 28.8878 13.1828 28.8425 13.2026 28.7189 13.2092 28.6215 13.2078 28.5238 13.1983 28.4267 13.1764 26.9714 13.1538 25.516 13.1305 24.0607 13.1244 23.7472 12.9162 23.4736 12.6155 23.3844 11.076 22.9169 9.84982 21.7909 8.83634 20.579 7.81273 19.3578 7.03009 17.9535 6.53002 16.4406 6.02477 14.9516 5.86419 13.3673 6.06039 11.8072 6.28883 10.2819 6.84896 8.82515 7.7013 7.53969 9.46085 4.83329 12.2856 3.03137 15.345 2.12456 17.732 1.41735 20.1912 1.29694 22.6647 1.44043 24.4277 1.57113 26.1585 1.98262 27.7917 2.65935 29.5568 3.36162 31.1565 4.42352 32.4888 5.77751 33.1206 6.42393 34.1121 5.43179 33.4809 4.78478Z" fill="#211715" transform="matrix(1.0098 0 0 1 632 434.356)"/><path d="M23.0723 25.7513 23.0723 28.9577C23.0723 29.3449 23.3863 29.659 23.7737 29.659 24.1611 29.659 24.4751 29.3449 24.4751 28.9577L24.4751 25.7513C24.4751 25.3639 24.1611 25.0499 23.7737 25.0499 23.3863 25.0499 23.0723 25.3639 23.0723 25.7513Z" fill="#211715" transform="matrix(1.0098 0 0 1 632 434.356)"/><path d="M17.1294 25.7513 17.1294 28.9577C17.1294 29.3449 17.4434 29.659 17.8308 29.659 18.2181 29.659 18.5322 29.3449 18.5322 28.9577L18.5322 25.7513C18.5322 25.3639 18.2181 25.0499 17.8308 25.0499 17.4434 25.0499 17.1294 25.3639 17.1294 25.7513Z" fill="#211715" transform="matrix(1.0098 0 0 1 632 434.356)"/><path d="M94.0729 15.5987 95.847 13.4148C96.4482 12.6749 96.3356 11.5877 95.5957 10.9865 95.4066 10.8328 95.1869 10.7209 94.9513 10.6581L92.2335 9.93428C91.4439 9.72419 90.9097 8.98918 90.9538 8.17326L91.1055 5.3637C91.1569 4.41171 90.4269 3.59827 89.4748 3.54684 89.2314 3.53369 88.988 3.57224 88.7606 3.65997L86.1354 4.67256C85.3733 4.96658 84.5094 4.68609 84.0652 4.00042L82.5357 1.63652C82.0175 0.836152 80.9488 0.607252 80.1484 1.12526 79.9438 1.25768 79.7697 1.43192 79.6373 1.63652L78.1086 3.99867C77.6644 4.6844 76.8002 4.96489 76.0381 4.67081L73.4129 3.65821C72.5234 3.31516 71.5242 3.75813 71.1811 4.64764 71.0935 4.87508 71.0549 5.11852 71.068 5.36195L71.22 8.17151C71.2638 8.9874 70.7299 9.72235 69.9403 9.93252L67.2225 10.6564C66.3011 10.9019 65.7531 11.8479 65.9989 12.7693 66.0614 13.0046 66.1734 13.224 66.3268 13.4131L68.101 15.5969C68.6162 16.2311 68.6162 17.1396 68.101 17.7738L66.3256 19.9597C65.7245 20.6997 65.837 21.7868 66.577 22.388 66.766 22.5418 66.9858 22.6537 67.2213 22.7164L69.9391 23.4403C70.7287 23.6506 71.263 24.3856 71.2188 25.2016L71.0669 28.0111C71.0157 28.9631 71.7457 29.7765 72.6978 29.8277 72.941 29.8408 73.1844 29.8022 73.4118 29.7146L76.0369 28.7023C76.7991 28.4078 77.6635 28.6884 78.1074 29.3744L79.6361 31.7366C80.1542 32.537 81.2229 32.7658 82.0234 32.2477 82.2279 32.1153 82.4021 31.9411 82.5345 31.7366L84.0632 29.3744C84.5068 28.6881 85.3712 28.4074 86.1334 28.7023L88.7585 29.7146C89.6478 30.058 90.647 29.6152 90.9901 28.7259 91.078 28.4983 91.1166 28.2547 91.1035 28.0111L90.9518 25.2016C90.9076 24.3856 91.4419 23.6505 92.2315 23.4403L94.9493 22.7164C95.8707 22.4711 96.4186 21.5255 96.1735 20.6042 96.1106 20.3686 95.9987 20.149 95.845 19.9597L94.0708 17.7761C93.5559 17.1414 93.5568 16.2325 94.0729 15.5987Z" fill="#211715" transform="matrix(1.0098 0 0 1 632 434.356)"/><path d="M86.5548 14.3739C85.333 14.6869 84.0828 15.0075 83.337 15.1998 83.1938 15.2362 83.107 15.3819 83.1435 15.5252 83.1494 15.5481 83.1581 15.5702 83.1698 15.5908 83.7087 16.5277 85.4633 17.052 87.1317 16.604 88.8091 16.1875 90.0885 14.8766 90.1052 13.7959 90.1063 13.648 89.9874 13.5273 89.8395 13.5261 89.8159 13.5259 89.7922 13.5289 89.7694 13.5349 89.0239 13.7284 87.7752 14.0548 86.5548 14.3739Z" fill="#FFFFFF" transform="matrix(1.0098 0 0 1 632 434.356)"/><path d="M75.6179 14.3739C76.84 14.6869 78.0902 15.0075 78.836 15.1998 78.9792 15.2361 79.0657 15.3816 79.0294 15.5248 79.0236 15.5478 79.0145 15.57 79.0028 15.5908 78.4639 16.5277 76.7097 17.052 75.041 16.604 73.3638 16.1875 72.0844 14.8766 72.0678 13.7959 72.0666 13.648 72.1855 13.5273 72.3334 13.5261 72.3571 13.5259 72.3808 13.5289 72.4035 13.5349 73.1488 13.7284 74.3978 14.0548 75.6179 14.3739Z" fill="#FFFFFF" transform="matrix(1.0098 0 0 1 632 434.356)"/><path d="M37.737 67.9876C36.9854 67.9753 36.2837 68.3622 35.893 69.0046 35.7384 69.2439 35.4728 69.3883 35.1879 69.388 34.061 69.3979 32.9344 69.4268 31.8076 69.4417 31.3806 69.4455 31.0165 69.1334 30.9542 68.7111 30.7082 67.0802 30.103 65.5243 29.1821 64.1561 28.9536 63.8197 28.9941 63.3688 29.2788 63.0786 30.0606 62.2808 30.83 61.4713 31.6103 60.672 31.8131 60.473 32.1045 60.3929 32.3804 60.4604 33.1028 60.6215 33.857 60.3921 34.3676 59.8561 35.2247 58.9993 35.1937 57.5252 34.1148 56.4463 33.0358 55.3674 31.5565 55.3428 30.7053 56.1938 30.1693 56.7122 29.9457 57.4744 30.1164 58.2003 30.1842 58.477 30.1073 58.7693 29.9118 58.9765 29.1488 59.7579 28.3957 60.549 27.6324 61.3298 27.3355 61.6303 26.8638 61.6688 26.5219 61.421 25.1253 60.428 23.5157 59.7754 21.8219 59.5154 21.4114 59.4519 21.1066 59.1015 21.1009 58.6863 21.0901 57.8593 21.0717 56.5015 21.0606 55.4816 21.0545 55.1765 21.2148 54.8922 21.4791 54.7393 22.1721 54.3553 22.5939 53.6174 22.5732 52.8255 22.5732 51.6136 21.5092 50.5931 19.9831 50.5931 18.4521 50.5931 17.3936 51.6218 17.3936 52.8255 17.3823 53.5266 17.7196 54.1876 18.294 54.5897 18.5154 54.7399 18.6515 54.9872 18.6599 55.2546 18.6721 56.3136 18.6958 57.7821 18.7107 58.6641 18.7168 59.0896 18.4085 59.4543 17.988 59.5192 16.3989 59.7696 14.8842 60.3666 13.5513 61.2673 13.2146 61.4982 12.7617 61.4584 12.47 61.1729 11.6775 60.3976 10.8738 59.6331 10.081 58.8581 9.89003 58.6635 9.8092 58.3862 9.8656 58.1193 10.0038 57.4165 9.77641 56.6915 9.26155 56.1932 8.41056 55.3422 6.93476 55.363 5.85203 56.4457 4.76929 57.5284 4.74153 58.9987 5.59954 59.8555 6.13789 60.423 6.94511 60.6478 7.69925 60.44 7.98383 60.369 8.28484 60.4523 8.49238 60.6595 9.23379 61.3825 9.98279 62.0973 10.723 62.822 11.0232 63.1175 11.0629 63.588 10.8165 63.9296 9.79207 65.3712 9.12578 67.0363 8.87287 68.7868 8.81259 69.2027 8.45842 69.5128 8.03825 69.5174 6.99496 69.53 5.95197 69.5545 4.90869 69.5668 4.5979 69.5718 4.30943 69.4058 4.15794 69.1343 3.78311 68.4198 3.03765 67.9776 2.23093 67.9911 1.02867 67.9876 0 69.0458 0 70.5771 0 72.1028 1.02049 73.1669 2.23239 73.1669 2.91686 73.1829 3.56674 72.8667 3.97617 72.3179 4.12918 72.104 4.37366 71.9743 4.63662 71.9672 5.78189 71.9564 6.92717 71.9269 8.07273 71.9129 8.49566 71.9094 8.8575 72.2159 8.92372 72.6335 9.17616 74.2838 9.79365 75.8569 10.7312 77.238 10.9636 77.5732 10.9269 78.0259 10.6435 78.3193 9.93837 79.047 9.23817 79.7805 8.52745 80.5017 8.31651 80.718 8.00587 80.8051 7.71328 80.7294 6.95785 80.5154 6.14596 80.7343 5.60041 81.2989 4.74913 82.1499 4.76988 83.6257 5.85261 84.7085 6.93535 85.7912 8.40559 85.8189 9.26242 84.9612 9.88486 84.3654 10.0861 83.453 9.77208 82.6505 9.77793 82.645 9.78465 82.6412 9.79049 82.6356 10.6532 81.7721 11.4942 80.888 12.3432 80.0113 12.6334 79.7144 13.095 79.6685 13.4379 79.9029 14.7938 80.8045 16.3323 81.3948 17.9433 81.6318 18.3555 81.6943 18.6622 82.0456 18.6689 82.4623 18.6882 83.6783 18.7183 84.8943 18.7192 86.1106 18.7202 86.1784 18.7275 86.2462 18.7411 86.3125 17.9207 86.6439 17.3871 87.4441 17.3968 88.329 17.3968 89.5327 18.4553 90.5613 19.9863 90.5613 21.5124 90.5613 22.5764 89.5409 22.5764 88.329 22.5968 87.3868 21.9999 86.5414 21.105 86.2456 21.1124 86.2006 21.117 86.1556 21.119 86.11 21.119 84.9092 21.0898 83.7087 21.0693 82.5085 21.0644 82.0757 21.3834 81.7072 21.8125 81.6499 23.5897 81.424 25.2844 80.7656 26.7478 79.732 27.0831 79.4885 27.5447 79.5213 27.8425 79.8091 28.6824 80.6215 29.5281 81.4284 30.3557 82.2542 30.3607 82.2592 30.3671 82.2627 30.3721 82.2674 29.8367 83.1327 29.977 84.2537 30.7088 84.9606 31.5656 85.8175 33.0396 85.7868 34.1186 84.7079 35.1975 83.6289 35.2221 82.1493 34.3711 81.2983 33.8108 80.7191 32.9724 80.5043 32.203 80.7431 32.1591 80.6762 32.1086 80.6139 32.0519 80.5575 31.1983 79.7048 30.3245 78.8728 29.4577 78.0338 29.1672 77.75 29.1161 77.3011 29.3353 76.9592 30.1661 75.6217 30.7102 74.1263 30.9332 72.5675 30.9949 72.1531 31.3482 71.8448 31.7672 71.8395 32.9037 71.8249 34.0397 71.7954 35.1762 71.7852 35.4667 71.7811 35.7387 71.9269 35.8962 72.1712 36.2913 72.8054 36.9924 73.1832 37.7394 73.1648 38.9516 73.1648 39.9721 72.1008 39.9721 70.575 39.9697 69.0458 38.9411 67.9876 37.737 67.9876Z" fill="#211715" transform="matrix(1.0098 0 0 1 632 434.356)"/><path d="M24.7989 69.2947C23.7652 69.5595 22.7076 69.8307 22.0767 69.9932 21.9555 70.0242 21.8824 70.1475 21.9133 70.2688 21.9182 70.2881 21.9257 70.3068 21.9355 70.324 22.3914 71.1165 23.8754 71.5613 25.2869 71.1811 26.7057 70.829 27.7879 69.7199 27.8019 68.8058 27.8027 68.6805 27.7019 68.5785 27.5766 68.5776 27.5568 68.5773 27.537 68.5799 27.5178 68.5849 26.8875 68.7488 25.831 69.0262 24.7989 69.2947Z" fill="#FFFFFF" transform="matrix(1.0098 0 0 1 632 434.356)"/><path d="M15.1709 69.2947C16.2045 69.5595 17.2621 69.8307 17.8927 69.9932 18.014 70.0239 18.0873 70.1472 18.0565 70.2685 18.0515 70.2878 18.044 70.3065 18.0342 70.324 17.5783 71.1165 16.0943 71.5613 14.6828 71.1811 13.264 70.829 12.1819 69.7199 12.1678 68.8058 12.1668 68.6808 12.2674 68.5785 12.3925 68.5776 12.4124 68.5773 12.4323 68.5799 12.4516 68.5849 13.0822 68.7488 14.1387 69.0262 15.1709 69.2947Z" fill="#FFFFFF" transform="matrix(1.0098 0 0 1 632 434.356)"/></g></svg>