<svg width="52" height="51" xmlns="http://www.w3.org/2000/svg" xmlns:xlink="http://www.w3.org/1999/xlink" overflow="hidden"><defs><clipPath id="clip0"><rect x="710" y="389" width="52" height="51"/></clipPath></defs><g clip-path="url(#clip0)" transform="translate(-710 -389)"><path d="M124.15 89.2612C123.657 88.7504 123.127 88.2765 122.564 87.8434 119.812 85.7284 116.391 84.5896 112.937 84.2402 112.207 84.1662 109.061 84.1662 108.331 84.2402 104.877 84.5883 101.457 85.728 98.7041 87.8434 95.951 89.9587 93.9231 93.1019 93.4981 96.5473 93.0124 100.471 94.6458 104.478 97.3351 107.378 98.4044 108.627 99.7901 109.565 101.347 110.094 101.376 111.865 101.404 113.642 101.428 115.423 101.418 115.552 101.447 115.681 101.51 115.795 101.578 115.879 101.669 115.943 101.772 115.978 102.298 116.159 102.854 116.24 103.409 116.215 105.818 116.26 115.452 116.26 117.861 116.215 118.417 116.24 118.973 116.159 119.498 115.978 119.601 115.943 119.692 115.879 119.761 115.795 119.824 115.681 119.852 115.552 119.842 115.423 119.869 113.644 119.896 111.867 119.923 110.094 121.48 109.565 122.865 108.625 123.933 107.376 126.622 104.477 128.256 100.469 127.77 96.5452 127.38 93.7905 126.111 91.2355 124.15 89.2612Z" fill="#211715" transform="matrix(1.00872 0 0 1 621.482 389.114)"/><path d="M124.84 88.571C121.897 85.5612 117.883 83.9103 113.756 83.3616 112.418 83.2148 111.07 83.1656 109.725 83.2144 108.127 83.2364 106.538 83.4434 104.988 83.831 101.083 84.8015 97.512 86.9095 95.0924 90.1576 92.7216 93.3106 91.8964 97.364 92.8465 101.193 93.4045 103.333 94.4063 105.333 95.7871 107.062 97.1635 108.819 98.9189 110.369 101.086 111.035L100.369 110.094C100.395 111.639 100.419 113.185 100.441 114.73 100.453 115.492 100.401 116.284 101.133 116.746 101.759 117.143 102.597 117.173 103.315 117.189 104.708 117.22 106.102 117.216 107.495 117.22 110.856 117.23 114.22 117.244 117.581 117.196 118.194 117.214 118.807 117.159 119.407 117.033 119.8 116.952 120.161 116.762 120.45 116.483 120.728 116.125 120.86 115.674 120.819 115.222 120.852 113.514 120.87 111.802 120.898 110.092L120.18 111.036C123.501 110.016 126.078 106.9 127.476 103.831 128.937 100.63 129.307 96.9865 128.06 93.6498 127.343 91.7561 126.247 90.0283 124.84 88.5722 123.971 87.662 122.592 89.0436 123.46 89.9526 125.539 92.1298 126.899 94.9757 126.879 98.0209 126.792 101.034 125.662 103.924 123.681 106.196 122.595 107.474 121.294 108.653 119.661 109.155 119.243 109.279 118.953 109.66 118.945 110.096 118.922 111.477 118.901 112.858 118.88 114.239 118.842 114.567 118.837 114.898 118.866 115.227L118.862 115.425C119.134 115.149 119.171 115.051 118.976 115.129 118.848 115.143 118.723 115.17 118.602 115.21 118.22 115.246 117.838 115.26 117.455 115.251 116.149 115.268 114.843 115.27 113.538 115.274 110.411 115.282 107.284 115.287 104.158 115.255 103.907 115.252 103.657 115.249 103.407 115.244 103.093 115.251 102.779 115.228 102.468 115.177L102.379 115.157C102.108 115.036 102.116 115.126 102.404 115.427 102.411 115.23 102.408 115.032 102.395 114.834 102.371 113.256 102.346 111.677 102.321 110.099 102.313 109.663 102.023 109.282 101.605 109.158 99.9455 108.648 98.6289 107.439 97.532 106.135 96.4106 104.806 95.5524 103.276 95.0025 101.626 93.9048 98.3743 94.3603 94.7992 96.2382 91.9273 98.1669 88.9289 101.29 86.9425 104.668 85.9484 107.282 85.2358 110 84.9849 112.7 85.2061 116.639 85.44 120.694 87.1312 123.46 89.9587 124.34 90.8511 125.719 89.4703 124.84 88.571Z" fill="#211715" transform="matrix(1.00872 0 0 1 621.482 389.114)"/><path d="M112.956 111.972 112.956 115.528C112.956 116.067 113.393 116.504 113.932 116.504 114.471 116.504 114.908 116.067 114.908 115.528L114.908 111.972C114.908 111.433 114.471 110.995 113.932 110.995 113.393 110.995 112.956 111.433 112.956 111.972Z" fill="#211715" transform="matrix(1.00872 0 0 1 621.482 389.114)"/><path d="M106.363 111.972 106.363 115.528C106.363 116.067 106.8 116.504 107.339 116.504 107.878 116.504 108.315 116.067 108.315 115.528L108.315 111.972C108.315 111.433 107.878 110.995 107.339 110.995 106.8 110.995 106.363 111.433 106.363 111.972Z" fill="#211715" transform="matrix(1.00872 0 0 1 621.482 389.114)"/><path d="M122.265 97.4079C121.779 95.2031 119.598 93.7677 117.438 93.6758 116.529 93.6185 115.63 93.8897 114.904 94.4405 113.688 95.4194 113.371 97.2607 113.925 98.7253 114.641 100.617 116.192 102.212 118.478 102.212 120.658 102.175 122.396 100.377 122.358 98.1962 122.354 97.931 122.322 97.667 122.265 97.4079Z" fill="#FFFFFF" transform="matrix(1.00872 0 0 1 621.482 389.114)"/><path d="M99.6136 97.4079C100.1 95.2031 102.28 93.7677 104.441 93.6758 105.35 93.6185 106.249 93.8897 106.974 94.4405 108.191 95.4194 108.508 97.2607 107.953 98.7253 107.238 100.617 105.687 102.212 103.401 102.212 101.221 102.175 99.483 100.377 99.5204 98.1962 99.5249 97.931 99.5562 97.667 99.6136 97.4079Z" fill="#FFFFFF" transform="matrix(1.00872 0 0 1 621.482 389.114)"/><path d="M130.616 89.1807 132.812 86.9844 131.432 86.9844C132.598 88.0695 134.241 88.4787 135.78 88.0675 137.266 87.6152 138.46 86.5028 139.016 85.0528 140.182 81.9837 137.616 78.6628 134.402 78.7559L135.378 79.732C135.479 76.5218 132.152 73.9565 129.09 75.1181 127.644 75.6774 126.53 76.8638 126.063 78.3423 125.575 79.9151 126.106 81.4968 127.151 82.704L127.151 81.3236 125.083 83.3926C124.193 84.2821 125.573 85.6629 126.463 84.773L128.532 82.704C128.901 82.318 128.901 81.7095 128.532 81.3236 127.914 80.6642 127.691 79.728 127.946 78.8612 128.231 77.9904 128.888 77.2913 129.739 76.9525 131.592 76.261 133.485 77.8261 133.425 79.732 133.43 80.2689 133.865 80.7033 134.402 80.7082 136.319 80.6525 137.868 82.5454 137.182 84.4041 136.674 85.8415 135.096 86.5943 133.659 86.0859 133.35 85.9769 133.064 85.8134 132.812 85.6039 132.426 85.2342 131.818 85.2342 131.432 85.6039L129.235 87.8002C128.346 88.6898 129.726 90.071 130.616 89.1807Z" fill="#211715" transform="matrix(1.00872 0 0 1 621.482 389.114)"/><path d="M92.031 87.8002 89.8347 85.6039C89.4479 85.2338 88.8386 85.2338 88.4518 85.6039 87.28 86.5797 85.5393 86.421 84.5635 85.2497 84.3545 84.9983 84.1914 84.712 84.0824 84.4041 83.3873 82.5466 84.9515 80.6529 86.8627 80.7082 87.3996 80.7033 87.834 80.2689 87.8389 79.732 87.7787 77.8204 89.6692 76.268 91.5254 76.9525 92.3535 77.2815 92.999 77.9522 93.2959 78.7925 93.5839 79.6755 93.3683 80.6451 92.7334 81.3227 92.3629 81.7083 92.3629 82.3176 92.7334 82.7032L94.802 84.7722C95.6915 85.6617 97.0724 84.2817 96.1824 83.3917L94.1138 81.3227 94.1138 82.7032C95.1608 81.4936 95.6858 79.9167 95.2022 78.3414 94.7357 76.8626 93.6217 75.6762 92.175 75.1173 89.1132 73.9549 85.7861 76.5209 85.8874 79.7312L86.8636 78.7551C83.6504 78.6619 81.0836 81.9828 82.2488 85.052 82.8061 86.5016 83.9994 87.6136 85.4848 88.0667 87.0242 88.4783 88.667 88.0691 89.8335 86.9835L88.4506 86.9835 90.6469 89.1799C91.5368 90.0698 92.9177 88.6894 92.0298 87.7994Z" fill="#211715" transform="matrix(1.00872 0 0 1 621.482 389.114)"/><path d="M129.235 110.488 131.432 112.685C131.818 113.053 132.426 113.053 132.812 112.685 133.984 111.709 135.725 111.867 136.701 113.039 136.91 113.29 137.073 113.576 137.182 113.884 137.877 115.742 136.312 117.636 134.402 117.58 133.865 117.585 133.43 118.02 133.425 118.556 133.486 120.468 131.595 122.021 129.739 121.336 128.911 121.007 128.265 120.336 127.968 119.496 127.68 118.613 127.896 117.643 128.532 116.965 128.902 116.579 128.902 115.97 128.532 115.584L126.463 113.515C125.574 112.626 124.193 114.006 125.083 114.896L127.151 116.965 127.151 115.584C126.104 116.794 125.579 118.371 126.063 119.946 126.529 121.425 127.643 122.611 129.09 123.17 132.152 124.333 135.479 121.767 135.378 118.556L134.402 119.533C137.615 119.626 140.182 116.305 139.016 113.236 138.459 111.787 137.266 110.676 135.781 110.223 134.242 109.811 132.599 110.22 131.433 111.306L132.813 111.306 130.617 109.109C129.727 108.22 128.346 109.6 129.236 110.492Z" fill="#211715" transform="matrix(1.00872 0 0 1 621.482 389.114)"/><path d="M90.6502 109.107 88.4538 111.304 89.8367 111.304C88.669 110.218 87.025 109.81 85.4852 110.223 83.9994 110.675 82.8057 111.787 82.2493 113.237 81.084 116.306 83.6496 119.627 86.864 119.534L85.8878 118.558C85.7865 121.768 89.1136 124.334 92.1754 123.172 93.6217 122.613 94.7353 121.426 95.2027 119.948 95.6907 118.375 95.1591 116.793 94.1143 115.586L94.1143 116.967 96.1829 114.898C97.0724 114.008 95.6923 112.627 94.8024 113.517L92.7334 115.585C92.3645 115.971 92.3645 116.58 92.7334 116.966 93.3508 117.625 93.5737 118.561 93.3195 119.428 93.034 120.298 92.3771 120.998 91.5263 121.337 89.6732 122.028 87.7795 120.463 87.8397 118.557 87.8348 118.02 87.4004 117.586 86.8636 117.581 84.9458 117.637 83.3966 115.744 84.0832 113.885 84.5912 112.448 86.1685 111.695 87.6054 112.203 87.9141 112.312 88.2013 112.475 88.4526 112.685 88.839 113.056 89.4491 113.056 89.8355 112.685L92.0318 110.489C92.9213 109.6 91.5409 108.218 90.6489 109.106Z" fill="#211715" transform="matrix(1.00872 0 0 1 621.482 389.114)"/><path d="M45.9075 7.34953C45.2877 6.70857 44.6215 6.1141 43.9146 5.57092 40.4643 2.91663 36.1709 1.4874 31.8385 1.04976 30.9229 0.957432 26.9748 0.957432 26.0593 1.04976 21.7265 1.4874 17.4335 2.91663 13.9812 5.57214 10.5289 8.22765 7.9828 12.1684 7.44836 16.4903 6.83828 21.4117 8.88858 26.4412 12.2624 30.0782 13.657 31.583 15.3185 32.9069 17.296 33.4865 17.3321 35.7081 17.3667 37.9365 17.3997 40.1719 17.3867 40.334 17.4214 40.4963 17.4998 40.6388 17.5856 40.7454 17.6998 40.8251 17.8292 40.869 18.4891 41.0964 19.1859 41.1976 19.8832 41.1667 22.9047 41.222 34.9926 41.222 38.0146 41.1667 38.7119 41.1976 39.4087 41.0964 40.0686 40.869 40.1979 40.8251 40.3121 40.7449 40.398 40.6388 40.4763 40.4963 40.5111 40.334 40.4981 40.1719 40.5317 37.94 40.5663 35.7116 40.6018 33.4865 42.5793 32.9069 44.2403 31.5818 45.6354 30.0782 49.0112 26.4412 51.0587 21.4149 50.4494 16.4903 49.9605 13.0334 48.3674 9.82718 45.9075 7.34953Z" fill="#FFFFFF" transform="matrix(1.00872 0 0 1 621.482 389.114)"/><path d="M43.121 18.1863C42.4865 15.3047 39.6366 13.4276 36.8127 13.3089 35.625 13.2337 34.4498 13.5884 33.502 14.3082 31.9121 15.5873 31.4972 17.9935 32.222 19.908 33.1575 22.3801 35.1842 24.4633 38.1716 24.4633 41.0211 24.4144 43.2915 22.0645 43.2427 19.2149 43.2365 18.8688 43.1959 18.5242 43.121 18.1863Z" fill="#211715" transform="matrix(1.00872 0 0 1 621.482 389.114)"/><path d="M15.5446 18.1863C16.1795 15.3047 19.0291 13.4276 21.8534 13.3089 23.041 13.2337 24.216 13.5884 25.1637 14.3082 26.7536 15.5873 27.1684 17.9935 26.4441 19.908 25.5086 22.3801 23.4815 24.4633 20.4945 24.4633 17.6448 24.4148 15.3741 22.0653 15.4227 19.2156 15.4286 18.8687 15.4694 18.5233 15.5446 18.1847Z" fill="#211715" transform="matrix(1.00872 0 0 1 621.482 389.114)"/><path d="M46.5977 6.65932C42.9502 2.9207 37.9536 0.872833 32.8341 0.191974 31.2013 0.0134433 29.5576-0.047316 27.916 0.0101681 25.9281 0.0318906 23.9493 0.281903 22.0185 0.755289 17.1602 1.94618 12.6833 4.54963 9.67153 8.59208 6.75352 12.4569 5.71608 17.4239 6.84316 22.1336 7.52182 24.8237 8.76811 27.3376 10.4984 29.5063 12.1965 31.6733 14.3582 33.6122 17.0365 34.4277L16.3199 33.4865C16.3511 35.4117 16.381 37.3358 16.4097 39.2588 16.424 40.2109 16.3414 41.2294 17.3363 41.7117 18.1444 42.0367 19.0131 42.1839 19.8832 42.1429 21.5886 42.175 23.2948 42.1742 25.0006 42.1791 29.196 42.1913 33.393 42.2067 37.5884 42.1494 38.2544 42.1571 38.92 42.1132 39.5793 42.018 40.0545 41.9582 40.5074 41.7813 40.8975 41.5031 41.3038 41.1423 41.5181 40.612 41.4758 40.0702 41.5271 37.8763 41.5421 35.6808 41.5779 33.4865L40.8613 34.4277C42.9746 33.7125 44.8602 32.4493 46.3256 30.7672 47.7833 29.2065 48.982 27.4224 49.8751 25.4826 51.6781 21.5186 52.1121 17.0101 50.5609 12.8867 49.6754 10.5635 48.3271 8.44448 46.5977 6.6581 45.7273 5.74907 44.3477 7.13071 45.2173 8.03852 47.861 10.801 49.5961 14.429 49.5802 18.2961 49.564 22.1194 47.9533 25.8759 45.4951 28.7677 44.1053 30.4023 42.432 31.9076 40.3423 32.5441 39.924 32.6684 39.6341 33.049 39.6256 33.4853 39.5969 35.2404 39.5698 36.9955 39.5443 38.7504 39.5405 38.9871 39.537 39.2238 39.5337 39.4605 39.4987 39.6621 39.4955 39.868 39.5244 40.0706L39.5244 40.1723 39.7025 39.9689C39.707 39.9734 39.5272 40.0206 39.5671 40.0169 39.3727 40.034 39.1758 40.1231 38.9773 40.1475 38.5164 40.1892 38.0536 40.2062 37.5908 40.1983 35.9289 40.2211 34.267 40.2248 32.6056 40.2288 28.6546 40.239 24.7029 40.2467 20.7524 40.2036 20.4343 40.2003 20.1162 40.1967 19.7982 40.1902 19.3912 40.1994 18.9844 40.1648 18.5849 40.0869 18.5036 40.0673 18.0293 39.8835 18.2892 40.071 18.4751 40.2052 18.3474 40.1422 18.375 39.9701 18.3842 39.8346 18.3822 39.6986 18.3689 39.5634 18.3386 37.5379 18.3071 35.5124 18.2746 33.4869 18.2662 33.0506 17.9763 32.6699 17.5579 32.5458 15.4153 31.895 13.7087 30.3279 12.2982 28.6412 10.8735 26.9417 9.78427 24.9872 9.08828 22.8816 8.38509 20.8092 8.1616 18.6042 8.43467 16.4329 8.75261 14.31 9.53218 12.2826 10.7184 10.4935 13.1673 6.72683 17.0987 4.21896 21.3568 2.95689 24.6789 1.97262 28.1015 1.80505 31.544 2.00475 33.9977 2.18665 36.4066 2.75935 38.6796 3.7012 41.1362 4.6786 43.3626 6.15652 45.2169 8.04096 46.0962 8.94064 47.4763 7.55981 46.5977 6.65932Z" fill="#211715" transform="matrix(1.00872 0 0 1 621.482 389.114)"/><path d="M32.1114 35.8398 32.1114 40.3024C32.1114 40.8413 32.5484 41.2786 33.0875 41.2786 33.6266 41.2786 34.0637 40.8413 34.0637 40.3024L34.0637 35.8398C34.0637 35.3007 33.6266 34.8637 33.0875 34.8637 32.5484 34.8637 32.1114 35.3007 32.1114 35.8398Z" fill="#211715" transform="matrix(1.00872 0 0 1 621.482 389.114)"/><path d="M23.8402 35.8398 23.8402 40.3024C23.8402 40.8413 24.2772 41.2786 24.8164 41.2786 25.3555 41.2786 25.7925 40.8413 25.7925 40.3024L25.7925 35.8398C25.7925 35.3007 25.3555 34.8637 24.8164 34.8637 24.2772 34.8637 23.8402 35.3007 23.8402 35.8398Z" fill="#211715" transform="matrix(1.00872 0 0 1 621.482 389.114)"/><path d="M130.928 21.7098 133.397 18.6703C134.234 17.6405 134.077 16.1274 133.047 15.2907 132.784 15.0767 132.478 14.921 132.15 14.8337L128.368 13.8262C127.269 13.5338 126.525 12.5109 126.587 11.3753L126.798 7.46504C126.869 6.14009 125.853 5.00797 124.528 4.93639 124.19 4.91808 123.851 4.97173 123.534 5.09383L119.881 6.50313C118.82 6.91234 117.618 6.52197 116.999 5.56767L114.871 2.27766C114.15 1.16373 112.662 0.845155 111.548 1.5661 111.263 1.7504 111.021 1.99291 110.837 2.27766L108.709 5.56523C108.091 6.51961 106.888 6.90998 105.828 6.50069L102.174 5.09139C100.936 4.61393 99.5453 5.23045 99.0678 6.46844 98.9457 6.785 98.8921 7.1238 98.9104 7.4626L99.1219 11.3729C99.1829 12.5084 98.4398 13.5313 97.3408 13.8238L93.5583 14.8312C92.2759 15.173 91.5132 16.4895 91.8553 17.7719 91.9423 18.0994 92.0981 18.4048 92.3116 18.6679L94.7809 21.7073C95.4979 22.59 95.4979 23.8544 94.7809 24.737L92.31 27.7794C91.4734 28.8092 91.63 30.3223 92.6598 31.159 92.923 31.373 93.2288 31.5287 93.5566 31.616L97.3392 32.6235C98.4382 32.9161 99.1816 33.9392 99.1202 35.0748L98.9087 38.985C98.8376 40.31 99.8536 41.4421 101.179 41.5133 101.517 41.5316 101.856 41.4779 102.172 41.3559L105.826 39.947C106.887 39.5372 108.09 39.9277 108.708 40.8824L110.835 44.17C111.556 45.284 113.044 45.6025 114.158 44.8813 114.442 44.6971 114.685 44.4547 114.869 44.17L116.997 40.8824C117.614 39.9272 118.817 39.5366 119.878 39.947L123.531 41.3559C124.769 41.8338 126.16 41.2176 126.637 39.9798 126.76 39.6631 126.813 39.3241 126.795 38.985L126.584 35.0748C126.523 33.9391 127.266 32.916 128.365 32.6235L132.148 31.616C133.43 31.2747 134.193 29.9585 133.851 28.6763 133.764 28.3484 133.608 28.0427 133.394 27.7794L130.925 24.7403C130.208 23.8569 130.21 22.5919 130.928 21.7098Z" fill="#211715" transform="matrix(1.00872 0 0 1 621.482 389.114)"/><path d="M120.464 20.0052C118.764 20.4408 117.024 20.887 115.986 21.1546 115.787 21.2053 115.666 21.4081 115.717 21.6075 115.725 21.6394 115.737 21.6701 115.753 21.6988 116.503 23.0028 118.945 23.7324 121.267 23.1089 123.602 22.5293 125.382 20.7048 125.406 19.2007 125.407 18.9949 125.242 18.8268 125.036 18.8253 125.003 18.825 124.97 18.8291 124.938 18.8375 123.901 19.1067 122.163 19.5611 120.464 20.0052Z" fill="#FFFFFF" transform="matrix(1.00872 0 0 1 621.482 389.114)"/><path d="M105.243 20.0052C106.944 20.4408 108.684 20.887 109.722 21.1546 109.921 21.2052 110.041 21.4076 109.991 21.6069 109.983 21.639 109.97 21.6699 109.954 21.6988 109.204 23.0028 106.762 23.7324 104.44 23.1089 102.106 22.5293 100.325 20.7048 100.302 19.2007 100.3 18.9949 100.466 18.8268 100.671 18.8253 100.704 18.825 100.737 18.8291 100.769 18.8375 101.806 19.1067 103.545 19.5611 105.243 20.0052Z" fill="#FFFFFF" transform="matrix(1.00872 0 0 1 621.482 389.114)"/><path d="M52.5213 94.6231C51.4752 94.606 50.4986 95.1445 49.9548 96.0385 49.7397 96.3716 49.37 96.5725 48.9734 96.5721 47.4051 96.5859 45.8372 96.6262 44.2688 96.6469 43.6746 96.6522 43.1678 96.2178 43.0812 95.6301 42.7387 93.3602 41.8964 91.1948 40.6148 89.2905 40.2968 88.8223 40.3531 88.1948 40.7494 87.7909 41.8374 86.6805 42.9083 85.5539 43.9943 84.4415 44.2765 84.1645 44.6821 84.0531 45.066 84.147 46.0714 84.3711 47.1212 84.0519 47.8317 83.3059 49.0247 82.1134 48.9815 80.0619 47.4799 78.5603 45.9783 77.0586 43.9194 77.0245 42.7346 78.2088 41.9887 78.9304 41.6776 79.9911 41.9151 81.0014 42.0095 81.3866 41.9025 81.7933 41.6304 82.0817 40.5684 83.1693 39.5203 84.2703 38.4579 85.357 38.0447 85.7752 37.3882 85.8288 36.9124 85.4839 34.9686 84.1019 32.7285 83.1937 30.371 82.8317 29.7997 82.7434 29.3755 82.2558 29.3676 81.6778 29.3526 80.5268 29.3269 78.6371 29.3115 77.2177 29.303 76.793 29.5262 76.3973 29.8939 76.1846 30.8585 75.6501 31.4455 74.6232 31.4167 73.5209 31.4167 71.8342 29.9358 70.4139 27.8119 70.4139 25.6811 70.4139 24.2079 71.8456 24.2079 73.5209 24.1921 74.4967 24.6616 75.4167 25.461 75.9763 25.7692 76.1854 25.9586 76.5295 25.9702 76.9016 25.9873 78.3756 26.0203 80.4194 26.041 81.6469 26.0495 82.2391 25.6204 82.7467 25.0352 82.837 22.8234 83.1855 20.7154 84.0165 18.8603 85.27 18.3916 85.5913 17.7613 85.536 17.3554 85.1386 16.2523 84.0596 15.1339 82.9956 14.0304 81.917 13.7647 81.6461 13.6522 81.2601 13.7306 80.8888 13.923 79.9106 13.6065 78.9015 12.8899 78.208 11.7056 77.0236 9.6516 77.0525 8.14468 78.5594 6.63776 80.0664 6.59912 82.1126 7.79327 83.3051 8.54254 84.095 9.66599 84.4077 10.7156 84.1186 11.1117 84.0197 11.5306 84.1356 11.8194 84.424 12.8513 85.4303 13.8937 86.4251 14.924 87.4338 15.3418 87.845 15.397 88.4998 15.0541 88.9753 13.6283 90.9817 12.701 93.2992 12.349 95.7355 12.2651 96.3142 11.7722 96.7458 11.1874 96.7523 9.73538 96.7698 8.28378 96.8039 6.83177 96.821 6.39922 96.8279 5.99774 96.5969 5.78689 96.2191 5.26522 95.2246 4.22771 94.6092 3.10494 94.628 1.43167 94.6231 0 96.0958 0 98.2271 0 100.351 1.42029 101.831 3.10698 101.831 4.05959 101.854 4.96409 101.414 5.53391 100.65 5.74687 100.352 6.08714 100.172 6.45311 100.162 8.04706 100.147 9.64102 100.106 11.2354 100.086 11.824 100.081 12.3276 100.508 12.4198 101.089 12.7711 103.386 13.6305 105.575 14.9354 107.498 15.2588 107.964 15.2078 108.594 14.8134 109.002 13.8319 110.015 12.8574 111.036 11.8683 112.04 11.5747 112.341 11.1423 112.462 10.7351 112.357 9.68373 112.059 8.55376 112.364 7.79449 113.149 6.6097 114.334 6.63857 116.388 8.14549 117.895 9.65241 119.402 11.6986 119.44 12.8912 118.246 13.7575 117.417 14.0376 116.147 13.6005 115.031 13.6086 115.023 13.618 115.018 13.6261 115.01 14.8268 113.808 15.9973 112.578 17.1789 111.357 17.5828 110.944 18.2252 110.88 18.7025 111.206 20.5895 112.461 22.7309 113.283 24.9729 113.613 25.5466 113.7 25.9735 114.189 25.9828 114.769 26.0097 116.461 26.0516 118.153 26.0528 119.846 26.0542 119.941 26.0644 120.035 26.0833 120.127 24.9415 120.588 24.1989 121.702 24.2124 122.934 24.2124 124.609 25.6855 126.041 27.8164 126.041 29.9403 126.041 31.4212 124.62 31.4212 122.934 31.4496 121.622 30.6187 120.446 29.3733 120.034 29.3836 119.971 29.3901 119.909 29.3928 119.845 29.3928 118.174 29.3522 116.503 29.3237 114.833 29.3168 114.23 29.7607 113.718 30.358 113.638 32.8315 113.323 35.1901 112.407 37.2268 110.969 37.6934 110.63 38.3358 110.675 38.7504 111.076 39.9193 112.207 41.0964 113.33 42.2482 114.479 42.2551 114.486 42.2641 114.491 42.271 114.497 41.5259 115.702 41.7211 117.262 42.7395 118.246 43.9321 119.438 45.9836 119.396 47.4852 117.894 48.9868 116.392 49.021 114.333 47.8366 113.149 47.0569 112.342 45.89 112.044 44.8191 112.376 44.7581 112.283 44.6877 112.196 44.6088 112.118 43.4208 110.931 42.2047 109.773 40.9983 108.605 40.5941 108.21 40.5229 107.585 40.8279 107.11 41.9842 105.248 42.7416 103.167 43.0519 100.997 43.1377 100.421 43.6294 99.9914 44.2127 99.9841 45.7944 99.9638 47.3754 99.9227 48.9571 99.9085 49.3614 99.9028 49.7401 100.106 49.9593 100.446 50.5092 101.328 51.4849 101.854 52.5245 101.829 54.2116 101.829 55.6319 100.348 55.6319 98.2242 55.6287 96.0958 54.197 94.6231 52.5213 94.6231Z" fill="#211715" transform="matrix(1.00872 0 0 1 621.482 389.114)"/><path d="M34.5143 96.4424C33.0757 96.8108 31.6038 97.1883 30.7257 97.4144 30.557 97.4575 30.4552 97.6292 30.4983 97.798 30.5051 97.8248 30.5156 97.8508 30.5292 97.8748 31.1637 98.9779 33.2291 99.5969 35.1936 99.0678 37.1682 98.5777 38.6743 97.0341 38.6938 95.7619 38.695 95.5874 38.5546 95.4455 38.3803 95.4442 38.3527 95.4438 38.3252 95.4475 38.2985 95.4544 37.4212 95.6826 35.9509 96.0686 34.5143 96.4424Z" fill="#FFFFFF" transform="matrix(1.00872 0 0 1 621.482 389.114)"/><path d="M21.1143 96.4424C22.5529 96.8108 24.0249 97.1883 24.9026 97.4144 25.0713 97.4571 25.1733 97.6288 25.1304 97.7976 25.1236 97.8244 25.1131 97.8504 25.0994 97.8748 24.4649 98.9779 22.3996 99.5969 20.4351 99.0678 18.4605 98.5777 16.9544 97.0341 16.9348 95.7619 16.9334 95.5878 17.0734 95.4455 17.2475 95.4442 17.2753 95.4438 17.3029 95.4475 17.3298 95.4544 18.2075 95.6826 19.6778 96.0686 21.1143 96.4424Z" fill="#FFFFFF" transform="matrix(1.00872 0 0 1 621.482 389.114)"/></g></svg>